<svg width="18" height="18" viewBox="0 0 18 18" fill="none" xmlns="http://www.w3.org/2000/svg">
<path d="M12.5658 17.2351C15.3576 17.2351 17.2352 15.2751 17.2352 12.368V5.63981C17.2352 2.72452 15.3576 0.764521 12.5658 0.764521H5.42582C2.63488 0.764521 0.764648 2.72452 0.764648 5.63981V12.368C0.764648 15.2751 2.63488 17.2351 5.42582 17.2351H12.5658ZM8.99994 12.9775C8.65406 12.9775 8.3823 12.7057 8.3823 12.3598V7.1304L6.34818 9.17276C6.23288 9.28805 6.06818 9.35393 5.91171 9.35393C5.75606 9.35393 5.59877 9.28805 5.47524 9.17276C5.23641 8.93393 5.23641 8.53864 5.47524 8.29981L8.56347 5.19511C8.79406 4.96452 9.20582 4.96452 9.43641 5.19511L12.5246 8.29981C12.7635 8.53864 12.7635 8.93393 12.5246 9.17276C12.2776 9.41158 11.8905 9.41158 11.6435 9.17276L9.61759 7.1304V12.3598C9.61759 12.7057 9.33759 12.9775 8.99994 12.9775Z" fill="#0EBE7E"/>
</svg>
