<svg width="20" height="20" viewBox="0 0 20 20" fill="none" xmlns="http://www.w3.org/2000/svg">
<path d="M13.5678 1.76514C16.3595 1.76514 18.2372 3.72514 18.2372 6.63219V13.3604C18.2372 16.2757 16.3595 18.2357 13.5678 18.2357H6.42778C3.63684 18.2357 1.7666 16.2757 1.7666 13.3604V6.63219C1.7666 3.72514 3.63684 1.76514 6.42778 1.76514H13.5678ZM10.0019 6.02278C9.65601 6.02278 9.38425 6.29455 9.38425 6.64043V11.8698L7.35013 9.82749C7.23484 9.71219 7.07013 9.64631 6.91366 9.64631C6.75801 9.64631 6.60072 9.71219 6.47719 9.82749C6.23837 10.0663 6.23837 10.4616 6.47719 10.7004L9.56542 13.8051C9.79601 14.0357 10.2078 14.0357 10.4384 13.8051L13.5266 10.7004C13.7654 10.4616 13.7654 10.0663 13.5266 9.82749C13.2795 9.58867 12.8925 9.58867 12.6454 9.82749L10.6195 11.8698V6.64043C10.6195 6.29455 10.3395 6.02278 10.0019 6.02278Z" fill="#EAB932"/>
</svg>
