<svg width="122" height="120" viewBox="0 0 122 120" fill="none" xmlns="http://www.w3.org/2000/svg">
<g clip-path="url(#clip0)">
<path d="M10.8936 0.0915527L11.3055 41.1724L71.3591 39.3644C71.9312 26.2734 72.5034 13.1825 73.0527 0.114439C52.3406 0.0915527 31.6056 0.0915527 10.8936 0.0915527Z" fill="white" stroke="#202124" stroke-width="0.391254" stroke-miterlimit="10"/>
<path d="M26.0674 29.7064C26.0674 31.1024 26.0674 32.4756 26.0674 33.8717L57.6047 32.9333C57.6047 31.7204 57.6047 30.4845 57.6047 29.2715C47.0999 29.4089 36.5951 29.5462 26.0674 29.7064Z" fill="#2F878A"/>
<path d="M31.2627 10.1615H53.2793" stroke="#202124" stroke-width="0.391254" stroke-miterlimit="10"/>
<path d="M50.2578 7.68976L53.2788 10.1615" stroke="#202124" stroke-width="0.391254" stroke-miterlimit="10"/>
<path d="M50.6699 13.0681L53.2789 10.1615" stroke="#202124" stroke-width="0.391254" stroke-miterlimit="10"/>
<path d="M53.2793 17.714H31.2627" stroke="#202124" stroke-width="0.391254" stroke-miterlimit="10"/>
<path d="M34.3066 15.2422L31.2627 17.714" stroke="#202124" stroke-width="0.391254" stroke-miterlimit="10"/>
<path d="M33.8717 20.6205L31.2627 17.714" stroke="#202124" stroke-width="0.391254" stroke-miterlimit="10"/>
<path d="M20.3232 5.35537C20.3232 6.20216 20.3232 7.02606 20.3232 7.87285C20.3232 8.30769 21.0098 8.30769 21.0098 7.87285C21.0098 7.02606 21.0098 6.20216 21.0098 5.35537C21.0098 4.92053 20.3232 4.92053 20.3232 5.35537Z" fill="#202124"/>
<path d="M22.6344 8.01018C21.1697 7.46091 19.3617 7.36936 18.2174 8.62811C17.3935 9.54356 17.3248 11.0769 18.3318 11.9008C19.7508 13.068 22.5429 11.5576 23.2066 13.7089C23.6185 15.0134 22.7489 16.5239 21.4901 16.9816C20.3229 17.4164 19.1099 16.9358 18.3547 16.0204C18.0572 15.6771 17.5766 16.1806 17.8741 16.501C20.0025 18.9956 24.4653 17.4393 23.9847 13.9606C23.7787 12.4501 22.5887 11.8093 21.1697 11.7635C19.911 11.7406 17.7825 11.672 18.3547 9.77242C18.8811 8.01018 21.101 8.17038 22.4513 8.67388C22.8633 8.8112 23.0464 8.14749 22.6344 8.01018Z" fill="#202124"/>
<path d="M20.5742 17.5767C20.5742 18.3777 20.5742 19.1558 20.5742 19.9569C20.5742 20.3917 21.2608 20.3917 21.2608 19.9569C21.2608 19.1558 21.2608 18.3777 21.2608 17.5767C21.2608 17.1418 20.5742 17.1418 20.5742 17.5767Z" fill="#202124"/>
<path d="M66.4386 5.56134C62.4792 5.56134 59.3209 8.94851 59.5498 12.7476C59.7786 16.4094 63.0514 19.3389 66.8505 19.0871" stroke="#202124" stroke-width="1.04334" stroke-miterlimit="10"/>
<path d="M57.8564 10.5506H63.784" stroke="#202124" stroke-width="1.04334" stroke-miterlimit="10"/>
<path d="M57.8789 13.2283H63.8065" stroke="#202124" stroke-width="1.04334" stroke-miterlimit="10"/>
<path d="M19.3613 37.5564L49.6627 36.5036" stroke="#202124" stroke-width="0.391254" stroke-miterlimit="10"/>
<path d="M51.1279 36.5036L63.8069 36.1375" stroke="#202124" stroke-width="0.391254" stroke-miterlimit="10"/>
<path d="M24.374 39.0897L59.5273 37.9454" stroke="#202124" stroke-width="0.391254" stroke-miterlimit="10"/>
<path d="M0.320486 58.8635C6.70576 64.4706 13.0681 70.0778 19.4534 75.6849C45.6582 72.8699 71.8401 70.0778 98.0449 67.2627C98.1593 66.7135 98.2509 66.1413 98.3653 65.5921C87.2655 61.2665 76.1427 56.941 65.0429 52.6155C43.4154 53.7827 21.8107 54.9499 0.206055 56.14C0.228941 57.0326 0.274714 57.948 0.320486 58.8635Z" fill="#202124"/>
<path d="M0.206055 56.14C6.70576 62.1362 13.2055 68.1324 19.728 74.1286C45.9328 71.2907 72.1376 68.4528 98.3653 65.592C87.9978 60.5342 77.6532 55.4763 67.2857 50.4413C44.9258 52.3409 22.5659 54.2405 0.206055 56.14Z" fill="white" stroke="#202124" stroke-width="0.391254" stroke-miterlimit="10"/>
<path d="M20.415 64.5622C21.8798 63.6468 23.3445 62.7084 24.8092 61.793C26.6401 62.4338 28.471 63.0517 30.3248 63.6925C28.9058 64.7453 27.4869 65.7752 26.0451 66.8279C24.1684 66.0727 22.2917 65.3174 20.415 64.5622Z" fill="white" stroke="#202124" stroke-width="0.391254" stroke-miterlimit="10"/>
<path d="M22.6582 56.9182L23.5279 64.0129H27.0981L27.7847 56.9182H22.6582Z" fill="#202124"/>
<path d="M25.2215 57.6277C26.6371 57.6277 27.7847 57.228 27.7847 56.7351C27.7847 56.2421 26.6371 55.8425 25.2215 55.8425C23.8058 55.8425 22.6582 56.2421 22.6582 56.7351C22.6582 57.228 23.8058 57.6277 25.2215 57.6277Z" fill="white" stroke="#202124" stroke-width="0.391254" stroke-miterlimit="10"/>
<path d="M24.2145 51.8145C23.8483 52.112 23.3448 52.73 23.5508 53.2335C23.8025 53.8743 24.6951 53.6454 24.9926 54.1718C25.107 54.3549 25.4046 54.1947 25.2901 53.9887C25.0842 53.6225 24.7409 53.5539 24.3747 53.4395C24.0314 53.325 23.7796 53.0962 23.9627 52.7071C24.0772 52.4553 24.2603 52.2494 24.4662 52.0663C24.6264 51.929 24.3747 51.6772 24.2145 51.8145Z" fill="#202124"/>
<path d="M24.9233 54.8813C24.4885 54.8355 24.0994 55.2475 24.1681 55.6823C24.2596 56.1858 24.8775 56.2316 25.1522 56.5978C25.2895 56.758 25.5412 56.5291 25.4039 56.346C25.2208 56.14 24.992 56.0485 24.7631 55.8883C24.6258 55.7967 24.4656 55.6823 24.5114 55.4992C24.5571 55.2932 24.7402 55.1788 24.9233 55.2017C25.1522 55.2475 25.1522 54.9042 24.9233 54.8813Z" fill="#202124"/>
<path d="M26.022 53.8285C25.6558 53.8972 25.4727 54.2633 25.61 54.6066C25.8389 55.2017 26.9603 55.5907 26.1593 56.3231C25.9991 56.4833 26.228 56.7122 26.4111 56.5748C26.6857 56.3231 26.823 56.0027 26.7544 55.6365C26.7315 55.4763 26.6628 55.339 26.5713 55.2246C26.5026 55.133 25.5185 54.2862 26.0907 54.1947C26.3424 54.126 26.228 53.8056 26.022 53.8285Z" fill="#202124"/>
<path d="M29.8896 57.6277C31.1255 58.772 32.3614 59.9621 33.6201 61.1979C34.856 62.4109 36.0461 63.601 37.1675 64.7911L65.7753 61.6556C62.8459 59.4586 59.9164 57.2844 56.9641 55.0873C47.9469 55.957 38.9068 56.8038 29.8896 57.6277Z" fill="white" stroke="#202124" stroke-width="0.521672" stroke-miterlimit="10"/>
<path d="M32.0186 58.2685L37.5799 63.9214" stroke="#202124" stroke-width="0.521672" stroke-miterlimit="10"/>
<path d="M63.0057 60.7402L37.5791 63.9214" stroke="#202124" stroke-width="0.521672" stroke-miterlimit="10"/>
<path d="M32.0186 58.2685L56.6671 55.751" stroke="#202124" stroke-width="0.521672" stroke-miterlimit="10"/>
<path d="M63.0055 60.7402L56.666 55.751" stroke="#202124" stroke-width="0.521672" stroke-miterlimit="10"/>
<path d="M33.1396 59.4128L57.9026 56.7351" stroke="#202124" stroke-width="0.521672" stroke-miterlimit="10"/>
<path d="M34.1924 60.4655L58.8638 57.6276" stroke="#202124" stroke-width="0.521672" stroke-miterlimit="10"/>
<path d="M35.4971 61.793L60.4431 58.7491" stroke="#202124" stroke-width="0.521672" stroke-miterlimit="10"/>
<path d="M36.7324 62.7771L61.77 59.962" stroke="#202124" stroke-width="0.521672" stroke-miterlimit="10"/>
<path d="M34.1006 58.0854L39.6849 63.6468" stroke="#202124" stroke-width="0.521672" stroke-miterlimit="10"/>
<path d="M36.6182 57.7878L41.9735 63.3721" stroke="#202124" stroke-width="0.521672" stroke-miterlimit="10"/>
<path d="M39.6162 57.4904L44.697 63.0288" stroke="#202124" stroke-width="0.521672" stroke-miterlimit="10"/>
<path d="M42.1562 57.2386L46.2987 61.7929" stroke="#202124" stroke-width="0.521672" stroke-miterlimit="10"/>
<path d="M45.0176 56.941L48.9312 61.3581" stroke="#202124" stroke-width="0.521672" stroke-miterlimit="10"/>
<path d="M47.9697 56.7351L51.8375 61.0606" stroke="#202124" stroke-width="0.521672" stroke-miterlimit="10"/>
<path d="M50.625 56.3689L55.5456 61.6785" stroke="#202124" stroke-width="0.521672" stroke-miterlimit="10"/>
<path d="M53.0732 56.0714L58.6346 61.2894" stroke="#202124" stroke-width="0.521672" stroke-miterlimit="10"/>
<path d="M55.0879 55.751L60.8781 60.8546" stroke="#202124" stroke-width="0.521672" stroke-miterlimit="10"/>
<path d="M107.543 101.226L108.985 116.216H117.796L119.398 101.226H107.543Z" fill="#202124"/>
<path d="M113.471 103.011C116.744 103.011 119.398 102.325 119.398 101.478C119.398 100.631 116.744 99.9443 113.471 99.9443C110.197 99.9443 107.543 100.631 107.543 101.478C107.543 102.325 110.197 103.011 113.471 103.011Z" fill="white" stroke="#202124" stroke-width="0.391254" stroke-miterlimit="10"/>
<path d="M112.349 85.8463C111.914 87.1509 111.8 88.5012 112.074 89.8743C112.372 91.3162 113.196 92.552 113.493 93.971C114.111 96.7631 111.662 99.5095 113.287 102.187C113.516 102.553 114.111 102.21 113.882 101.844C112.418 99.4179 114.638 96.7173 114.226 94.1541C114.043 92.9869 113.448 91.9341 113.036 90.8127C112.463 89.2335 112.463 87.6086 112.99 86.0294C113.127 85.6175 112.486 85.4344 112.349 85.8463Z" fill="#0EBE7E"/>
<path d="M116.583 86.6474C117.247 87.9519 116.766 89.7828 116.24 91.0645C115.69 92.369 114.706 93.5362 113.928 94.7034C113.676 95.0696 114.271 95.4128 114.523 95.0467C116.125 92.6894 118.734 89.3022 117.201 86.3041C116.972 85.8922 116.377 86.2355 116.583 86.6474Z" fill="#0EBE7E"/>
<path d="M107.382 90.3092C107.176 92.0943 107.474 93.6735 108.87 94.9093C110.289 96.191 112.715 97.0835 112.669 99.3493C112.669 99.7841 113.355 99.7841 113.355 99.3493C113.401 97.793 112.371 96.6716 111.181 95.779C110.403 95.184 109.533 94.7034 108.87 93.971C107.954 92.9182 107.908 91.6137 108.069 90.3092C108.114 89.8515 107.428 89.8744 107.382 90.3092Z" fill="#0EBE7E"/>
<path d="M109.991 95.7561C109.762 95.2069 109.419 94.1541 109.533 92.7809C109.671 91.0644 110.518 89.8744 110.861 89.4166C111.09 89.943 111.433 90.8813 111.387 92.0943C111.319 93.9939 110.357 95.2984 109.991 95.7561Z" fill="#0EBE7E"/>
<path d="M107.68 91.9799C107.268 91.545 106.788 90.9271 106.444 90.1032C105.369 87.4484 106.65 84.8852 106.902 84.4045C107.337 84.908 108.046 85.8921 108.344 87.3111C108.87 89.5997 107.955 91.4535 107.68 91.9799Z" fill="#0EBE7E"/>
<path d="M112.349 87.1509C112.052 86.6245 111.708 85.8006 111.617 84.7478C111.411 82.2074 112.921 80.3537 113.31 79.9188C113.539 80.5596 113.768 81.4751 113.768 82.5965C113.768 84.8394 112.83 86.4643 112.349 87.1509Z" fill="#0EBE7E"/>
<path d="M113.355 93.1928C112.921 93.0555 112.989 91.2246 113.424 89.8744C113.928 88.2952 114.935 87.2882 115.507 86.7847C115.598 87.2425 115.69 87.8833 115.621 88.6385C115.438 91.1102 113.905 93.353 113.355 93.1928Z" fill="#0EBE7E"/>
<path d="M112.784 100.562C112.303 100.562 111.594 100.471 110.885 100.105C108.779 99.006 108.504 96.4427 108.481 96.1452C109.054 96.3283 110.358 96.8089 111.457 98.0676C112.281 99.0289 112.624 100.013 112.784 100.562Z" fill="#0EBE7E"/>
<path d="M113.355 98.594C113.378 98.1592 113.47 96.7173 114.568 95.4586C115.964 93.8337 117.887 93.7192 118.23 93.7192C118.07 94.3372 117.681 95.4128 116.788 96.4427C115.53 97.9074 113.996 98.4109 113.355 98.594Z" fill="#0EBE7E"/>
<path d="M116.399 91.545C116.766 90.6067 117.544 89.0046 119.123 87.6086C119.924 86.8991 120.725 86.4185 121.389 86.0981C121.366 86.5329 121.251 88.2723 119.878 89.7599C118.528 91.2246 116.857 91.4764 116.399 91.545Z" fill="#0EBE7E"/>
<path d="M117.246 87.8375C116.857 87.3798 116.056 86.2812 115.965 84.7707C115.828 82.5279 117.338 80.3765 117.887 80.5367C118.368 80.6512 118.276 82.4821 118.231 83.3746C118.162 85.2742 117.681 86.8076 117.246 87.8375Z" fill="#0EBE7E"/>
<path d="M75.1588 119.237C81.9084 119.237 87.38 117.455 87.38 115.255C87.38 113.056 81.9084 111.273 75.1588 111.273C68.4091 111.273 62.9375 113.056 62.9375 115.255C62.9375 117.455 68.4091 119.237 75.1588 119.237Z" fill="white" stroke="#202124" stroke-width="0.391254" stroke-miterlimit="10"/>
<path d="M69.5059 90.0575L72.1378 114.248C72.4811 114.5 73.7398 115.347 75.5021 115.255C76.8981 115.164 77.8822 114.523 78.2713 114.248C79.141 106.604 79.9878 98.9602 80.8574 91.3162L69.5059 90.0575Z" fill="white" stroke="#202124" stroke-width="0.391254" stroke-miterlimit="10"/>
<path d="M63.8757 106.696C56.3004 109.396 52.6157 111.182 52.8217 112.005C53.0505 112.967 58.4974 112.692 69.1167 111.159C68.9794 109.557 68.8649 107.977 68.7276 106.375C67.1027 106.49 65.4778 106.581 63.8757 106.696Z" fill="#0EBE7E"/>
<path d="M63.2124 107.245C63.0293 106.879 61.6333 104.979 61.1985 105.941C61.0382 106.284 61.3129 106.879 61.5189 107.131C61.7706 107.405 62.1826 107.565 62.5259 107.405C62.8005 107.291 62.7776 107.131 62.9378 107.497C63.0293 107.726 63.098 107.977 63.2124 108.206C63.3498 108.481 63.6702 108.939 64.0363 108.778C64.3339 108.664 64.2423 108.298 64.1508 108.069C63.9677 107.611 63.5557 107.314 63.098 107.245C62.9836 107.222 62.9378 107.382 63.0522 107.405C63.4413 107.474 63.7617 107.68 63.9448 108.023C64.1279 108.252 64.0821 108.366 63.7846 108.344C63.5786 108.481 63.4413 108.435 63.3726 108.183C63.304 108.046 63.2353 107.909 63.1895 107.771C63.1209 107.565 63.0751 107.085 62.8234 107.016C62.7547 106.993 62.7089 107.062 62.6632 107.085C62.3199 107.199 62.2283 107.428 61.8393 107.199C61.6104 107.085 61.4502 106.787 61.3815 106.558C61.29 106.238 61.1756 105.849 61.885 106.009C62.0681 106.055 62.2512 106.284 62.3656 106.375C62.6403 106.65 62.8691 106.97 63.0293 107.314C63.1209 107.451 63.2582 107.359 63.2124 107.245Z" fill="white"/>
<path d="M58.5433 108.687C58.9094 108.733 59.2527 108.939 59.4587 109.259C59.5274 109.351 59.6647 109.259 59.596 109.168C59.3672 108.801 58.9781 108.573 58.5433 108.527C58.4517 108.504 58.4517 108.664 58.5433 108.687Z" fill="white"/>
<path d="M59.6193 108.229C60.0312 108.092 60.3288 108.481 60.5347 108.778C60.6034 108.87 60.7407 108.778 60.6721 108.687C60.4203 108.321 60.0541 107.909 59.5506 108.046C59.482 108.115 59.5277 108.275 59.6193 108.229Z" fill="white"/>
<path d="M60.6487 107.817C61.0149 107.794 61.3811 108.023 61.4726 108.389C61.4955 108.504 61.6786 108.458 61.6328 108.344C61.5184 107.909 61.0836 107.611 60.6487 107.634C60.5572 107.634 60.5572 107.817 60.6487 107.817Z" fill="white"/>
<path d="M61.3348 107.543C61.701 107.588 62.0214 107.863 62.113 108.206C62.1359 108.321 62.319 108.275 62.2732 108.161C62.1359 107.726 61.7697 107.428 61.3348 107.359C61.2204 107.359 61.2204 107.52 61.3348 107.543Z" fill="white"/>
<path d="M58.9325 111.799C62.251 111.616 65.5466 111.227 68.8194 110.609C68.9338 110.587 68.888 110.426 68.7736 110.449C65.5238 111.067 62.251 111.479 58.9325 111.639C58.8181 111.639 58.8181 111.822 58.9325 111.799Z" fill="white"/>
<path d="M57.9258 75.456C58.1546 77.0123 58.4979 79.095 58.9099 81.5209C59.0701 82.4135 59.5049 84.9538 60.2144 88.6614C61.1985 93.7651 61.5876 95.2756 62.7777 101.134C63.2583 103.515 63.6245 105.437 63.8533 106.696C64.1509 106.948 64.5628 107.222 65.0892 107.405C66.8972 108 68.545 106.833 68.7968 106.65C68.7739 105.483 68.751 103.858 68.751 101.913C68.751 99.5324 68.7739 95.5731 69.0714 90.8814C69.3461 86.5788 69.6893 84.1299 69.758 79.0492C69.8267 74.7695 69.6207 73.7396 68.8883 73.053C66.1877 70.5813 58.7955 74.9297 57.9258 75.456Z" fill="white"/>
<path d="M58.4973 79.6442C60.0536 88.6843 61.8845 97.6557 63.9214 106.604C63.9443 106.719 64.1045 106.673 64.0816 106.559C62.0447 97.6328 60.2367 88.6385 58.6575 79.5984C58.6347 79.484 58.4745 79.5298 58.4973 79.6442Z" fill="#202124"/>
<path d="M69.4139 82.4135C68.9333 90.4008 68.6815 98.3881 68.6357 106.375C68.6357 106.49 68.796 106.49 68.8188 106.375C68.8646 98.3881 69.1164 90.4008 69.597 82.4135C69.597 82.299 69.4139 82.299 69.4139 82.4135Z" fill="#202124"/>
<path d="M63.8066 106.742C65.2942 107.977 67.4226 107.955 68.8644 106.696C68.956 106.627 68.8187 106.513 68.75 106.581C67.3768 107.771 65.3399 107.794 63.9439 106.627C63.8523 106.559 63.715 106.673 63.8066 106.742Z" fill="#202124"/>
<path d="M54.607 80.1935C54.1493 81.4751 53.7373 83.0085 53.4627 84.7707C53.3254 85.7548 53.2338 86.6703 53.2109 87.5171C57.1703 89.0734 61.3584 90.6067 65.7755 92.0944C70.5816 93.6964 75.2046 95.0925 79.6446 96.2825C81.7959 95.9393 84.0616 95.4586 86.4418 94.8407C92.232 93.3302 97.1754 91.2704 101.226 89.2107C101.341 87.5629 101.455 85.8922 101.57 84.2444C85.9154 82.8941 70.2612 81.5438 54.607 80.1935Z" fill="#0EBE7E"/>
<path d="M43.9645 108.778C35.1991 110.632 30.8507 112.005 30.9651 112.921C31.0795 113.951 36.8469 114.386 48.2442 114.225C48.3586 112.669 48.496 111.136 48.6104 109.579C47.0541 109.305 45.4979 109.03 43.9645 108.778Z" fill="#0EBE7E"/>
<path d="M42.7288 109.602C42.5457 109.419 42.4084 109.213 42.2939 108.984C42.2024 108.778 42.0193 108.321 42.1108 108.115C42.271 107.726 42.5457 108.55 42.5686 108.641C42.6372 108.939 42.5915 109.236 42.4999 109.511C42.4541 109.625 42.6372 109.671 42.6601 109.557C42.7974 109.145 42.7974 108.733 42.6372 108.321C42.5686 108.138 42.3626 107.657 42.0651 107.771C41.7904 107.886 41.9049 108.389 41.9506 108.595C42.0422 109.03 42.271 109.419 42.5686 109.74C42.683 109.808 42.7974 109.694 42.7288 109.602Z" fill="white"/>
<path d="M42.4993 109.579C42.6137 110.014 42.751 110.449 43.0028 110.838C43.1172 110.998 43.4376 111.479 43.7123 111.365C43.9869 111.25 43.8038 110.747 43.7352 110.564C43.5292 110.083 43.1401 109.969 42.751 109.671C42.6595 109.602 42.5451 109.717 42.6366 109.785C42.8655 109.969 43.1401 110.06 43.3461 110.243C43.4605 110.358 43.964 111.25 43.5063 111.09C43.2774 111.021 43.0715 110.586 42.9799 110.38C42.8426 110.106 42.751 109.808 42.6824 109.534C42.6366 109.419 42.4764 109.465 42.4993 109.579Z" fill="white"/>
<path d="M38.0825 110.175C38.3571 110.38 38.5402 110.678 38.6088 110.998C38.6317 111.113 38.7919 111.067 38.7691 110.953C38.7004 110.564 38.4715 110.243 38.1511 110.014C38.0825 109.969 37.9909 110.129 38.0825 110.175Z" fill="white"/>
<path d="M38.9291 109.763C39.2953 109.991 39.5242 110.381 39.5928 110.792C39.6157 110.907 39.7759 110.861 39.753 110.747C39.6844 110.266 39.4098 109.854 38.9978 109.602C38.9291 109.557 38.8376 109.717 38.9291 109.763Z" fill="white"/>
<path d="M39.7537 109.557C40.2115 109.763 40.5319 110.197 40.5776 110.701C40.5776 110.815 40.7607 110.815 40.7607 110.701C40.715 110.129 40.3717 109.648 39.8453 109.419C39.7537 109.373 39.6622 109.511 39.7537 109.557Z" fill="white"/>
<path d="M40.8979 109.373C41.3556 109.648 41.676 110.06 41.882 110.541C41.9278 110.632 42.088 110.586 42.0422 110.495C41.8362 109.969 41.47 109.534 40.9666 109.213C40.8979 109.168 40.8063 109.328 40.8979 109.373Z" fill="white"/>
<path d="M38.7923 113.676C41.8591 113.585 44.9029 113.63 47.9468 113.859C48.0612 113.859 48.0612 113.699 47.9468 113.676C44.9029 113.447 41.8362 113.379 38.7923 113.493C38.7007 113.493 38.7007 113.676 38.7923 113.676Z" fill="white"/>
<path d="M57.6046 81.5438C62.754 83.3747 67.2169 84.725 70.81 85.7549C73.0071 86.3728 75.1813 86.9678 77.9048 86.533C80.468 86.1439 82.6651 84.9996 83.3517 84.6563C84.5876 84.0155 85.5717 83.3289 86.2582 82.8025C86.4871 81.6125 86.6702 80.2622 86.7617 78.7517C86.8762 76.9894 86.8075 75.4103 86.6931 74.0371C84.29 72.8241 80.8342 71.451 76.5087 70.833C74.1514 70.5126 72.0459 70.4669 70.2607 70.5584C67.6059 69.8718 65.2715 69.4827 63.3949 69.2768C60.6943 68.9564 58.6345 68.9564 57.0783 68.9564C56.8036 68.9564 55.8424 68.9793 53.9428 69.0479C51.5627 69.1166 50.9218 69.1623 50.0751 69.5514C48.9536 70.0778 48.3128 70.833 48.1297 71.039C47.466 71.8629 47.2372 72.6868 46.9167 74.1058C46.2759 77.0581 46.1157 78.8203 46.1157 78.8203C45.864 81.4294 45.7953 83.0772 45.7038 84.6106C45.5665 86.8992 45.4978 86.8534 45.0401 91.5909C44.2162 100.562 44.0788 105.048 44.0331 106.558C44.0102 107.657 43.9873 108.572 43.9873 109.167C44.2162 109.442 44.5823 109.763 45.063 109.991C46.6421 110.77 48.2899 109.969 48.5646 109.831C48.9994 108.618 49.5258 107.039 50.1437 105.162C50.3039 104.659 50.899 102.805 51.6771 100.173C52.4781 97.404 52.5697 96.9234 53.4164 94.0626C53.8055 92.7352 54.2861 91.0645 54.8812 89.2107C55.4991 87.2882 56.3688 84.6792 57.6046 81.5438Z" fill="white"/>
<path d="M46.1846 79.4612C46.322 77.1268 46.711 74.7466 47.512 72.5495C47.9927 71.2679 48.7021 70.1693 50.0295 69.6658C51.1281 69.2539 52.3639 69.2539 53.5311 69.1623C58.4288 68.8419 63.3265 69.1852 68.1326 70.0778C68.247 70.1007 68.2928 69.9405 68.1783 69.9176C62.7314 68.8877 56.9641 68.4529 51.4714 69.1623C49.526 69.4141 48.2444 70.3066 47.4892 72.1376C46.5508 74.4262 46.1618 76.9894 46.0244 79.4383C46.0016 79.5527 46.1846 79.5527 46.1846 79.4612Z" fill="#202124"/>
<path d="M54.5841 80.2622C60.1226 82.5279 65.8441 84.6792 71.6801 86.0524C74.1976 86.6474 76.8067 86.9678 79.347 86.3728C81.9103 85.7778 84.1532 84.3359 86.2816 82.8712C86.3731 82.8026 86.2816 82.6652 86.19 82.7339C84.0845 84.1986 81.8416 85.6176 79.3013 86.2126C76.3718 86.8992 73.3508 86.3499 70.49 85.5718C65.0889 84.1299 59.8022 82.2304 54.6299 80.102C54.5383 80.0562 54.4925 80.2393 54.5841 80.2622Z" fill="#202124"/>
<path d="M57.5132 81.5209C55.7739 86.0982 54.2176 90.7212 52.8673 95.4129C51.4941 100.127 50.4414 104.979 48.5189 109.534C48.4732 109.625 48.6334 109.717 48.6562 109.625C50.5329 105.208 51.5628 100.494 52.8902 95.8935C54.2863 91.0645 55.8883 86.2813 57.6734 81.5896C57.7192 81.4752 57.559 81.4294 57.5132 81.5209Z" fill="#202124"/>
<path d="M46.0015 81.2691C44.9945 90.4236 44.285 99.601 43.873 108.778C43.873 108.893 44.0333 108.893 44.0561 108.778C44.4681 99.5781 45.1776 90.4007 46.1846 81.2691C46.1846 81.1547 46.0015 81.1547 46.0015 81.2691Z" fill="#202124"/>
<path d="M43.9417 109.236C44.9945 110.426 46.6881 110.747 48.107 110.083C48.1986 110.037 48.1299 109.9 48.0155 109.946C46.6423 110.587 45.0632 110.243 44.0562 109.122C44.0104 109.03 43.8731 109.145 43.9417 109.236Z" fill="#202124"/>
<path d="M74.3345 28.6994C74.3116 28.974 74.2658 29.386 74.3116 29.8895C74.3574 30.4387 74.426 31.0567 74.8151 31.6746C74.9524 31.9035 75.3415 32.4985 76.1196 32.796C76.8062 33.0707 77.9734 33.1622 78.6829 32.3841C79.4152 31.6059 79.255 30.393 78.866 29.6835C78.2023 28.4934 76.3027 27.967 74.3345 28.6994Z" fill="white"/>
<path d="M77.3535 31.3766C77.056 31.1935 76.644 30.9188 76.2092 30.5298C75.3166 29.7745 74.0808 28.6989 73.8519 27.0511C73.6688 25.8381 74.1037 24.8998 74.241 24.6251C74.3783 24.3276 75.1335 22.7713 76.8042 22.4738C77.1704 22.4052 78.2003 22.2907 79.1386 22.9544C80.0312 23.5724 80.283 24.4878 80.3516 24.7396C80.6949 24.2361 81.2671 23.5952 82.1139 23.1146C82.7318 22.7713 83.7617 22.1992 84.7916 22.5882C85.3408 22.7942 86.0045 23.3206 86.119 23.9843C86.1647 24.3276 86.0274 24.4191 85.913 25.3117C85.8443 25.9754 85.7986 26.3187 85.9359 26.5247C86.1419 26.8451 86.5309 26.8222 87.515 27.0511C88.1559 27.1884 88.728 27.3257 89.2773 27.6003C90.2156 28.081 90.7191 28.8362 90.9251 29.1337C91.4972 29.9805 91.6117 30.7815 91.7032 31.3537C91.749 31.6283 91.8863 32.704 91.5659 34.0772C91.154 35.7936 90.2843 36.9151 89.7808 37.533C89.3002 38.1509 88.133 39.547 86.0961 40.4167C85.2722 40.7599 83.9448 41.3321 82.2283 41.0804C81.6333 40.9888 79.8939 40.6684 78.5207 39.1579C77.5824 38.128 77.262 37.0753 77.1018 36.4802C76.4152 34.2374 77.0331 32.2463 77.3535 31.3766Z" fill="#202124"/>
<path d="M74.2428 28.6993C74.0597 30.4845 74.6089 32.8418 76.7603 33.0249C76.8747 33.0249 76.8747 32.8647 76.7603 32.8418C74.7005 32.6816 74.2656 30.37 74.4259 28.6993C74.4259 28.5849 74.2656 28.5849 74.2428 28.6993Z" fill="#202124"/>
<path d="M77.1722 31.1482C75.1353 29.7522 73.2815 27.8984 74.0825 25.2207C74.8607 22.5888 78.8658 21.2156 80.033 24.351C80.0788 24.4425 80.239 24.4197 80.1932 24.3052C79.2548 21.8106 76.0736 21.8335 74.586 23.8017C73.6935 24.9918 73.396 26.8685 74.0139 28.2417C74.6089 29.5233 75.9363 30.5074 77.0578 31.3084C77.1951 31.3771 77.2637 31.2169 77.1722 31.1482Z" fill="#202124"/>
<path d="M77.3779 36.618C76.8515 32.2238 77.7211 27.5321 80.9023 24.2823C81.7262 23.4584 82.7561 22.6116 83.992 22.5887C85.3423 22.5887 86.1662 23.5042 85.9831 24.8544C85.9373 25.2435 85.6856 25.5868 85.7085 25.9759C85.7542 27.3262 87.4249 27.0744 88.3862 27.3948C91.041 28.2416 92.0022 31.0337 91.5673 33.597C91.2241 35.611 90.034 37.3961 88.5235 38.7464C86.8985 40.1882 84.793 41.1724 82.573 41.0579C80.0784 40.9206 77.8814 39.2499 77.4694 36.7324C77.4465 36.618 77.2863 36.6638 77.3092 36.7782C77.8813 40.3256 81.6347 41.8818 84.8617 40.9893C88.1573 40.0738 91.1325 37.0528 91.7275 33.6657C92.0022 32.0407 91.7733 30.2098 90.7892 28.8595C90.3544 28.2416 89.7822 27.8068 89.0956 27.5093C88.2259 27.1202 86.6697 27.2117 86.1433 26.4336C85.6169 25.6326 86.4408 24.7858 86.1433 23.8703C85.9831 23.344 85.5483 22.9091 85.0676 22.6803C83.5572 21.9479 81.9551 23.0235 80.9023 24.0763C77.5838 27.3719 76.6455 32.1781 77.1948 36.6638C77.2176 36.7324 77.4007 36.7324 77.3779 36.618Z" fill="#202124"/>
<path d="M66.1634 36.1374C66.1405 37.4648 66.0947 39.2042 66.0947 41.2181C66.0947 46.3447 66.3236 50.2811 66.4151 51.7229C66.5982 55.0414 66.9186 60.3511 68.0629 67.1254C68.452 69.3911 68.8411 71.2678 69.1157 72.5494C69.8481 72.8927 70.8322 73.3047 72.0223 73.7166C75.4781 74.9067 78.6135 75.2729 80.9021 75.3416C84.358 75.456 87.2416 74.9525 89.3472 74.4261C89.9193 72.6181 90.6746 70.1921 91.4985 67.3085C92.3681 64.2188 93.3752 60.763 94.3364 56.3231C95.3205 51.7916 96.419 46.7566 96.7852 40.1425C96.9454 37.419 96.9454 35.1533 96.8996 33.597C96.1902 33.3453 95.023 32.9562 93.604 32.6129C83.3052 30.0039 74.8373 32.5442 73.0979 33.0935C71.4043 33.6428 68.9555 34.5582 66.1634 36.1374Z" fill="white"/>
<path d="M66.2105 36.2061C68.5678 35.0618 70.948 33.8946 73.4655 33.0707C76.0058 32.2239 78.6606 31.8119 81.3155 31.6975C86.3504 31.4915 91.7745 31.8119 96.5348 33.5513C96.6492 33.5971 96.695 33.414 96.5806 33.3911C91.6829 31.606 86.0529 31.2627 80.8806 31.5602C75.5252 31.8577 70.8793 33.7573 66.119 36.0688C66.0274 36.1146 66.119 36.2519 66.2105 36.2061Z" fill="#202124"/>
<path d="M96.855 35.7255C96.7863 48.8164 93.1474 61.4725 89.4856 73.9226C89.4627 74.0371 89.6229 74.0829 89.6458 73.9684C93.2847 61.4954 96.9465 48.8164 97.0152 35.7255C97.0381 35.611 96.855 35.611 96.855 35.7255Z" fill="#202124"/>
<path d="M66.0269 40.051C65.9583 50.8075 66.8966 61.5412 68.8419 72.1146C68.8648 72.229 69.025 72.1833 69.0021 72.0688C67.0568 61.5183 66.1185 50.7846 66.1872 40.051C66.21 39.9365 66.0269 39.9365 66.0269 40.051Z" fill="#202124"/>
<path d="M69.0936 72.6181C75.4331 75.5247 82.6194 76.2112 89.3937 74.5177C89.5081 74.4948 89.4624 74.3346 89.3479 74.3575C82.6194 76.0282 75.4789 75.3645 69.1851 72.4808C69.0707 72.4121 68.9792 72.5723 69.0936 72.6181Z" fill="#202124"/>
<path d="M51.8823 50.1209C51.8365 49.8463 51.7679 49.4572 51.6077 49.0224C51.539 48.8393 51.3788 48.4273 50.8753 47.6949C50.2116 46.7337 49.6623 45.9098 49.1359 46.0014C49.113 46.0014 48.9071 46.0471 48.8155 46.2073C48.6782 46.4362 48.7926 46.8024 49.1359 47.1686C48.2663 46.7566 47.6026 46.3447 47.1219 46.0242C46.7786 45.7954 45.9547 45.2461 44.8791 44.5824C44.284 44.2162 43.895 44.0102 43.8034 44.1018C43.7348 44.1933 43.895 44.468 44.0552 44.6968C44.0781 44.857 44.1238 45.063 44.1467 45.3377C44.2383 45.9327 44.284 46.2302 44.284 46.4133C44.2612 46.9168 44.1238 46.9855 44.1696 47.3517C44.2154 47.6949 44.3756 47.9467 44.5129 48.1069C44.8104 48.6562 45.2682 49.3885 45.9319 50.1438C46.71 51.0592 47.4424 51.6314 48.0145 52.0433C48.7469 52.5926 49.7996 53.3021 51.1499 53.9429C51.4017 52.6842 51.6534 51.4025 51.8823 50.1209Z" fill="white"/>
<path d="M67.2624 35.611C67.0793 35.6568 66.4843 35.8857 66.0952 36.5036C65.8664 36.8698 65.8206 37.2359 65.7977 37.419C65.4315 38.5862 65.0654 39.7534 64.6992 40.9206C63.532 44.6053 62.3877 48.2671 61.2205 51.9518C59.9846 51.8832 58.5428 51.7001 56.9636 51.311C54.8581 50.8075 53.1187 50.098 51.7684 49.4114C51.4938 49.7319 51.0819 50.3269 50.8301 51.1279C50.4639 52.318 50.6699 53.325 50.8072 53.7827C52.1804 55.2017 54.0113 57.0326 56.0939 58.955C57.6044 60.3511 57.3298 60.0307 58.9776 61.5412C58.9776 61.5412 59.7329 62.2506 61.0603 63.3263C61.9986 64.0815 62.3877 64.3791 63.0056 64.5622C63.2802 64.6537 63.9897 64.8597 64.8365 64.6537C65.2713 64.5622 65.7519 64.3333 66.6216 63.5552C67.5828 62.6855 68.0406 61.9531 69.3222 60.1909C70.2376 58.9092 69.9401 59.367 70.6725 58.3142C71.382 57.3072 72.4347 55.8196 73.6706 53.8972C75.204 51.4941 76.0736 50.1438 77.0349 48.1527C77.7443 46.6651 78.2478 45.3835 78.5454 44.5138C78.4309 42.8889 77.9503 41.6988 77.5155 40.9206C74.792 35.8857 67.8346 35.6339 67.2624 35.611Z" fill="white"/>
<path d="M66.004 36.4807C64.379 41.6301 62.7541 46.7795 61.1292 51.9289C61.1063 52.0434 61.2665 52.0891 61.2894 51.9747C62.9143 46.8253 64.5392 41.6759 66.1642 36.5265C66.2099 36.4121 66.0268 36.3663 66.004 36.4807Z" fill="#202124"/>
<path d="M51.7908 49.4343C54.6974 50.7388 57.7184 51.6543 60.8538 52.2264C60.9682 52.2493 61.014 52.0891 60.8996 52.0662C57.787 51.517 54.7661 50.5786 51.8824 49.297C51.7908 49.2512 51.6993 49.3885 51.7908 49.4343Z" fill="#202124"/>
<path d="M51.5619 49.4343C50.738 50.6244 50.4176 52.0205 50.6007 53.4623C50.6236 53.5768 50.7838 53.531 50.7609 53.4165C50.5549 52.0205 50.8982 50.6931 51.6992 49.5259C51.7679 49.4343 51.6077 49.3428 51.5619 49.4343Z" fill="#202124"/>
<path d="M50.7842 53.943C53.4619 56.6893 56.2541 59.3212 59.1606 61.8387C61.0602 63.4865 63.4404 66.0498 66.0494 64.196C67.1708 63.395 67.9718 62.2049 68.7729 61.1064C69.8714 59.6416 70.9471 58.154 71.9769 56.6435C74.1282 53.5081 76.0965 50.2812 77.8129 46.894C77.8587 46.8024 77.7214 46.7109 77.6756 46.8024C76.2338 49.6861 74.586 52.4782 72.778 55.1559C70.9928 57.8565 69.1619 60.7859 66.942 63.1661C65.5459 64.6537 63.921 65.1343 62.0901 64.0129C60.6711 63.1432 59.4124 61.8387 58.1765 60.7402C55.6819 58.5202 53.256 56.2087 50.9216 53.8285C50.8071 53.737 50.6927 53.8743 50.7842 53.943Z" fill="#202124"/>
<path d="M51.8371 49.4114C51.4938 48.4731 51.0132 47.6263 50.3266 46.9168C50.0977 46.6651 49.228 45.6352 48.8161 46.0243C48.7474 46.0929 48.8619 46.2302 48.9305 46.1387C49.2052 45.8641 50.3495 47.2144 50.5554 47.4432C51.0361 48.0383 51.4022 48.7248 51.6769 49.4572C51.7226 49.5488 51.8828 49.503 51.8371 49.4114Z" fill="#202124"/>
<path d="M48.6331 46.5964C48.7246 46.8482 48.8619 47.0542 49.0679 47.2372C49.1595 47.3059 49.2739 47.1915 49.1823 47.1228C49.0221 46.9626 48.8848 46.7795 48.7933 46.5507C48.7704 46.4362 48.6102 46.482 48.6331 46.5964Z" fill="#202124"/>
<path d="M49.2047 47.1915C47.4195 46.276 45.909 44.9257 44.0552 44.1247C43.9637 44.0789 43.8722 44.2391 43.9637 44.262C45.7946 45.0859 47.328 46.4133 49.1131 47.3288C49.2047 47.3746 49.2962 47.2372 49.2047 47.1915Z" fill="#202124"/>
<path d="M43.758 44.4451C44.4674 45.4063 45.2913 46.2531 46.2526 46.9626C46.3441 47.0313 46.4357 46.8711 46.3441 46.8253C45.4058 46.1387 44.5819 45.3148 43.8953 44.3765C43.8266 44.262 43.6893 44.3536 43.758 44.4451Z" fill="#202124"/>
<path d="M43.9182 45.0402C44.376 46.1387 45.0626 47.0999 45.9551 47.901C46.0467 47.9696 46.1611 47.8552 46.0696 47.7865C45.1999 47.0084 44.5133 46.0701 44.0785 44.9944C44.0556 44.9029 43.8954 44.9258 43.9182 45.0402Z" fill="#202124"/>
<path d="M44.2161 46.4591C44.5594 47.3975 45.1087 48.2214 45.8868 48.8622C45.9784 48.9308 46.0928 48.8164 46.0013 48.7478C45.246 48.1298 44.6968 47.3288 44.3763 46.4134C44.3306 46.3218 44.1704 46.3447 44.2161 46.4591Z" fill="#202124"/>
<path d="M44.0102 47.2144C45.269 50.2811 47.878 52.3638 50.7388 53.8743C50.8304 53.92 50.9219 53.7827 50.8304 53.7369C48.0153 52.2493 45.4063 50.1896 44.1704 47.1686C44.1476 47.0541 43.9645 47.0999 44.0102 47.2144Z" fill="#202124"/>
<path d="M77.15 35.0846C74.5868 44.1476 72.2753 55.1559 71.2912 67.7433C70.719 74.8838 70.6732 81.5208 70.9021 87.5399C73.0534 88.0205 75.4107 88.3867 77.9739 88.5698C87.7922 89.3022 95.9854 87.0135 101.501 84.8394C102.508 74.6779 104.064 63.8069 106.376 52.318C107.451 47.0313 108.619 41.9276 109.855 37.03C109.168 35.8399 108.481 34.6269 107.795 33.4368C103.217 32.8418 97.5417 32.4756 91.0878 32.9333C85.7553 33.2766 81.0636 34.1234 77.15 35.0846Z" fill="#0EBE7E"/>
</g>
<defs>
<clipPath id="clip0">
<rect width="121.389" height="119.329" fill="white"/>
</clipPath>
</defs>
</svg>
