<svg width="600" height="162" viewBox="0 0 600 162" fill="none" xmlns="http://www.w3.org/2000/svg">
<g opacity="0.15">
<path fill-rule="evenodd" clip-rule="evenodd" d="M324.368 301.126L320.976 299.756C316.599 298.196 312.317 295.77 308.224 292.531C304.515 289.32 301.263 284.738 298.74 279.165C296.216 273.591 294.493 267.188 293.715 260.489C291.957 249.506 290.636 238.391 289.761 227.218L288.868 217.565C287.292 199.047 284.447 180.746 280.389 163.021C278.52 155.484 275.719 148.593 272.176 142.815C268.633 137.037 264.431 132.508 259.855 129.536C255.856 126.913 251.62 125.719 247.437 126.036C243.254 126.353 239.224 128.174 235.623 131.372L227.589 138.761C225.494 140.001 223.17 140.078 220.951 138.982C218.733 137.885 216.734 135.67 215.244 132.658C213.52 129.117 212.104 125.21 211.041 121.062C207.456 110.513 203.326 100.456 198.702 91.0138C194.365 80.6184 188.378 72.3363 181.47 67.1768C174.562 62.0173 167.032 60.2031 159.797 61.9554L150.841 65.2037L134.858 67.4339C121.867 68.4407 108.722 63.2205 96.9801 52.3927L91.7984 47.6818C87.2791 42.9543 82.5722 38.7799 77.7183 35.1944C75.0419 32.5358 72.0472 31.0025 69.0146 30.7384C65.9819 30.4742 63.0106 31.4877 60.379 33.684C56.8293 37.2615 54.0038 42.4466 52.2074 48.6799C47.7291 61.9128 45.3154 76.956 45.1698 92.5404C45.0242 108.125 47.151 123.794 51.3708 138.225C55.8675 154.258 61.9291 169.09 69.2963 182.088C70.2454 184.706 71.0589 186.95 72.008 189.569C72.9571 192.187 78.6261 201.437 81.8535 207.945C86.8601 217.87 90.892 228.993 93.7849 240.862C98.1551 259.21 100.717 278.421 101.368 297.727C101.819 306.743 100.941 315.657 98.8114 323.698C96.6819 331.739 93.3645 338.665 89.1459 343.879L80.0262 352.265C68.4665 362.648 55.5146 368.604 42.0592 369.724L35.5736 370.203C29.274 370.571 23.0386 371.801 16.9306 373.881C11.7541 375.765 6.74349 378.534 1.97682 382.147L-4.53722 388.137L-18.0956 350.732L-16.3585 349.134C-1.23344 340.455 15.2236 338.352 31.5102 343.018C38.7393 345.268 46.034 346.407 53.2991 346.421C61.1272 346.777 68.7663 344.027 75.5795 338.4L77.0994 337.002C81.4964 333.071 85.1142 327.223 87.592 320.044C90.0697 312.865 91.3207 304.604 91.2202 296.087C90.8115 276.559 87.468 257.177 81.4928 239.698C77.2544 228.282 72.2373 217.659 66.5491 208.055C59.1163 195.147 52.7854 180.64 47.755 164.991C39.6805 143.371 34.2053 119.574 31.6541 95.0117C30.8366 83.0164 30.9582 71.0015 32.0159 59.2685L33.0506 45.3498C34.1668 30.8573 35.283 16.3649 36.9691 1.84713C37.7819 -5.75467 39.0844 -13.138 40.855 -20.1798C44.3063 -34.6246 46.1296 -50.1503 46.2394 -66.028C46.5783 -84.0729 47.8538 -101.931 50.0518 -119.408C52.2793 -130.575 54.9004 -141.478 57.9023 -152.063L58.989 -157.052C61.488 -167.443 62.0197 -179.038 60.5169 -190.377L59.7034 -192.621L85.7596 -216.583C86.3264 -215.821 86.7136 -214.753 86.8443 -213.59C91.9625 -205.139 98.2225 -198.872 105.021 -195.394C119.131 -187.302 132.431 -175.217 144.304 -159.701C151.853 -148.878 160.219 -139.78 169.153 -132.679C176.92 -127.603 184.947 -123.944 193.084 -121.769L198.538 -120.301C206.895 -118.012 215.388 -115.348 223.908 -114.206C229.509 -113.177 235.071 -114.672 240 -118.532C242.622 -120.877 244.857 -124.195 246.543 -128.247C248.228 -132.298 249.323 -136.982 249.748 -141.959C250.833 -152.415 251.028 -163.167 250.326 -173.911C249.434 -187.554 248.108 -200.798 246.564 -213.842L244.831 -228.208C244.326 -240.733 244.338 -253.242 244.868 -265.647C244.82 -275.295 242.608 -284.813 238.66 -292.357C233.104 -303.763 227.994 -315.727 223.365 -328.165C222.687 -330.035 222.145 -331.531 221.602 -333.028C221.167 -334.615 220.62 -336.122 219.975 -337.516L243.426 -359.082C244.412 -358.825 245.357 -358.146 246.166 -357.113C249.372 -352.628 252.893 -348.823 256.638 -345.796C261.359 -341.858 266.469 -339.598 271.62 -339.171C276.771 -338.744 281.841 -340.159 286.486 -343.321L303.857 -359.295C309.076 -363.921 314.551 -367.788 320.223 -370.854C325.344 -373.175 330.889 -372.692 336.061 -369.473C341.233 -366.254 345.766 -360.465 349.009 -352.939C352.974 -344.848 356.219 -335.895 358.635 -326.381C361.186 -316.203 361.771 -305.163 360.306 -294.852C358.84 -284.541 355.4 -275.491 350.48 -269.007C348.228 -266.205 345.747 -263.923 343.098 -262.218C337.069 -256.852 330.263 -254.011 323.232 -253.924C318.456 -253.522 313.274 -254.242 308.226 -254.588L302.121 -255.457C298.871 -255.79 295.629 -255.646 292.434 -255.027C289.128 -254.543 285.957 -252.982 283.098 -250.432C278.646 -246.008 275.067 -239.618 272.727 -231.917C269.476 -220.748 267.84 -208.333 267.942 -195.598C268.068 -182.012 268.654 -168.398 269.696 -154.817L272.298 -141.25C272.939 -134.369 272.91 -127.437 272.211 -120.722C271.781 -115.842 270.689 -111.258 269.017 -107.304C267.345 -103.35 265.133 -100.126 262.545 -97.8686L260.591 -96.0715C251.123 -87.9572 239.891 -86.3705 229.194 -91.6365L210.96 -98.8084L177.451 -111.383C165.848 -116.305 154.753 -124.706 144.732 -136.155C137.674 -145.178 129.768 -152.104 121.401 -156.593C111.94 -161.995 101.832 -161.274 93.1791 -154.58C90.5816 -152.018 88.4186 -148.453 86.8594 -144.164C85.3002 -139.875 84.3869 -134.978 84.191 -129.856C83.53 -123.112 83.3099 -116.222 83.5346 -109.303C83.5571 -85.5706 82.4168 -62.0051 80.1249 -38.8372C79.0527 -27.4759 79.8457 -15.6406 82.4227 -4.54234C85.6607 8.2753 90.8006 19.7031 97.3389 28.622C103.124 36.4484 109.876 41.9611 117.015 44.6887C124.155 47.4163 131.471 47.2777 138.337 44.2847C143.239 43.4336 147.961 42.0836 152.503 40.2349L162.598 36.936C174.179 33.9822 186.307 38.7656 196.378 50.2588C199.525 53.3497 202.591 57.0143 205.52 60.3049C208.45 63.5955 210.051 65.6148 212.139 68.1826C220.534 77.0717 229.876 82.9474 239.515 85.4005C250.089 88.5749 260.55 93.1307 270.799 99.0242C280.937 105.434 290.838 112.996 300.425 121.653C307.153 127.436 311.549 128.381 315.24 124.986C318.27 121.467 320.737 116.812 322.462 111.363C327.438 97.4937 329.388 80.9713 328.009 64.367C326.927 46.798 325.127 29.2906 322.622 11.9658C320.751 -2.38596 317.724 -16.3807 313.624 -29.633C311.183 -36.366 308.879 -42.7249 306.709 -48.7098C304.54 -54.6946 302.642 -59.9314 300.608 -65.5422C298.429 -71.9531 296.665 -78.6935 295.349 -85.6427C294.023 -91.7511 293.928 -98.2787 295.078 -104.208C296.228 -110.137 298.559 -115.135 301.707 -118.422C304.623 -121.797 307.75 -124.673 311.043 -127.008C317.712 -133.381 325.466 -136.361 333.405 -135.602C342.777 -134.271 351.967 -129.2 360.184 -120.828C372.09 -109.008 382.468 -93.1903 390.592 -74.4794L392.354 -69.6167C396.456 -58.8378 401.403 -48.9529 407.054 -40.2435C412.272 -31.7917 419.014 -26.4989 426.073 -25.315C428.39 -25.0249 430.69 -25.4492 432.857 -26.5665L435.028 -28.5633C436.757 -30.1589 438.101 -32.6506 438.872 -35.6858C439.642 -38.7211 439.799 -42.1464 439.32 -45.4772C438.204 -54.4649 436.552 -63.3048 434.388 -71.8635L433.71 -73.7337C429.268 -90.8476 426.285 -108.761 424.85 -126.931C424.087 -140.314 424.4 -153.685 425.783 -166.69C427.142 -178.913 429.208 -190.787 430.974 -201.888L432.713 -211.467C434.993 -226.565 436.557 -242.009 437.392 -257.664C438.698 -276.383 440.696 -294.876 443.376 -313.041C444.817 -321.846 446.42 -331.8 448.621 -343.3L449.707 -344.298L474.112 -276.968C474.254 -269.97 473.348 -263.139 471.475 -257.087C468.176 -244.641 464.271 -232.712 459.797 -221.412L456.512 -212.904C451.79 -201.4 447.554 -189.341 443.83 -176.804C437.416 -155.288 436.248 -130.03 440.556 -105.964C441.953 -98.1397 443.92 -90.5671 446.412 -83.4197L447.768 -79.6791C449.822 -72.4511 452.322 -65.5545 455.225 -59.1061C458.113 -52.9621 461.888 -48.0971 466.161 -45.0132C470.434 -41.9292 475.051 -40.7378 479.534 -41.562C484.808 -42.1994 490.004 -43.6388 495.056 -45.8621L499.779 -51.2028C509.296 -54.7059 519.055 -56.6665 528.924 -57.0581C535.364 -56.9118 541.792 -54.1471 547.643 -49.0063C553.494 -43.8655 558.59 -36.5057 562.484 -27.5723C568.555 -15.1322 572.109 0.0067586 572.594 15.4974C572.762 25.4737 570.938 35.0399 567.404 42.7132C564.522 49.0286 561.346 54.9499 557.903 60.4287L554.863 63.2242C552.242 67.6803 549.803 72.4218 547.56 77.4213C545.007 83.5224 543.638 90.848 543.62 98.5005C543.654 100.017 543.506 101.509 543.184 102.891L526.465 118.266C526.465 118.266 525.516 115.648 524.838 113.777C522.183 108.258 519.251 103.11 516.077 98.3934C514.678 96.3884 513.037 94.9212 511.284 94.1083C509.532 93.2954 507.717 93.1592 505.984 93.7106C501.755 95.7463 497.622 98.2145 493.608 101.102L475.94 113.859L470.294 119.05C460.663 126.819 453.439 140.598 450.096 157.575C448.379 167.267 447.878 177.563 448.623 187.856C448.78 189.489 448.676 191.132 448.323 192.62L430.518 208.994C430.518 208.994 430.518 208.994 429.569 206.376C428.311 196.543 428.011 186.545 428.681 176.769C430.524 152.913 436.921 131.145 446.959 114.576C449.411 110.415 452.203 106.841 455.265 103.945L464.602 95.3583C467.614 93.0317 470.516 90.3633 473.287 87.3711C475.363 85.1991 477.13 82.3369 478.486 78.9497C479.842 75.5626 480.761 71.7174 481.189 67.6363C481.479 64.0023 481.304 60.2564 480.676 56.6369C478.485 44.2714 474.193 32.9965 468.331 24.2054C462.469 15.4143 455.294 9.49244 447.691 7.17158L444.354 6.74968C439.388 5.83 434.07 4.73596 429.186 3.2425C415.894 -1.3749 403.759 -13.8203 395.085 -31.7304C390.264 -39.3345 385.885 -47.6712 382.012 -56.6149C377.422 -69.2606 371.836 -80.9081 365.414 -91.2248C358.363 -102.403 349.56 -109.969 340.184 -112.909C334.623 -114.627 328.999 -113.309 324.173 -109.157L319.83 -105.164C317.421 -101.475 315.673 -96.7507 314.754 -91.4491C313.835 -86.1474 313.777 -80.4483 314.585 -74.9047C315.728 -65.8719 317.732 -57.1054 320.521 -48.9431C328.221 -24.7255 335.021 0.170926 340.881 25.5977C344.542 35.6972 346.683 47.1944 349.557 57.5189L351.048 61.6335C356.906 78.8816 359.42 98.4035 358.225 117.376C357.659 123.125 356.915 128.803 355.995 134.388L354.663 145.09C352.99 157.985 353.531 171.637 356.227 184.548C357.718 188.663 359.074 192.403 358.829 198.115C358.583 203.827 361.512 211.109 362.813 217.892C364.113 224.676 366.307 241.112 367.525 252.46L368.825 263.234C368.825 263.234 368.825 263.234 368.689 266.851L331.124 301.396L331.667 302.892C329.222 303.231 326.725 302.627 324.368 301.126ZM369.123 266.452C369.43 265.765 369.635 264.964 369.725 264.105C369.814 263.246 369.785 262.352 369.64 261.488C367.635 246.374 366.066 230.86 363.898 216.894C361.731 202.927 359.318 194.673 357.313 183.55C354.702 170.943 354.18 157.625 355.803 145.039C356.755 135.685 358.412 126.679 359.229 116.951C360.49 97.7527 358.167 77.9748 352.568 60.2357C348.769 48.6739 345.418 36.7609 342.537 24.574C336.693 -0.86224 329.892 -25.7604 322.177 -49.9668C319.623 -58.1194 317.926 -66.8566 317.163 -75.7794C316.36 -81.0554 316.385 -86.4944 317.238 -91.563C318.091 -96.6315 319.742 -101.155 322.028 -104.691L326.153 -108.485C330.824 -112.424 336.228 -113.728 341.594 -112.211C350.691 -109.081 359.216 -101.665 366.119 -90.876C372.619 -80.6749 378.215 -69.0066 382.718 -56.2662C386.02 -46.7665 389.863 -37.7705 394.189 -29.4102C402.997 -11.2537 415.299 1.3801 428.778 6.11115C434.938 7.92803 441.178 9.17117 447.284 10.0403C454.75 12.055 461.825 17.7358 467.577 26.3343C473.33 34.9329 477.49 46.0457 479.509 58.209C480.004 61.5307 480.16 64.93 479.967 68.2607C479.556 72.1839 478.672 75.8797 477.367 79.1345C476.062 82.3892 474.362 85.138 472.365 87.2221C469.681 90.1864 466.85 92.7899 463.896 95.0096L454.56 103.596C451.468 106.655 448.61 110.287 446.036 114.426C436.033 131.53 429.604 153.612 427.595 177.768C426.786 187.578 427.013 197.66 428.266 207.574C428.944 209.444 429.486 210.941 430.029 212.437L448.268 195.664C448.822 193.747 448.938 191.522 448.595 189.378C447.997 179.308 448.589 169.274 450.339 159.844C453.626 143.327 460.658 129.912 470.022 122.293L475.668 117.101L493.336 104.344C497.206 101.587 501.194 99.2522 505.277 97.3527C506.874 96.6012 508.594 96.608 510.25 97.3725C511.906 98.1371 513.434 99.6297 514.665 101.687C517.898 106.09 520.797 111.136 523.291 116.697C524.184 119.277 525.547 121.354 527.169 122.606L544.54 106.631C544.945 104.678 545.174 102.62 545.22 100.52C545.323 93.3014 546.63 86.405 548.997 80.5881C551.288 75.7057 553.772 71.0889 556.436 66.7651C560.855 60.092 564.871 52.7261 568.435 44.7579C572.197 36.8633 574.202 26.9593 574.141 16.569C573.514 0.669743 569.827 -14.8217 563.623 -27.6229C559.618 -36.6768 554.405 -44.1248 548.435 -49.323C542.465 -54.5212 535.918 -57.3131 529.359 -57.4575C519.323 -57.1159 509.408 -55.0194 499.779 -51.2028C493.328 -48.1494 486.664 -46.1981 479.887 -45.3784C475.568 -44.7172 471.143 -45.9163 467.035 -48.861C462.926 -51.8058 459.272 -56.3982 456.419 -62.1998C453.107 -69.7714 450.203 -77.7849 447.742 -86.1392C445.238 -93.1215 443.313 -100.584 442.022 -108.31C437.911 -132.188 439.173 -157.146 445.567 -178.401C450.283 -193.816 455.664 -208.597 461.67 -222.635C466.232 -233.932 470.097 -246.004 473.212 -258.685C474.76 -264.766 475.51 -271.399 475.415 -278.166L449.111 -350.733C449.111 -350.733 447.591 -349.335 447.889 -346.118L442.644 -315.859C440.17 -297.125 438.754 -277.868 436.661 -260.482C435.816 -244.83 434.252 -229.387 431.982 -214.285C429.508 -199.542 427.035 -184.8 425.051 -169.508C423.762 -156.16 423.467 -142.491 424.172 -128.801C425.729 -110.093 428.896 -91.6724 433.574 -74.1078C436.091 -65.6406 437.871 -56.6927 438.859 -47.5472C439.374 -44.5532 439.291 -41.4283 438.624 -38.6522C437.956 -35.8761 436.741 -33.6024 435.165 -32.1801L432.342 -29.5842C430.284 -28.518 428.111 -28.0362 425.91 -28.1583C419.079 -29.2164 412.556 -34.4104 407.598 -42.7381C401.132 -53.0225 395.411 -64.514 390.565 -76.9487C382.649 -95.52 372.422 -111.175 360.646 -122.749C352.195 -131.267 342.772 -136.451 333.162 -137.872C325.069 -138.425 317.188 -135.315 310.366 -128.878C307.323 -125.745 304.43 -122.251 301.707 -118.422C298.69 -114.994 296.472 -109.997 295.369 -104.146C294.266 -98.2941 294.335 -91.8875 295.566 -85.8424C296.663 -79.3699 298.172 -73.0654 300.066 -67.0384C304.404 -55.0687 308.607 -43.473 313.624 -29.633C317.724 -16.3807 320.751 -2.38596 322.622 11.9658C324.888 28.9419 326.362 46.0951 327.033 63.2702C328.303 79.4509 326.415 95.527 321.648 109.118C320.015 114.508 317.616 119.105 314.644 122.542C311.387 125.537 307.344 124.767 300.968 119.159C291.294 110.601 281.323 103.107 271.125 96.7292C260.851 90.6171 250.34 85.9343 239.706 82.7315C230.241 80.47 221.057 74.776 212.818 66.062C207.447 60.0293 202.374 53.2232 196.922 47.7642C186.788 36.1114 174.596 31.073 162.87 33.6933C154.783 36.1429 146.967 39.3405 138.609 41.042C131.925 43.4289 124.89 43.1638 118.062 40.2677C111.234 37.3717 104.799 31.9241 99.2666 24.3555C92.8539 15.6487 87.8073 4.47819 84.6216 -8.06068C82.0792 -18.9648 81.259 -30.5887 82.2422 -41.7818C84.47 -64.9695 85.6099 -88.5267 85.6519 -112.247C85.3826 -118.973 85.5755 -125.676 86.2267 -132.227C86.4191 -137.112 87.2812 -141.787 88.7485 -145.9C90.2158 -150.014 92.2502 -153.459 94.699 -155.978C102.988 -161.972 112.553 -162.397 121.482 -157.167C129.952 -152.569 137.968 -145.592 145.166 -136.555C155.226 -124.993 166.364 -116.468 178.021 -111.408C195.115 -104.186 211.937 -97.7115 228.895 -90.8631C239.868 -85.445 251.394 -87.114 261.079 -95.5231L263.25 -97.5199C265.637 -99.9646 267.657 -103.237 269.185 -107.131C270.713 -111.026 271.716 -115.458 272.129 -120.149C273.093 -127.264 273.442 -134.635 273.166 -142.049C271.638 -159.526 270.79 -177.072 270.629 -194.577C270.465 -206.925 272.047 -218.97 275.25 -229.749C277.479 -237.244 280.907 -243.494 285.187 -247.864C287.86 -250.446 290.912 -251.885 294.088 -252.06C297.284 -252.677 300.526 -252.821 303.776 -252.49C310.885 -252.046 318.048 -250.653 324.887 -250.957C332.08 -251.129 339.033 -254.107 345.186 -259.65C347.902 -261.443 350.454 -263.789 352.786 -266.639C357.738 -273.64 361.105 -283.228 362.401 -294.014C363.697 -304.8 362.853 -316.224 359.992 -326.631C357.403 -336.173 354.123 -345.22 350.23 -353.563C346.958 -361.531 342.258 -367.659 336.86 -370.993C331.463 -374.328 325.671 -374.682 320.386 -372.001C312.43 -367.573 304.759 -362.019 297.452 -355.4C293.978 -352.205 290.504 -349.01 287.247 -346.015C282.685 -342.715 277.674 -341.16 272.565 -341.458C267.455 -341.757 262.372 -343.901 257.669 -347.742C253.958 -350.875 250.445 -354.672 247.198 -359.059C246.551 -360.283 245.751 -361.259 244.861 -361.912C243.971 -362.565 243.016 -362.877 242.07 -362.822L220.357 -342.854C220.357 -342.854 219.949 -339.986 220.491 -338.489C221.034 -336.993 222.661 -332.504 223.881 -329.138C228.479 -316.668 233.591 -304.702 239.176 -293.33C242.88 -286.265 244.973 -277.362 245.058 -268.316C245.54 -256.796 246.425 -245.287 247.709 -233.847C249.74 -216.264 252.259 -198.132 253.285 -180.124C253.865 -169.499 253.625 -158.887 252.572 -148.546C252.121 -143.827 251.066 -139.388 249.475 -135.518C247.884 -131.649 245.793 -128.436 243.34 -126.092C238.596 -122.308 233.228 -120.822 227.817 -121.791C217.669 -123.431 207.331 -126.393 196.342 -128.755C188.192 -130.785 180.155 -134.449 172.411 -139.665C163.468 -146.611 155.153 -155.799 147.779 -166.887C135.364 -181.414 121.67 -192.443 107.301 -199.486C100.71 -202.942 94.6319 -209.007 89.613 -217.134C88.7873 -218.527 87.7327 -219.479 86.6017 -219.851L59.894 -195.29C59.5884 -193.578 59.4596 -191.774 59.5128 -189.952C60.9194 -178.817 60.2925 -167.465 57.7137 -157.376C54.7959 -145.387 52.2925 -133.095 50.2149 -120.555C47.7852 -103.085 46.4353 -85.1354 46.1854 -66.9758C45.9862 -51.4209 44.1458 -36.2268 40.7469 -22.0754C39.1559 -14.811 37.9023 -7.32329 36.9966 0.325619C34.441 19.6329 33.3778 39.064 31.9619 58.3207C30.8457 70.1089 30.6512 82.1868 31.383 94.2636C33.5744 119.293 38.8535 143.648 46.8864 165.789C51.9372 180.839 58.3137 194.659 65.7896 206.758C71.4999 216.137 76.4798 226.652 80.5977 238.027C86.6537 255.17 89.9198 274.388 90.054 293.668C90.1841 302.153 88.9124 310.378 86.3762 317.456C83.8399 324.535 80.1353 330.198 75.662 333.835L74.3592 335.033C67.6294 340.515 60.1334 343.317 52.4316 343.229C45.3025 342.722 38.1693 341.452 31.0769 339.426C14.5475 334.602 -2.17071 336.453 -17.6328 344.82L-19.8041 346.817C-20.4006 346.985 -20.9343 347.476 -21.3241 348.214L-6.68106 388.612C-5.99501 388.438 -5.3819 387.874 -4.94398 387.015L0.484386 382.023C5.20813 378.327 10.1713 375.433 15.3026 373.383C23.7935 370.979 32.4317 369.705 41.1366 369.575C54.8484 368.929 68.0762 363.076 79.8091 352.465L89.1459 343.879C93.2481 338.358 96.4603 331.254 98.5331 323.12C100.606 314.986 101.483 306.04 101.097 296.979C100.275 277.556 97.6724 258.254 93.3781 239.74C90.3164 227.678 86.2026 216.329 81.1756 206.075C77.786 196.724 72.2251 189.369 67.5327 181.216C60.1752 168.392 54.1533 153.671 49.7428 137.727C45.9354 123.114 44.2366 107.438 44.7881 92.0078C45.3396 76.5778 48.1253 61.8414 52.9129 49.0286C54.7184 43.1728 57.4278 38.2782 60.7858 34.8062C63.4198 32.8166 66.3683 32.0338 69.3416 32.5348C72.3149 33.0358 75.2108 34.8033 77.7448 37.6638C84.2119 42.767 90.5249 48.4505 96.654 54.6876C108.551 65.5168 121.859 70.6026 134.966 69.3294C143.513 68.9498 151.953 66.6746 160.583 65.7213C167.208 64.2923 174.068 65.9399 180.412 70.4841C186.756 75.0283 192.341 82.2945 196.558 91.4891C200.795 101.196 204.517 111.462 207.676 122.162C208.782 126.437 210.243 130.468 212.014 134.131C213.642 137.382 215.811 139.77 218.216 140.959C220.621 142.148 223.141 142.078 225.418 140.757L233.669 133.17C237.46 129.455 241.764 127.253 246.266 126.724C250.767 126.194 255.351 127.352 259.682 130.111C264.014 132.871 267.982 137.163 271.298 142.672C274.613 148.18 277.191 154.767 278.842 161.95C282.952 179.652 285.799 197.964 287.322 216.494C288.702 230.685 289.865 245.077 292.033 259.043C292.914 265.991 294.727 272.622 297.335 278.433C299.943 284.244 303.277 289.082 307.084 292.582C311.293 295.889 315.693 298.373 320.189 299.981C323.934 301.992 327.813 302.976 331.667 302.892L331.124 301.396L369.123 266.452Z" fill="white"/>
<path fill-rule="evenodd" clip-rule="evenodd" d="M-75.0946 192.681L-73.7918 191.483L-64.8893 183.296C-59.7957 178.919 -55.2589 173.059 -51.48 165.977C-44.2519 150.795 -40.995 131.208 -42.3757 111.222C-43.3027 93.9495 -46.4939 76.9666 -51.725 61.4672C-55.1726 50.3579 -59.0688 39.6089 -63.3851 29.2985C-67.3773 18.2236 -72.0311 7.7936 -77.2707 -1.82119C-79.3855 -5.69346 -82.0341 -8.65829 -84.9583 -10.4268C-87.8825 -12.1952 -90.9826 -12.7071 -93.9565 -11.9123C-100.423 -9.6838 -106.703 -6.41389 -112.71 -2.14772L-125.14 8.2863L-131.437 14.0771C-133.228 15.2337 -134.907 16.7772 -136.431 18.6697L-139.688 21.6649L-148.772 -3.39673L-81.0264 -65.6972C-77.6948 -65.4383 -74.4465 -66.7001 -71.6366 -69.3448L-67.0768 -73.5381L-64.4711 -75.9343L-61.9185 -83.2691L-41.5079 -102.039C-41.5079 -102.039 -41.5079 -102.039 -40.4232 -99.0467C-40.9309 -88.7838 -42.5316 -78.8713 -45.1522 -69.7608L-47.6242 -59.0089C-49.9203 -51.5348 -51.9604 -43.8315 -53.7356 -35.933C-56.0666 -23.2848 -55.9184 -9.48157 -53.3113 3.57605C-50.7315 17.5017 -47.2017 30.9925 -42.7929 43.777C-36.2692 63.5362 -32.131 85.0037 -30.625 106.899C-30.2657 114.565 -30.4041 122.217 -31.0377 129.722C-33.0614 157.77 -41.2017 182.969 -53.958 200.674L-65.7659 216.021L-66.5529 216.246L-75.0946 192.681ZM-54.1752 200.874C-41.1283 183.155 -32.7501 157.723 -30.6035 129.323C-29.9334 121.753 -29.7224 114.042 -29.9736 106.3C-31.5272 84.2722 -35.7105 62.6832 -42.2771 42.8039C-46.4801 29.8396 -49.9304 16.3077 -52.5784 2.40328C-55.1402 -10.2497 -55.3452 -23.6391 -53.1657 -35.9583C-50.8292 -47.0843 -47.5162 -57.1134 -44.4743 -67.8906C-41.8505 -76.8864 -40.2053 -86.664 -39.6097 -96.8023C-39.6097 -96.8023 -39.3916 -100.993 -40.2051 -103.237L-61.9185 -83.2691C-63.593 -80.0958 -65.4563 -77.2133 -67.4835 -74.6603C-68.78 -72.9453 -70.2455 -71.5976 -71.8262 -70.6667C-74.445 -67.7147 -77.5517 -66.0651 -80.8093 -65.8968L-147.253 -4.79449C-148.772 -3.39673 -148.772 -3.39673 -147.823 -0.778347L-139.553 22.039C-139.109 22.0254 -138.682 21.8373 -138.304 21.4902C-137.927 21.1431 -137.611 20.6469 -137.381 20.0422C-135.852 18.1612 -134.175 16.6185 -132.387 15.4495L-125.005 8.66036L-112.845 -2.52177C-106.61 -6.34353 -100.094 -8.99079 -93.4142 -10.4161C-90.6462 -11.2157 -87.7471 -10.7283 -85.0308 -9.00663C-82.3145 -7.28495 -79.8845 -4.39459 -78.0036 -0.648417C-72.8289 8.86504 -68.2215 19.1674 -64.2537 30.0972C-59.9373 40.4076 -56.0412 51.1566 -52.5935 62.2659C-47.2956 77.4317 -44.183 94.2345 -43.5155 111.273C-42.1647 131.097 -45.5302 150.484 -52.8908 165.28C-56.5218 172.221 -60.9154 177.95 -65.8659 182.199L-75.4198 190.985C-75.8533 191.054 -76.2684 191.267 -76.6411 191.609C-77.0138 191.952 -77.3367 192.419 -77.5912 192.982L-68.7782 217.295C-68.3847 218.118 -67.859 218.743 -67.2691 219.089C-66.6791 219.436 -66.0518 219.488 -65.4682 219.239L-65.7659 216.021L-54.1752 200.874Z" fill="white"/>
<path fill-rule="evenodd" clip-rule="evenodd" d="M115.104 498.558C107.751 486.743 98.9434 477.762 89.3858 472.335C80.6814 466.565 71.4415 463.989 62.3335 464.795C57.8219 465.477 53.5127 467.741 49.6867 471.438L41.8698 478.626L37.0929 483.019L32.9673 486.813L-2.96229 387.689C9.26701 377.671 23.0294 373.074 37.066 374.319C50.3702 374.406 63.3703 370.081 75.3032 361.598L82.0344 355.408C87.0398 351.055 91.5012 345.265 95.2266 338.289C100.824 327.826 103.557 313.848 102.834 299.373C101.899 273.88 97.7747 248.628 90.7235 225.226C87.205 213.245 82.5187 202.207 76.8654 192.585C75.7714 189.938 74.7751 187.189 73.8826 184.356C70.1721 178.456 66.7177 172.13 63.5487 165.431C51.7264 141.067 45.8831 110.595 47.2888 80.6362C47.9567 65.874 51.17 52.0196 56.5521 40.6969C58.0711 37.4927 59.9251 34.7759 62.0355 32.6618C64.4463 30.8602 67.1206 30.0646 69.8381 30.3404C72.5555 30.6162 75.2382 31.9556 77.6652 34.2482C82.4281 37.8689 87.0835 41.9129 91.6098 46.3614C95.4502 50.5361 99.4806 54.1723 103.655 57.2288C111.598 63.3765 120.123 66.7542 128.672 67.14C136.133 67.7373 143.561 67.0891 150.842 65.2052L161.262 63.6022C165.983 62.5148 170.853 63.0235 175.583 65.0982C180.313 67.1729 184.807 70.7716 188.802 75.6818C193.732 82.5488 198.137 90.4043 201.903 99.0448C203.394 103.159 205.021 107.648 206.512 111.763C208.195 117.189 210.098 122.439 212.207 127.473C218.797 140.863 223.573 140.461 230.793 134.819L234.484 131.425C236.807 128.312 239.447 125.884 242.301 124.236C248.947 122.48 255.906 124.452 262.101 129.846C268.296 135.24 273.38 143.755 276.566 154.071C280.764 167.399 283.588 181.675 284.913 196.268L287.701 223.13C288.568 230.313 289.217 237.696 290.219 245.253C290.965 255.089 292.793 264.736 295.612 273.709C298.421 281.965 302.842 288.502 308.089 292.158C311.421 294.674 314.904 296.499 318.454 297.589L322.904 299.482L328.547 302.272L286.206 341.21C281.167 333.192 275.78 325.805 270.093 319.121C259.551 306.203 249.945 291.242 241.503 274.591C235.051 262.084 228.079 250.325 220.645 239.411C216.005 232.195 210.164 227.543 204.019 226.168C197.873 224.793 191.761 226.772 186.619 231.8L185.316 232.998C174.611 243.881 166.976 261.201 163.867 281.65C160.988 297.691 159.98 314.685 160.896 331.762L160.894 339.744C161.08 357.029 161.319 375.262 162.129 393.469C162.554 411.104 164.637 428.708 168.303 445.646C169.003 446.798 169.518 448.218 169.794 449.76L156.549 461.941C156.549 461.941 155.871 460.071 155.193 458.2C153.746 448.198 152.787 438.071 152.324 427.922C148.582 388.808 147.717 349.405 149.749 310.593C151.686 277.265 159.25 246.128 171.589 220.685C175.402 212.673 179.508 205.067 183.887 197.904C186.942 192.504 189.127 185.887 190.261 178.6C191.395 171.314 191.446 163.566 190.41 155.996C189.002 141.448 186.105 127.241 181.846 113.998C179.775 107.782 176.905 102.336 173.455 98.0758C170.004 93.8159 166.064 90.8545 161.934 89.4175C155.66 87.6193 149.339 86.7551 143.049 86.8355L141.094 88.6327L140.009 89.6311C131.899 89.7288 123.757 88.8839 115.642 87.1025C108.323 84.7226 101.116 81.1595 94.1258 76.4657C89.8982 73.5734 85.5618 71.2242 81.1568 69.4402C76.4882 67.4763 71.6622 68.3666 67.5884 71.9431C65.0226 74.6465 62.8737 78.2692 61.286 82.5679C59.6983 86.8667 58.7086 91.7421 58.3831 96.8668C57.792 106.215 58.3874 115.797 60.1318 125.008C61.8761 134.22 64.7316 142.861 68.5183 150.387C72.3089 158.897 76.5496 166.853 81.1846 174.15C89.4552 188.143 95.6089 205.12 99.0817 223.525C104.774 248.673 109.003 274.517 111.707 300.69C112.9 310.973 112.465 321.413 110.444 330.972C108.423 340.53 104.887 348.873 100.188 355.172C96.2363 360.658 92.1051 365.789 87.8105 370.545L85.422 372.741C80.3678 377.958 75.6998 384.09 71.4968 391.033C69.8426 393.698 68.5501 396.921 67.6955 400.514C67.0945 403.661 67.0581 407.087 67.5905 410.394C68.1229 413.701 69.2021 416.752 70.7028 419.194C73.69 424.89 77.3459 429.526 81.4179 432.781C86.6263 437.689 91.99 442.084 97.4788 445.941L105.482 452.046C114.639 458.536 123.129 467.62 130.549 478.869C130.549 478.869 131.362 481.113 131.769 482.235L114.833 497.81L116.053 501.177C115.564 500.501 115.227 499.571 115.104 498.558ZM132.638 481.436C132.568 480.26 132.336 479.108 131.96 478.07C131.584 477.031 131.073 476.135 130.468 475.452C122.93 464.335 114.377 455.329 105.185 448.829C97.1812 442.723 89.0962 437.191 81.2558 429.938C77.3359 426.528 73.7566 422.058 70.6763 416.725C69.3535 414.417 68.4218 411.585 67.9863 408.549C67.5508 405.513 67.6287 402.393 68.2113 399.541C69.1277 396.512 70.4649 393.918 72.1207 391.956C77.1534 384.079 82.6411 377.029 88.5159 370.894C93.3187 365.916 97.8894 360.379 102.196 354.323C106.998 347.843 110.618 339.294 112.703 329.51C114.789 319.726 115.268 309.04 114.096 298.493C111.257 272.215 106.986 246.26 101.335 220.954C97.7606 202.302 91.5206 185.087 83.1664 170.831C78.5676 163.477 74.3302 155.527 70.5001 147.069C66.9776 139.805 64.3196 131.547 62.6817 122.776C61.0438 114.006 60.4589 104.9 60.9612 95.9922C61.1582 91.0374 62.0442 86.3012 63.5507 82.1487C65.0573 77.9962 67.1442 74.5383 69.6507 72.0416C73.143 69.5969 77.1209 69.286 80.9121 71.1614C85.269 72.8042 89.5612 75.0289 93.7456 77.8129C100.978 82.6253 108.459 86.1176 116.048 88.2247C123.854 90.071 131.695 90.8669 139.493 90.6042C146.53 90.1961 153.625 91.0276 160.658 93.0849C164.672 94.3462 168.512 97.1476 171.864 101.26C175.217 105.372 177.986 110.678 179.945 116.743C184.3 129.926 187.203 144.163 188.51 158.741C189.606 166.046 189.619 173.564 188.548 180.636C187.477 187.708 185.355 194.117 182.367 199.302C178.105 206.713 173.842 214.124 170.069 222.083C157.561 247.817 149.935 279.375 148.066 313.138C145.976 352.005 146.768 391.47 150.424 430.667C151.299 440.391 152.575 450.05 154.243 459.573C155.056 461.817 155.87 464.061 156.548 465.932L169.793 453.751C170 451.601 169.792 449.352 169.198 447.316C165.612 430.547 163.504 413.159 162.942 395.714C162.324 374.837 161.976 354.709 161.71 334.006C161.083 317.273 162.104 300.667 164.734 284.842C167.659 264.547 175.158 247.329 185.749 236.589L187.052 235.391C191.886 230.588 197.677 228.772 203.472 230.241C209.267 231.711 214.72 236.379 218.934 243.477C226.986 252.945 234.581 263.479 241.639 274.965C249.553 291.212 258.644 305.82 268.682 318.423C274.598 325.372 280.195 333.068 285.419 341.435C285.419 341.435 286.097 343.305 287.806 343.229L331.233 303.293L323.256 299.657C318.226 297.938 313.268 295.487 308.442 292.333C303.443 288.61 299.224 282.311 296.453 274.432C293.757 265.582 291.909 256.168 290.978 246.549C289.137 230.288 287.866 214.001 286.025 197.739C284.731 182.371 281.823 167.318 277.434 153.272C273.881 143.52 268.619 135.688 262.41 130.907C256.202 126.127 249.368 124.646 242.897 126.68C238.795 129.715 234.873 133.321 231.172 137.463C224.224 143.853 220.045 142.708 213.997 130.814C207.949 118.92 207.082 111.737 203.693 102.386C199.874 93.6364 195.425 85.6592 190.456 78.649C186.246 72.3907 181.317 67.6517 176.019 64.7673C170.721 61.8828 165.183 60.9234 159.798 61.9569C149.106 64.5905 138.258 65.898 127.342 65.8687C118.859 65.319 110.417 61.8769 102.543 55.7579C93.6986 48.9292 85.6146 39.4062 76.6886 33.1513C74.1334 30.6491 71.2886 29.1826 68.4032 28.8801C65.5177 28.5775 62.6794 29.4482 60.1363 31.4159C57.9404 33.5617 56.0117 36.3478 54.4358 39.6507C48.7715 51.1504 45.483 65.4843 45.0094 80.7374C44.2689 95.9424 45.365 111.445 48.2346 126.352C51.1042 141.26 55.6907 155.279 61.7301 167.602C66.3022 176.84 71.1552 185.696 76.2681 194.132C81.7538 203.788 86.3804 214.667 89.9905 226.399C96.4766 248.829 100.184 272.925 100.881 297.18C101.623 311.13 99.0258 324.629 93.6536 334.748C89.9309 341.53 85.5537 347.238 80.6786 351.668L73.9474 357.858C62.15 366.205 49.2919 370.396 36.1445 370.179C21.3255 369.958 6.96778 375.956 -5.59442 387.615L-6.6801 388.614L30.6053 491.479C30.9092 491.433 31.2003 491.285 31.4614 491.045C31.7224 490.805 31.9482 490.477 32.1253 490.081L39.8616 479.475L47.6784 472.287C51.4664 468.764 55.6915 466.574 60.1082 465.844C68.9709 464.912 77.9829 467.372 86.455 473.035C95.9779 478.455 104.725 487.519 111.956 499.458C112.298 500.197 112.74 500.797 113.241 501.205C113.743 501.614 114.289 501.818 114.831 501.801L114.833 497.81L132.638 481.436Z" fill="white"/>
<path fill-rule="evenodd" clip-rule="evenodd" d="M369.347 254.28C366.968 237.033 363.972 219.968 360.378 203.178C357.998 193.155 356.113 182.878 354.742 172.453C353.875 164.837 353.821 157.118 354.585 149.655L356.651 133.79L357.956 124.61C360.476 105.705 358.879 85.4863 353.438 67.4195C346.335 43.03 339.965 17.4678 334.462 -4.90236C331.923 -14.9559 329.035 -24.7906 325.813 -34.3542L324.05 -39.217C320.951 -50.7419 318.729 -62.7773 317.438 -75.0305C316.395 -81.7593 316.637 -88.7185 318.128 -94.9235C319.62 -101.129 322.286 -106.265 325.75 -109.606L328.356 -112.003C333.343 -114.555 338.719 -114.972 344.004 -113.217C349.288 -111.461 354.316 -107.589 358.637 -101.945C366.318 -93.5287 372.939 -82.6154 378.058 -69.9311C379.414 -66.1905 380.634 -62.824 381.854 -59.4575C385.563 -49.5004 389.697 -39.9651 394.221 -30.9309C403.976 -12.0847 417.486 0.309869 431.958 3.69046L437.846 4.75921L448.753 7.69547C453.283 8.89451 457.667 11.7043 461.599 15.9283C465.53 20.1523 468.914 25.6885 471.514 32.1498C474.356 38.316 476.769 44.9709 478.7 51.9747C479.824 56.4521 480.162 61.2854 479.675 65.8925C479.187 70.4996 477.895 74.684 475.953 77.9418C473.61 82.7051 470.685 86.5819 467.348 89.3461L450.411 104.921C443.268 113.931 437.639 125.775 433.986 139.477C429.861 152.955 427.485 167.863 427.001 183.306C426.778 191.591 427.372 199.972 428.758 208.123L408.131 227.093C407.564 226.331 407.177 225.263 407.046 224.1C406.064 222.2 405.284 220.046 404.741 217.742C403.417 213.317 401.875 209.063 400.131 205.024C399.55 203.377 398.708 202.007 397.703 201.075C396.699 200.144 395.574 199.689 394.461 199.764L393.158 200.962C392.397 201.802 391.758 202.904 391.281 204.2C390.805 205.496 390.501 206.958 390.389 208.497C389.154 217.942 389.096 227.832 390.218 237.58C390.509 238.573 390.679 239.638 390.721 240.713C390.763 241.788 390.674 242.852 390.461 243.841L372.439 260.414L370.972 266.751L369.347 254.28ZM390.678 243.641C391.339 240.835 391.321 237.648 390.626 234.712C389.629 225.072 389.733 215.331 390.932 206.002C390.989 204.672 391.219 203.396 391.608 202.264C391.997 201.132 392.535 200.169 393.186 199.441L394.272 198.443C396.009 196.845 397.853 201.134 399.372 203.727C401.846 209.757 404.11 216.002 406.151 222.43C406.829 224.3 407.507 226.17 408.049 227.667L429.762 207.699C428.125 199.356 427.436 190.682 427.734 182.134C428.075 166.841 430.431 152.082 434.637 138.878C438.27 125.195 443.96 113.45 451.198 104.696L467.918 89.3208C471.275 86.369 474.259 82.4435 476.74 77.7168C478.846 74.2812 480.252 69.8249 480.784 64.902C481.316 59.9791 480.95 54.8068 479.732 50.0284C477.732 42.9172 475.277 36.1428 472.41 29.8295C469.731 22.6948 466.174 16.521 461.992 11.747C457.81 6.97308 453.105 3.71634 448.212 2.20844L432.88 3.83951C418.778 0.740409 405.59 -11.2869 396.12 -29.685C389.664 -41.5076 383.683 -54.0053 378.22 -67.0877C373 -80.8657 366.034 -92.7078 357.85 -101.72C353.35 -107.376 348.169 -111.254 342.741 -113.03C337.312 -114.805 331.794 -114.427 326.647 -111.927L323.824 -109.331C320.13 -105.867 317.285 -100.455 315.706 -93.8867C314.127 -87.3186 313.897 -79.9405 315.05 -72.834C317.09 -61.3565 319.872 -50.2001 323.345 -39.5657C327.412 -28.3441 331.616 -16.7484 333.946 -3.92927C339.774 20.1368 345.955 44.3771 352.923 68.3925C358.281 86.0297 359.814 105.823 357.25 124.262L353.879 149.306C353.117 156.898 353.217 164.753 354.172 172.478C355.552 183.075 357.409 193.538 359.727 203.777C363.806 224.904 367.126 246.333 369.669 267.949L371.136 261.612L390.678 243.641Z" fill="white"/>
<path fill-rule="evenodd" clip-rule="evenodd" d="M545.983 105.804C545.231 97.7473 546.371 89.7314 549.164 83.4279C552.122 76.6539 555.476 70.3972 559.182 64.7394L562.412 59.2748L569.932 44.8781C572.483 38.7709 574.066 31.6361 574.55 24.0744C575.034 16.5126 574.403 8.74522 572.711 1.42604C570.706 -9.3256 567.363 -19.3976 562.905 -28.1146C558.447 -36.8316 552.978 -43.9923 546.864 -49.1164C542.14 -52.9937 537.02 -55.1052 531.886 -55.2926C521.498 -56.5359 511.146 -55.5653 501.087 -52.4045L497.178 -48.8103C492.239 -47.2607 486.866 -45.3117 481.439 -44.3105C476.772 -43.2153 471.925 -44.3264 467.443 -47.5186C462.961 -50.7108 459.022 -55.8572 456.071 -62.3778C444.955 -83.8188 438.95 -110.964 439.294 -138.218C439.628 -156.034 442.705 -173.108 448.234 -187.835L458.417 -215.652L465.884 -234.988C469.411 -244.538 472.314 -254.728 474.548 -265.399L475.146 -270.936L476.097 -276.3L502.536 -203.359L501.016 -201.961L496.89 -198.167C492.026 -196.048 487.251 -193.489 482.588 -190.501L476.291 -184.71C466.542 -176.499 459.048 -162.733 455.088 -145.761C453.252 -137.595 452.573 -128.727 453.101 -119.806C453.63 -110.885 455.352 -102.138 458.142 -94.2061C460.822 -84.9424 465.193 -77.1715 470.595 -72.0642C475.997 -66.957 482.138 -64.7902 488.092 -65.8903C503.381 -67.6143 517.478 -78.1108 527.989 -95.5976L531.98 -103.756L535.454 -106.951L536.974 -108.349L597.444 58.4792L595.924 59.877L545.983 105.804ZM597.744 53.715L535.918 -116.854L534.832 -115.855L533.312 -114.458L526.525 -101.234C522.576 -94.6745 518.096 -89.0463 513.197 -84.4886C505.577 -77.9266 497.133 -74.0619 488.365 -73.1238C482.604 -71.63 476.573 -73.5239 471.292 -78.4845C466.012 -83.4451 461.807 -91.1673 459.391 -100.343C456.666 -108.072 454.993 -116.606 454.497 -125.305C454.001 -134.005 454.695 -142.644 456.528 -150.576C460.33 -167.194 467.658 -180.646 477.215 -188.552L483.512 -194.342C489.625 -198.265 495.939 -201.404 502.4 -203.733L503.703 -204.931C503.206 -204.66 502.793 -204.104 502.536 -203.359L475.419 -278.17C474.297 -273.858 473.52 -269.29 473.109 -264.575C470.869 -254.118 467.994 -244.123 464.527 -234.738L446.877 -187.584C441.347 -172.418 438.223 -154.996 437.774 -136.82C437.785 -109.187 444.162 -81.8829 455.61 -60.4569C458.615 -53.5456 462.717 -48.1046 467.411 -44.8021C472.106 -41.4996 477.188 -40.4794 482.035 -41.8665C488.864 -43.4033 495.605 -45.6063 502.225 -48.4643C511.816 -52.2283 521.754 -53.82 531.777 -53.1973C536.666 -53.019 541.542 -51.0277 546.049 -47.3698C552.094 -42.4812 557.505 -35.5212 561.902 -26.9816C566.298 -18.442 569.571 -8.5312 571.49 2.05042C573.157 9.11292 573.779 16.6292 573.299 23.9398C572.819 31.2504 571.253 38.132 568.738 43.9809C566.495 48.9804 564.056 53.7219 561.435 58.178C556.465 65.5236 551.957 73.6772 547.97 82.5307C546.444 86.2362 545.397 90.4554 544.888 94.9458C544.38 99.4363 544.419 104.11 545.006 108.698L596.467 61.3732L597.444 58.4792C598.747 57.2812 598.964 57.0815 597.744 53.715Z" fill="white"/>
<path fill-rule="evenodd" clip-rule="evenodd" d="M308.539 125.964C306.685 125.747 304.863 124.741 303.252 123.044L296.659 117.636C290.419 112.402 283.962 107.367 277.424 102.907C269.846 97.6049 262.072 93.2487 254.172 89.8767L242.722 85.4442C237.08 83.6895 231.488 81.3352 225.981 78.3961C220.385 75.364 215.023 71.0594 210.056 65.6107L205.254 59.5527C200.696 53.8124 195.856 48.7471 190.795 44.4216C182.279 36.3263 172.539 33.1367 163.2 35.3851L152.318 38.909L138.505 43.1331C130.913 44.9085 123.07 43.9613 115.495 40.3543C106.241 34.8952 97.9778 25.1515 91.7309 12.3338C85.7824 0.519398 82.5048 -14.2044 82.5153 -29.0652C82.5093 -36.1537 82.7557 -43.2082 83.2533 -50.1922C84.7679 -67.1664 85.3896 -84.4239 85.1115 -101.775C85.1135 -109.757 85.1431 -119.26 85.5253 -128.589C85.7996 -133.909 86.7957 -138.978 88.4403 -143.425C90.0849 -147.872 92.3363 -151.583 95.0292 -154.286C96.6172 -156.505 98.4569 -158.197 100.458 -159.278C111.609 -162.74 123.433 -158.767 133.425 -148.199C136.571 -145.109 139.718 -142.018 142.648 -138.727C145.578 -135.437 152.984 -127.784 158.383 -123.273C167.495 -116.222 177.001 -110.904 186.708 -107.427L189.395 -106.406L216.175 -95.6232L217.477 -96.8212C224.684 -93.098 232.064 -90.6851 239.483 -89.6269C246.818 -88.88 254.01 -91.3634 260.325 -96.8237C262.551 -98.3814 264.661 -100.322 266.621 -102.614C268.792 -105.862 270.509 -109.855 271.667 -114.351C272.826 -118.846 273.401 -123.749 273.358 -128.759C273.603 -133.221 273.613 -137.735 273.388 -142.253L272.956 -149.835C271.607 -164.152 270.939 -178.547 270.959 -192.885C270.886 -204.896 272.36 -216.622 275.282 -227.284C277.463 -235.395 281.042 -242.147 285.598 -246.746C289.607 -250.37 294.217 -252.021 298.923 -251.518L313.142 -250.63L323.019 -249.738C330.863 -249.079 338.521 -251.982 345.164 -258.133C350.787 -262.392 355.42 -269.379 358.489 -278.229C361.559 -287.079 362.93 -297.405 362.435 -307.93C361.97 -316.946 360.333 -325.821 357.638 -333.942C354.714 -343.801 350.835 -352.881 346.167 -360.798C342.91 -366.33 338.84 -370.336 334.421 -372.358C330.003 -374.379 325.413 -374.335 321.178 -372.231C316.03 -369.562 311.024 -366.292 306.196 -362.443L297.294 -354.257C292.398 -349.264 287.088 -345.388 281.498 -342.723C276.479 -340.775 271.184 -340.736 265.998 -342.609C260.812 -344.483 255.865 -348.221 251.516 -353.554C249.66 -355.534 247.892 -357.743 246.226 -360.16L263.163 -375.735L265.143 -375.063C267.961 -372.332 271.043 -370.526 274.207 -369.753C277.371 -368.98 280.553 -369.254 283.567 -370.56C287.186 -373.073 290.569 -376.352 293.637 -380.319C299.146 -385.354 303.954 -392.146 307.807 -400.332C309.142 -403.028 310.115 -406.181 310.666 -409.602C311.217 -413.024 311.335 -416.642 311.014 -420.239C310.759 -421.345 310.675 -422.521 310.77 -423.657C310.865 -424.792 311.137 -425.848 311.558 -426.724L328.929 -442.699C329.63 -441.547 330.144 -440.127 330.42 -438.584C333.369 -432.485 337.26 -427.804 341.628 -425.1C345.996 -422.396 350.658 -421.784 355.056 -423.335L364.201 -425.261L373.862 -428.161C386.355 -431.252 399.392 -427.498 411.035 -417.459L420.992 -409.16L425.061 -405.92C425.859 -405.218 426.629 -404.426 427.367 -403.552L428.452 -400.559L446.349 -351.184C442.883 -332.45 440.159 -313.286 438.193 -293.811L435.77 -262.157L435.144 -251.107C434.075 -236.646 432.486 -222.361 430.384 -208.327L428.971 -201.043C426.041 -185.296 423.984 -169.05 422.826 -152.5C422.09 -128.522 424.847 -104.21 430.868 -81.5931L433.173 -75.2341C435.519 -66.3781 437.379 -57.2362 438.728 -47.9254C439.252 -44.699 439.176 -41.351 438.51 -38.3317C437.845 -35.3124 436.622 -32.7666 435.007 -31.0367L432.401 -28.6405C429.231 -27.5717 425.913 -27.6565 422.67 -28.8891C419.427 -30.1216 416.334 -32.4736 413.598 -35.7871C406.867 -43.1935 401.151 -52.9524 396.89 -64.3109C388.377 -85.8667 377.436 -104.643 364.721 -119.514C358.451 -127.217 351.351 -132.724 343.893 -135.67C336.436 -138.616 328.792 -138.932 321.471 -136.597C317.305 -134.743 313.316 -132.079 309.584 -128.657C306.766 -125.661 304.131 -122.237 301.712 -118.426C298.59 -113.815 296.544 -107.522 295.89 -100.52C295.236 -93.5181 296.01 -86.1966 298.093 -79.6873C301.163 -68.1309 304.743 -56.9183 308.803 -46.1461C318.352 -20.3868 324.291 8.30318 326.149 37.6504L326.69 43.1375C327.91 56.1453 328.388 69.232 328.118 82.2219C327.553 96.956 324.082 110.655 318.231 121.239L315.191 124.034L313.834 124.284C312.217 125.603 310.393 126.182 308.539 125.964ZM318.665 120.839C324.531 109.912 327.979 95.8973 328.498 80.8747C328.833 65.9943 328.246 50.993 326.746 36.1036C324.746 6.79367 318.818 -21.8434 309.4 -47.6929C305.425 -58.3748 301.891 -69.4581 298.826 -80.8601C296.621 -87.0205 295.705 -94.1042 296.229 -100.937C296.754 -107.769 298.689 -113.94 301.712 -118.426C304.687 -121.902 307.888 -124.846 311.266 -127.212C314.854 -130.502 318.7 -133.034 322.719 -134.752C329.828 -137.043 337.257 -136.732 344.5 -133.84C351.743 -130.948 358.63 -125.543 364.693 -117.992C377.326 -103.413 388.184 -84.8771 396.591 -63.5375C401.063 -52.097 406.841 -42.1358 413.57 -34.2656C416.425 -30.8286 419.661 -28.4266 423.047 -27.2304C426.433 -26.0341 429.886 -26.0729 433.16 -27.344C434.212 -27.8675 435.173 -28.751 435.983 -29.9399C437.804 -31.6904 439.19 -34.4178 439.93 -37.7087C440.671 -40.9995 440.725 -44.6742 440.085 -48.1757C438.497 -59.9651 436.152 -71.5212 433.093 -82.6421C427.223 -105.403 424.732 -129.831 425.839 -153.774C427.195 -172.979 429.56 -191.841 432.908 -210.149C435.36 -224.109 437.025 -238.494 437.885 -253.129C438.919 -267.048 439.819 -281.34 441.287 -295.658C443.093 -315.204 445.819 -334.385 449.443 -353.032L431.274 -403.155C429.895 -405.225 428.373 -407.01 426.744 -408.465C422.186 -412.253 417.411 -415.842 412.718 -420.005C400.927 -430.128 387.71 -433.749 375.111 -430.307C367.892 -428.656 362.681 -423.864 355.707 -423.934C351.494 -422.354 347.008 -422.909 342.813 -425.529C338.618 -428.15 334.901 -432.718 332.13 -438.66C331.321 -440.498 330.202 -441.91 328.929 -442.699L311.341 -426.525C310.869 -424.818 310.664 -422.917 310.743 -420.987C311.114 -417.546 311.047 -414.063 310.546 -410.766C310.045 -407.469 309.121 -404.432 307.834 -401.854C303.819 -393.562 298.813 -386.756 293.095 -381.816C289.289 -378.28 285.17 -375.667 280.855 -374.051C275.411 -372.861 269.758 -374.896 264.873 -379.802C264.873 -379.802 261.617 -380.798 260.966 -380.199L242.075 -362.826C243.567 -358.712 247.012 -356.394 249.589 -353.278C254.057 -347.817 259.147 -344.025 264.477 -342.188C269.806 -340.351 275.236 -340.516 280.358 -342.672C288.355 -346.932 295.998 -352.623 303.156 -359.648C308.647 -364.631 314.467 -368.646 320.526 -371.632C324.576 -373.705 328.977 -373.78 333.215 -371.848C337.454 -369.916 341.353 -366.056 344.457 -360.722C349.155 -353.034 353 -344.052 355.793 -334.24C358.509 -326.48 360.133 -317.897 360.535 -309.176C360.997 -298.924 359.643 -288.877 356.642 -280.269C353.642 -271.661 349.124 -264.868 343.645 -260.726C337.192 -254.818 329.75 -252.119 322.152 -252.93L298.056 -254.711C293.195 -255.018 288.455 -253.236 284.297 -249.539C279.569 -244.888 275.838 -237.996 273.546 -229.677C270.63 -218.684 269.176 -206.645 269.277 -194.331C269.575 -176.742 270.732 -159.126 272.737 -141.654C273.056 -136.584 273.155 -131.507 273.031 -126.464C273.022 -116.912 270.739 -108.005 266.675 -101.667C264.795 -99.4227 262.756 -97.5476 260.596 -96.0756C254.416 -90.7465 247.363 -88.3973 240.188 -89.2781C232.226 -90.5031 224.307 -93.0808 216.555 -96.9703L187.089 -108.774C177.409 -111.923 167.932 -117.124 158.899 -124.246C150.271 -131.274 142.405 -140.997 133.615 -150.868C123.491 -161.251 111.684 -165.452 100.377 -162.695C98.3613 -161.359 96.466 -159.616 94.7316 -157.503C91.8603 -154.748 89.4689 -150.863 87.7515 -146.164C86.0341 -141.465 85.0391 -136.084 84.8474 -130.459C84.4254 -121.571 84.2873 -112.621 84.4336 -103.645C84.6324 -86.3055 84.0111 -69.0586 82.5754 -52.0625C82.1666 -45.203 81.5407 -38.1438 81.4847 -31.1099C81.7334 -16.301 84.9788 -1.7219 90.7003 10.2892C97.1463 23.9667 105.776 34.4314 115.495 40.3543C123.243 44.291 131.317 45.2339 139.075 43.1078C147.568 41.7804 155.466 38.009 163.906 35.7338C173.001 33.6466 182.463 36.7039 190.795 44.4216C197.397 50.7259 203.785 57.6776 209.92 65.2366C214.994 71.3112 220.548 76.1272 226.388 79.5183C235.477 84.6257 245.055 86.2908 254.308 90.2507C262.142 93.6124 269.866 97.8409 277.424 102.907C286.214 108.788 294.543 116.589 303.035 123.244C304.833 125.078 306.854 126.15 308.906 126.359C310.957 126.567 312.972 125.904 314.757 124.433L315.191 124.034L318.665 120.839Z" fill="white"/>
<path fill-rule="evenodd" clip-rule="evenodd" d="M49.2571 341.659C44.0744 340.939 38.539 340.045 33.4378 338.751L21.3353 338.908C7.55375 336.803 -6.16422 339.089 -19.0712 345.644L-21.4597 347.84L-35.018 310.435C-27.9086 310.879 -20.7177 310.75 -13.6623 310.247L-0.474124 309.091C10.2766 309.86 21.0216 312.699 31.5437 317.551C40.7361 322.128 50.2617 323.707 59.5735 322.197C62.6565 321.479 65.6161 319.936 68.3394 317.627C72.5773 313.008 75.7667 306.244 77.4769 298.25C79.1871 290.255 79.3356 281.415 77.9024 272.924C75.0223 255.704 69.2838 239.872 61.3613 227.289C52.4158 210.936 44.9687 192.546 39.2867 172.778C32.1958 151.707 25.9545 129.951 20.6067 107.665C17.8978 95.8701 16.6448 83.4424 16.9255 71.1509C16.7148 68.3611 16.67 65.5622 16.7919 62.7952C17.1677 49.943 16.7345 36.9704 15.4992 24.0849C14.6337 12.9111 13.0627 1.38852 11.7629 -9.3859L10.8964 -16.5689C9.55368 -26.4166 9.45028 -36.4817 10.5928 -46.1202C11.7353 -55.7588 14.0986 -64.7587 17.5316 -72.5446C24.2678 -86.5761 29.3114 -102.708 32.4139 -120.145C35.1765 -136.035 36.4611 -152.681 36.2253 -169.534L59.893 -191.299C61.6995 -180.275 61.3927 -168.823 59.0164 -158.574L57.2243 -153.933C53.553 -138.144 50.6635 -121.812 48.5829 -105.09C47.3337 -92.1755 46.6683 -79.0612 46.5921 -65.8536C46.187 -49.851 44.2224 -34.2356 40.7734 -19.6061C37.4414 -4.41444 35.2421 11.5042 34.2218 27.8143C33.1331 40.7852 32.2615 53.5565 31.5255 66.7017C29.914 89.61 32.1702 113.241 38.048 135.016C40.7245 145.445 43.7479 155.653 47.1035 165.59C52.1021 180.323 58.3034 193.935 65.5184 206.01C71.9653 216.269 77.4253 228.095 81.6823 241.019C88.4291 260.071 91.244 281.908 89.6717 302.997C88.8012 313.95 85.3273 323.597 80.0047 329.842L75.4448 334.035L75.3092 333.661C67.3688 340.18 58.3749 342.941 49.2571 341.659ZM80.0047 329.842C85.6236 323.209 89.3062 313.023 90.2691 301.45C91.6627 280.07 88.7621 258.045 82.0085 238.724C77.6868 225.865 72.2345 214.056 65.8446 203.715C58.8711 192.069 52.8548 178.967 47.9721 164.791C44.7052 155.103 41.772 145.144 39.1877 134.965C33.5235 113.313 31.2484 89.9755 32.5837 67.2249L35.7417 26.4165C36.6695 10.1861 38.6754 -5.70673 41.7235 -20.9785C45.269 -35.7586 47.2629 -51.5814 47.6237 -67.7998C47.7961 -80.8786 48.5065 -93.8625 49.7501 -106.662C51.8131 -125.326 54.9056 -143.527 58.9899 -161.043C61.5411 -171.74 61.8585 -183.762 59.894 -195.29L34.9235 -172.327L35.737 -170.082C36.1583 -152.891 34.8893 -135.89 31.9796 -119.746C29.2551 -101.691 24.4339 -84.8996 17.7752 -70.275C14.2719 -62.5084 11.8507 -53.4899 10.6699 -43.8095C9.48904 -34.1291 9.57527 -24.005 10.9229 -14.0995L15.5257 26.5542C16.5837 42.078 16.8974 57.6331 16.4637 73.0718C16.4138 85.6342 17.7533 98.262 20.4161 110.334C25.655 131.917 31.6669 153.038 38.4182 173.577C44.4581 192.509 52.1597 209.985 61.2532 225.393C68.9656 237.872 74.5946 253.402 77.5232 270.28C78.7074 275.553 79.1794 281.12 78.9045 286.57C78.6296 292.021 77.6148 297.217 75.9346 301.776C74.2544 306.336 71.9517 310.142 69.1956 312.916C66.4396 315.691 63.3004 317.362 60.0088 317.807C50.8093 319.094 41.4312 317.579 32.3317 313.335C21.7672 308.411 10.981 305.447 0.178286 304.501C-12.6031 306.779 -24.2989 308.058 -36.2383 307.068L-21.1885 348.588L-19.0172 346.592C-6.25589 340.117 7.27238 337.648 20.9011 339.308C30.1268 340.798 39.4605 344.185 48.6322 344.728C58.2778 346.009 67.7765 342.961 76.1227 335.905L75.4448 334.035L80.0047 329.842Z" fill="white"/>
<path fill-rule="evenodd" clip-rule="evenodd" d="M-67.4224 221.036C-53.5915 207.169 -42.7054 186.778 -36.0389 162.251C-32.2813 146.631 -30.5363 129.691 -30.9098 112.458C-31.2833 95.2257 -33.7675 78.0612 -38.2116 62.0073C-40.3809 56.0224 -42.6859 49.6635 -43.5524 42.4805C-44.4189 35.2976 -50.0604 24.5259 -51.2246 14.1255C-55.6013 -0.536522 -56.9367 -16.8931 -55.0119 -32.2656C-52.9181 -41.244 -50.3086 -49.8216 -47.2175 -57.8868L-45.9147 -59.0848C-41.7917 -71.1275 -39.2929 -84.6366 -38.5781 -98.7485L-39.5272 -101.367L-26.2819 -113.547C-24.2876 -105.041 -23.4016 -96.0447 -23.6849 -87.1751C-23.9682 -78.3055 -25.414 -69.7732 -27.923 -62.1643L-30.0414 -55.2289C-32.7882 -46.6204 -35.0253 -37.5503 -36.7235 -28.1368C-38.4057 -16.766 -38.3061 -4.68245 -36.4339 7.00736C-34.6931 19.7819 -32.1021 32.2886 -28.7097 44.2918C-27.5676 47.0616 -26.5261 49.9349 -25.5913 52.8951C-21.0762 68.571 -18.5206 85.4136 -18.0872 102.352C-18.5814 118.615 -20.1598 134.617 -22.7937 150.07C-25.9967 165.374 -30.5715 179.662 -36.3721 192.482L-40.3366 203.11C-46.0379 217.512 -51.25 232.461 -55.9509 247.892L-57.2537 249.09L-56.5757 250.96L-67.4224 221.036ZM-54.7031 249.737C-48.9455 230.477 -41.9401 213.063 -35.3415 194.526C-30.1185 181.186 -26.2935 166.384 -24.0149 150.695C-21.2828 134.995 -19.6047 118.737 -19.0098 102.203C-19.3109 84.7956 -21.9385 67.4535 -26.7035 51.4242C-30.8957 36.5091 -34.2622 21.0712 -36.7591 5.31147C-38.4384 -6.17256 -38.4447 -17.9714 -36.7776 -29.0846C-34.6802 -41.1708 -31.9445 -52.864 -28.601 -64.0346C-25.991 -71.6778 -24.4364 -80.2688 -24.0411 -89.2333C-23.6457 -98.1977 -24.4188 -107.329 -26.3085 -116.017L-40.2051 -103.237C-39.6772 -102.065 -39.2227 -100.811 -38.8492 -99.4966C-39.4184 -86.5709 -41.631 -74.1718 -45.3438 -63.101C-48.3851 -53.8506 -50.8506 -44.0663 -52.7049 -33.8883C-54.5338 -18.4623 -53.2826 -2.13311 -49.1348 12.7024C-45.2314 29.0624 -40.1068 44.798 -36.1218 60.5842C-31.8223 76.4938 -29.5081 93.4878 -29.3255 110.49C-29.143 127.492 -31.0961 144.132 -35.0613 159.357C-42.3838 184.188 -53.9874 204.549 -68.5071 218.044L-55.7622 253.205L-56.4402 251.334L-54.7031 249.737Z" fill="white"/>
<path fill-rule="evenodd" clip-rule="evenodd" d="M451.068 159.323C453.575 148.233 457.903 138.687 463.59 131.702L470.538 125.312C474.092 121.55 477.79 118.149 481.612 115.128L486.606 110.535L500.149 101.572C510.435 95.6044 512.199 96.4763 520.254 111.512C521.985 115.733 523.57 120.105 525 124.604L510.452 137.982L506.354 136.264C504.535 135.225 502.653 134.605 500.765 134.422C493.743 134.005 486.891 136.532 480.846 141.767C475.903 146.401 471.877 153.201 469.172 161.48C467.9 165.036 467.191 169.111 467.107 173.354C466.99 175.363 466.59 177.267 465.939 178.917L450.088 193.493L449.355 194.666C447.969 182.627 448.561 170.412 451.068 159.323ZM466.156 178.717C466.86 176.67 467.312 174.393 467.487 172.007C467.571 168.047 468.303 164.271 469.607 161.08C472.19 152.994 476.067 146.331 480.846 141.767C486.749 136.633 493.465 134.239 500.331 134.821C503.75 134.669 506.897 137.76 510.234 138.182L527.822 122.008C525.968 116.989 523.784 112.303 521.313 108.044C513.122 92.6346 510.653 91.4139 500.15 97.5815C494.722 102.574 488.263 105.521 482.563 109.765C478.306 113.185 474.175 116.984 470.187 121.147L463.238 127.536C456.969 134.952 452.216 145.302 449.529 157.392C446.842 169.482 446.33 182.819 448.052 195.864L448.785 194.692L466.156 178.717Z" fill="white"/>
<path fill-rule="evenodd" clip-rule="evenodd" d="M520.026 69.3285C518.09 70.9775 515.83 71.4591 513.611 70.6959C511.391 69.9327 509.34 67.969 507.789 65.121C503.973 59.4231 500.574 52.9975 497.673 45.9964C497.673 45.9964 496.723 43.378 496.317 42.2559C495.07 39.5939 494.022 36.703 493.198 33.6526C490.416 27.9445 488.131 21.6421 486.419 14.9498C484.17 1.55703 484.823 -3.03287 490.388 -11.6417L494.73 -15.6353C498.665 -18.9562 502.933 -21.1977 507.377 -22.2781C513.512 -24.7171 520.041 -24.3511 526.29 -21.2177C530.098 -19.2752 533.677 -16.0853 536.808 -11.8446C539.938 -7.60388 542.554 -2.4024 544.492 3.43907C545.889 8.02569 546.699 12.988 546.866 17.9946C547.033 23.0012 546.554 27.9369 545.462 32.4718C544.019 38.492 541.84 43.8878 539.054 48.3395C534.875 55.5288 530.122 61.7427 524.911 66.8311L525.02 64.7358L520.026 69.3285ZM539.271 48.1398C542.139 43.5538 544.35 37.9521 545.76 31.6984C546.729 26.1335 546.969 20.2149 546.465 14.3223C545.961 8.4298 544.725 2.69339 542.836 -2.51903C540.947 -7.73145 538.446 -12.3048 535.494 -15.9457C532.542 -19.5867 529.204 -22.2148 525.694 -23.6617C519.231 -27.0572 512.451 -27.5442 506.075 -25.0709C501.572 -23.8337 497.241 -21.5299 493.211 -18.2284L488.869 -14.2347C482.869 -5.22658 482.271 0.311085 484.656 14.078C485.794 21.26 487.695 28.129 490.268 34.3528C491.436 38.7406 492.94 42.8913 494.742 46.6966C497.745 53.7484 501.183 60.2867 504.994 66.1953C506.746 69.1083 508.958 71.1227 511.335 71.9682C513.711 72.8138 516.138 72.4501 518.289 70.9259L523.501 66.1336L524.911 66.8311C530.185 61.6582 535.008 55.3802 539.271 48.1398Z" fill="white"/>
<path fill-rule="evenodd" clip-rule="evenodd" d="M62.5859 320.923C54.1601 323.339 45.3719 322.361 36.9435 318.071C19.2851 309.51 1.06906 306.011 -16.8908 307.729C-21.4496 307.932 -26.3611 307.96 -32.3308 307.465C-32.9824 307.796 -33.677 307.898 -34.3721 307.766C-35.0672 307.633 -35.7483 307.269 -36.3738 306.694L-55.6267 253.579C-55.6213 251.56 -55.3427 249.6 -54.8112 247.841C-49.2982 230.303 -42.7271 213.288 -37.0521 198.593C-31.6179 184.514 -27.4579 169.105 -24.6939 152.815C-22.4093 139.182 -20.7996 125.193 -19.8803 110.983C-19.1866 95.556 -20.63 79.831 -24.1019 64.9913C-26.1356 59.3805 -28.305 53.3956 -28.8188 46.3871C-29.3326 39.3785 -33.2645 28.5309 -35.0261 19.6774C-38.0961 5.85106 -39.1264 -8.78163 -38.0274 -22.9479C-36.8721 -32.2102 -34.9146 -41.0632 -32.2137 -49.2412L-30.7743 -54.0561C-28.2267 -61.1819 -26.2467 -68.8663 -24.8801 -76.9324C-23.1193 -87.7103 -23.3047 -99.312 -25.4144 -110.355C-25.8658 -112.243 -26.0957 -114.234 -26.0913 -116.216L-7.85201 -132.99C-7.41105 -132.984 -6.9695 -132.821 -6.55748 -132.512C-6.14547 -132.202 -5.77266 -131.753 -5.46453 -131.195C-4.05427 -129.496 -2.41474 -128.442 -0.725339 -128.149C0.964054 -127.855 2.6382 -128.333 4.1139 -129.53L7.42494 -131.578C9.05032 -134.921 10.1904 -138.863 10.7655 -143.128C10.9712 -145.884 11.3539 -148.577 11.9073 -151.161L33.6207 -171.129C33.6207 -171.129 33.6207 -171.129 34.5698 -168.51C34.7137 -161.203 34.4393 -153.937 33.7503 -146.81C32.0713 -124.818 27.7497 -103.893 21.0353 -85.2427L19.5154 -83.845L15.4153 -73.5909C11.8304 -64.6617 9.57103 -54.3629 8.80693 -43.4676C8.04283 -32.5723 8.79381 -21.3635 11.0035 -10.6825L11.9526 -8.06409C13.2524 2.71033 14.6877 13.8588 15.5532 25.0326C16.7986 39.3338 17.1587 53.7098 16.6278 67.9335C16.6646 87.9688 19.57 108.027 25.1065 126.469C29.7163 139.186 33.4026 155.746 38.3917 171.108C44.4777 190.44 52.1593 208.405 61.1992 224.446C65.7175 232.013 69.6565 240.463 72.9154 249.58C78.1415 262.919 80.3402 278.653 79.0912 293.775C78.6404 298.494 77.585 302.933 75.9941 306.803C74.4031 310.672 72.3126 313.885 69.8594 316.229L68.8828 315.132C66.9113 317.397 64.8031 319.336 62.5859 320.923ZM76.3698 306.318C78.0328 302.2 79.0926 297.454 79.4714 292.428C80.7461 277.285 78.6295 261.515 73.5128 248.034C70.287 238.711 66.2952 230.12 61.661 222.525C52.9175 207.589 45.4531 190.763 39.5038 172.579C34.2161 157.99 30.3667 142.578 26.0831 127.566C20.3082 108.969 17.3028 88.6061 17.3333 68.2822C17.6102 54.029 17.251 39.69 16.2587 25.3814C15.122 13.4595 13.6326 1.3632 12.1432 -10.7331C10.478 -20.8356 10.1045 -31.2641 11.0472 -41.3299C11.99 -51.3958 14.2275 -60.8702 17.6122 -69.1275C19.4706 -73.0884 21.1406 -77.2912 22.6083 -81.7019C29.441 -100.472 33.9072 -121.519 35.7575 -143.668C36.519 -150.895 36.7486 -158.306 36.4415 -165.743C36.4415 -165.743 36.6056 -170.881 34.9235 -172.327L11.6901 -150.961L9.92452 -143.851C9.37477 -139.905 8.34003 -136.239 6.88261 -133.074L4.71128 -131.077C3.4534 -129.514 1.90058 -128.688 0.276624 -128.719C-1.34734 -128.749 -2.95854 -129.634 -4.32482 -131.246C-5.33448 -132.32 -6.47061 -132.987 -7.63487 -133.189L-26.3085 -116.017C-26.7228 -114.153 -26.6845 -112.05 -26.2014 -110.13C-24.2647 -99.2868 -24.1735 -87.9649 -25.9383 -77.4555C-27.6597 -68.2207 -29.9909 -59.3883 -32.8916 -51.1115C-35.5683 -42.8084 -37.4806 -33.827 -38.5697 -24.4441C-39.7114 -10.102 -38.7095 4.7225 -35.6499 18.7549C-32.7232 34.018 -28.0868 49.2051 -24.5902 64.4429C-21.0028 79.1694 -19.4831 94.8474 -20.1515 110.235C-21.0497 124.453 -22.6596 138.444 -24.965 152.067C-27.7068 168.296 -31.9171 183.597 -37.4589 197.471C-43.5141 213.513 -49.651 230.129 -55.0823 247.093C-55.6422 248.954 -55.8771 251.066 -55.7623 253.205L-36.2383 307.068C-35.0884 308.421 -33.7166 309.1 -32.3584 308.987C-27.1194 309.768 -21.8802 309.79 -16.7012 309.051C0.978067 307.428 18.8916 310.481 36.3737 318.097C44.8645 322.624 53.7684 323.538 62.2332 320.749C64.5967 319.328 66.7928 317.308 68.7472 314.758L69.8594 316.229C72.4823 313.823 74.7067 310.436 76.3698 306.318Z" fill="white"/>
<path fill-rule="evenodd" clip-rule="evenodd" d="M470.638 159.346C472.723 153.694 475.638 149.056 479.135 145.827L480.872 144.23C487.755 137.743 495.931 135.502 504.048 137.879C505.477 138.511 506.87 139.405 508.199 140.546L467.16 178.285C467.36 171.495 468.553 164.998 470.638 159.346ZM508.85 139.947C507.088 137.662 505.034 136.119 502.881 135.461C494.569 132.829 486.161 135.087 479.136 141.836L477.399 143.434C473.372 146.882 470.067 152.156 467.842 158.686C465.616 165.216 464.555 172.753 464.772 180.482L465.423 179.883L508.85 139.947Z" fill="white"/>
<path fill-rule="evenodd" clip-rule="evenodd" d="M273.926 71.7081C264.782 69.6437 255.448 66.2575 246.684 62.8459L242.587 61.1275C229.46 56.2852 217.018 46.3429 206.314 32.1423C199.094 22.8913 191.07 15.6041 182.576 10.582C173.985 5.89196 164.98 4.59796 156.309 6.80748C153.921 9.00397 150.231 8.40772 147.3 9.10799L135.142 12.3084C131.242 13.6975 127.113 13.2669 123.202 11.0628C119.291 8.85879 115.746 4.96502 112.949 -0.19864C109.187 -7.53261 107.01 -16.6478 106.795 -25.9605C104.835 -48.3133 104.359 -70.7893 105.374 -92.9808C105.688 -100.809 107.325 -108.188 110.101 -114.285C111.214 -115.718 112.457 -116.861 113.792 -117.68C117.155 -120.279 121.029 -120.853 124.783 -119.308C129.063 -117.695 133.198 -114.924 137.019 -111.109C149.212 -100.339 162.362 -93.317 175.79 -90.4069C188.723 -87.4262 201.546 -82.5256 214.102 -75.765L231.005 -65.8736C241.392 -60.1443 252.182 -57.4077 262.887 -57.7876L272.629 -57.27C276.326 -56.6103 279.954 -54.7111 283.29 -51.6892C286.626 -48.6672 289.599 -44.5865 292.026 -39.6978C297.888 -29.1091 302.182 -16.467 304.53 -2.88474C306.878 10.6975 307.209 24.8031 305.493 38.1898C305.001 44.0816 303.749 49.6471 301.82 54.5165C299.892 59.3859 297.33 63.4477 294.306 66.4322L293.708 67.979C287.612 72.4502 280.731 73.7474 273.926 71.7081ZM302.198 54.0303C304.199 48.912 305.454 43.0406 305.873 36.8426C307.702 23.246 307.411 8.87388 305.026 -4.96215C302.64 -18.7982 298.237 -31.6576 292.217 -42.3668C289.656 -47.3266 286.562 -51.4633 283.112 -54.5389C279.662 -57.6145 275.924 -59.5683 272.114 -60.2878L262.372 -60.8053C251.724 -60.6389 241.012 -63.241 230.626 -68.5173L213.723 -78.4087C200.875 -86.0006 187.701 -91.5882 174.38 -95.0952C161.108 -98.33 148.115 -105.273 135.962 -115.623C131.984 -119.619 127.688 -122.572 123.237 -124.37C120.435 -125.954 117.465 -126.118 114.722 -124.843C111.979 -123.567 109.591 -120.911 107.877 -117.227C105.018 -110.862 103.395 -103.133 103.204 -94.9748C102.369 -72.8223 102.918 -50.4314 104.842 -28.1543C105.581 -17.6323 108.495 -7.61631 113.084 0.175418C115.908 5.43181 119.481 9.43307 123.431 11.7639C127.382 14.0948 131.566 14.6702 135.549 13.4306C143.039 12.5279 149.715 9.38081 156.933 7.72997C165.482 5.70373 174.339 7.13484 182.765 11.9038C191.102 16.7022 198.969 23.8119 206.015 32.9157C216.924 47.1662 229.504 57.2725 242.776 62.4493C253.485 66.9044 264.321 70.1066 275.201 72.0316C282.2 74.3398 289.312 73.0278 295.554 68.2771L294.306 66.4322C297.501 63.3851 300.197 59.1485 302.198 54.0303Z" fill="white"/>
<path fill-rule="evenodd" clip-rule="evenodd" d="M97.8373 446.107C91.5953 441.693 85.5054 436.631 79.606 430.954C76.1548 427.31 73.1008 422.677 70.6004 417.291C69.3533 414.348 68.6743 410.889 68.6606 407.408C68.6468 403.927 69.299 400.603 70.5239 397.911C73.2466 391.947 76.5867 386.852 80.4051 382.839L88.8733 375.051C95.0288 368.869 100.741 361.61 105.92 353.39C110.386 345.287 113.435 335.269 114.773 324.301C115.158 317.395 114.95 310.367 114.155 303.424C112.584 284.299 109.973 265.333 106.354 246.76L104.591 241.897C102.446 229.038 99.6248 216.444 96.1616 204.264C93.8577 195.143 90.7487 186.566 86.942 178.828L82.3852 171.049L72.5936 153.62C66.0514 141.587 61.7075 126.82 60.122 111.225C59.2051 103.645 59.529 95.9326 61.0594 88.906C62.5898 81.8795 65.2697 75.8 68.8154 71.3114C73.3225 67.956 78.5717 67.7912 83.4145 70.8531L96.519 78.2527L102.217 81.9905C111.639 87.1145 121.395 89.7607 131.114 89.8289L136.812 89.5759L153.094 90.5631C157.721 91.0751 162.313 92.9297 166.66 96.0419C172.619 100.603 177.477 108.593 180.276 118.432C184.041 130.652 186.527 143.726 187.62 157.063C188.717 164.368 188.73 171.886 187.659 178.958C186.588 186.03 184.465 192.439 181.477 197.624C173.31 210.641 166.207 225.381 160.328 241.512C156.173 254.335 152.851 267.918 150.413 282.05C146.672 309.856 145.621 338.756 147.298 367.706C147.755 385.739 148.564 403.947 149.808 421.755C150.869 435.667 152.766 449.462 155.469 462.932L133.755 482.9L134.298 484.396C123.822 467.51 111.37 454.434 97.8373 446.107ZM156.12 462.333C153.327 449.279 151.374 435.858 150.296 422.303C148.917 404.121 148.026 386.487 147.569 368.454C146.325 339.596 147.732 310.89 151.742 283.321C154.154 269.379 157.45 255.986 161.576 243.357C167.315 227.169 174.301 212.367 182.373 199.295C185.511 194.059 187.762 187.524 188.924 180.276C190.086 173.027 190.123 165.291 189.031 157.761C187.758 144.185 185.187 130.889 181.416 118.381C178.471 108.213 173.498 99.8759 167.393 94.8691C162.85 91.7411 158.068 89.8964 153.257 89.4156C146.012 88.5972 138.604 88.9262 131.277 88.6814C121.679 88.6968 112.037 86.108 102.732 81.0174L83.9303 69.88C78.8052 66.8015 73.2933 67.0463 68.5442 70.5633C64.7081 75.0966 61.8089 81.4412 60.1872 88.8517C58.5654 96.2622 58.2885 104.431 59.389 112.398C61.1831 128.205 65.5991 143.156 72.1318 155.541C75.5214 164.892 81.6522 172.221 86.4802 180.749C90.2067 188.224 93.2276 196.558 95.4287 205.436C98.9139 217.567 101.806 230.088 104.075 242.87C108.18 262.916 111.333 283.366 113.503 304.023C113.996 310.966 113.774 317.917 112.847 324.577C111.316 334.081 108.348 342.639 104.211 349.475C96.4868 360.788 88.161 370.947 79.3204 379.846C75.4469 384.023 72.0777 389.314 69.3577 395.492C67.893 398.381 67.0933 402.071 67.0874 405.967C67.0815 409.863 67.8698 413.738 69.3252 416.968C71.9019 422.422 74.9933 427.169 78.4663 431.004C84.3977 436.772 90.5669 441.773 96.9147 445.958C110.532 454.635 123.06 467.949 133.646 484.995L133.755 482.9L156.12 462.333Z" fill="white"/>
<path fill-rule="evenodd" clip-rule="evenodd" d="M401.367 144.537C400.791 145.147 400.133 145.533 399.438 145.667C398.743 145.801 398.028 145.68 397.344 145.312C396.66 144.945 396.022 144.339 395.475 143.539C394.928 142.738 394.486 141.761 394.178 140.675C392.019 134.874 390.425 128.589 389.461 122.071C388.9 120.262 388.265 118.512 387.563 116.834C386.207 113.094 385.937 108.355 385.015 104.215C384.093 100.075 382.034 88.0041 380.191 79.7243C377.675 69.8197 374.758 60.1704 371.461 50.8462L368.613 42.991C363.461 28.7769 358.173 14.1888 353.021 -0.0252778C350.852 -6.01015 348.547 -12.3691 346.378 -18.3539L339.599 -37.0567C336.987 -44.427 334.928 -52.2535 333.472 -60.3493C332.894 -63.8134 332.942 -67.4148 333.61 -70.6938C334.277 -73.9729 335.535 -76.7808 337.221 -78.7594C338.993 -80.079 340.952 -80.6861 342.947 -80.534C346.18 -79.6175 349.301 -77.5507 352.09 -74.4788C356.858 -68.6701 360.897 -61.3371 363.943 -52.9608C365.414 -49.3296 366.772 -45.5837 368.011 -41.7391L370.722 -34.2581C375.944 -21.2471 382.4 -9.64702 389.817 0.0509485C399.016 13.5552 409.502 24.3558 420.771 31.9329L434.824 41.9509C436.566 43.3096 438.23 44.9552 439.789 46.8614C444.102 52.3709 444.671 56.3365 442.037 64.2451C441.114 67.0646 439.806 69.4607 438.209 71.2564C430.372 83.939 423.132 97.5972 416.544 112.127C412.146 122.837 406.499 131.923 399.904 138.901L402.67 143.339L401.367 144.537ZM416.626 111.553C423.15 96.9352 430.394 83.2697 438.291 70.6827C439.975 68.6667 441.417 66.1597 442.553 63.272C443.253 61.8191 443.733 60.0994 443.958 58.242C444.184 56.3846 444.148 54.4379 443.853 52.5485C443.558 50.6591 443.013 48.8762 442.257 47.3339C441.502 45.7915 440.556 44.5299 439.491 43.644C437.94 41.4944 436.222 39.7138 434.391 38.3594L418.927 27.6439C408.742 20.7005 399.202 11.1094 390.686 -0.747793C383.478 -12.0643 377.366 -25.1475 372.596 -39.4723C369.749 -47.3274 367.715 -52.9382 365.817 -58.175C362.684 -66.8494 358.468 -74.3875 353.476 -80.2414C350.653 -83.6727 347.37 -85.8263 343.98 -86.471C341.781 -86.8712 339.6 -86.2476 337.684 -84.6711C335.774 -82.6117 334.356 -79.5453 333.637 -75.9221C332.918 -72.2989 332.937 -68.3096 333.69 -64.5398C334.965 -55.5877 337.118 -46.949 340.06 -38.9775C344.399 -27.0078 348.602 -15.4121 352.941 -3.44235C357.279 8.52739 365.279 30.5966 371.38 47.429C374.703 56.5711 377.578 66.1055 379.975 75.9331C382.957 88.1532 384.799 100.424 387.346 113.043C388.553 121.74 390.536 130.174 393.228 138.057C395.398 144.042 398.572 145.611 401.829 142.616L399.904 138.901C406.554 131.755 412.23 122.473 416.626 111.553Z" fill="white"/>
<path fill-rule="evenodd" clip-rule="evenodd" d="M125.365 265.682C122.284 257.573 119.901 248.845 118.289 239.771C115.578 232.29 114.902 222.438 113.493 213.758C112.084 205.079 111 198.096 109.428 190.564C105.672 173.767 100.006 158.135 92.7516 144.556C90.8922 140.122 89.2158 135.497 87.735 130.716C85.1589 123.609 85.6217 117.697 88.6616 114.901C89.6164 113.574 90.7197 112.56 91.9186 111.906C95.3858 112.496 98.8403 113.485 102.257 114.868C110.343 116.409 118.375 117.002 126.271 117.222L130.395 117.419C136.77 117.06 143.208 118.378 149.471 121.323C152.094 122.204 154.61 124.001 156.848 126.591C159.086 129.18 160.992 132.502 162.438 136.33C164.214 140.966 165.427 146.088 166.004 151.387C166.581 156.685 166.51 162.05 165.795 167.157C163.939 179.283 160.972 190.753 156.994 201.184C152.947 216.377 148.249 232.169 144.636 246.962C142.572 254.367 139.886 261.199 136.653 267.271L134.265 269.467L134.074 272.136C131.034 274.932 128.158 272.589 125.365 265.682ZM136.87 267.071C140.092 261.476 142.88 255.229 145.178 248.458L158.487 201.308C161.629 191.201 163.93 180.366 165.333 169.078C166.19 163.654 166.363 157.924 165.842 152.233C165.322 146.541 164.117 141.005 162.302 135.956C159.485 128.58 155.117 123.118 150.122 120.723C143.656 117.2 136.953 115.442 130.287 115.523C120.899 115.18 111.645 115.211 102.284 113.346C99.1857 112.574 96.0704 112.267 92.9768 112.429C91.5988 113.104 90.3414 114.26 89.2855 115.824C85.8113 119.019 85.267 125.504 88.0327 133.933C89.4874 138.736 91.1649 143.365 93.0493 147.773C100.247 161.239 105.868 176.745 109.59 193.408C112.924 209.793 114.901 226.428 118.451 242.614C120.152 251.793 122.578 260.634 125.663 268.899C128.646 277.128 132.308 279.246 135.783 276.051L134.265 269.467L136.87 267.071Z" fill="white"/>
<path fill-rule="evenodd" clip-rule="evenodd" d="M50.9571 287.225C45.257 288.452 39.3877 287.744 33.6995 285.141C25.0711 282.104 16.1441 279.84 7.35268 277.95L-7.86924 273.495C-10.7888 272.976 -13.6604 271.556 -16.3345 269.31C-18.6737 268.083 -20.8663 266.079 -22.7731 263.427C-24.68 260.775 -26.2595 257.531 -27.4117 253.902C-28.5639 250.273 -29.2636 246.337 -29.4664 242.344C-29.6692 238.351 -29.3708 234.388 -28.59 230.706C-27.9668 223.421 -26.7133 216.391 -24.8672 209.827L-10.8514 155.043L-9.54861 153.845C-8.17462 147.793 -6.17294 142.243 -3.62892 137.429L-1.02331 135.033C1.79944 132.437 4.62119 133.832 7.95775 138.245C13.1892 145.753 17.5478 154.792 20.7861 164.851C24.3113 174.576 27.9721 184.676 31.3617 194.027L33.9377 201.134C37.2028 212.07 41.0132 222.583 45.3267 232.555C46.1402 234.799 46.9537 237.043 47.7672 239.288C51.3445 246.752 54.3105 254.934 56.5802 263.601C57.3147 266.644 57.6918 269.855 57.6903 273.054C57.7427 275.551 57.4022 277.984 56.7024 280.114C56.0025 282.244 54.9673 283.998 53.6984 285.203L53.5628 284.829C52.8127 285.922 51.9264 286.737 50.9571 287.225ZM57.082 279.438C57.8833 277.046 58.2977 274.321 58.2877 271.507C58.1048 268.05 57.6401 264.618 56.9064 261.306C54.0419 250.214 50.2517 239.757 45.653 230.26C41.4274 220.199 37.6214 209.698 34.2639 198.839C29.9253 186.869 25.5866 174.9 20.7056 161.434C17.4233 151.252 13.0208 142.09 7.74162 134.454C6.43462 132.085 4.71736 130.452 2.86043 129.812C1.0035 129.172 -0.887544 129.561 -2.51473 130.919L-5.33747 133.514C-7.9413 138.636 -10.0375 144.43 -11.5558 150.704C-15.3062 173.105 -20.1952 191.566 -25.0303 210.974C-27.0034 217.658 -28.4019 224.816 -29.1874 232.253C-30.3407 239.738 -29.7211 247.86 -27.4512 255.01C-25.1813 262.16 -21.4268 267.816 -16.9318 270.857C-14.03 272.959 -10.9856 274.36 -7.89675 275.016C5.69715 278.973 19.5357 281.209 33.4548 286.863C39.3297 289.599 45.4027 290.3 51.2824 288.921L54.1051 286.326L53.6984 285.203C55.1178 283.811 56.2807 281.829 57.082 279.438Z" fill="white"/>
<path fill-rule="evenodd" clip-rule="evenodd" d="M265.875 40.7121C256.94 40.4955 247.982 38.3377 239.229 34.2939C230.23 29.6302 221.805 21.9066 214.514 11.6368C202.98 -4.78848 190.021 -18.1441 176.155 -27.8979C173.113 -30.1816 170.225 -33.0527 167.555 -36.4478C166.387 -37.555 165.403 -39.1512 164.71 -41.0635C164.017 -42.9757 163.641 -45.1309 163.623 -47.2953C163.683 -49.2502 164.059 -51.1072 164.713 -52.6735C165.368 -54.2398 166.275 -55.4583 167.343 -56.2023C172.158 -59.6633 177.476 -61.1364 182.865 -60.5024C192.348 -59.2044 201.758 -55.5874 210.785 -49.7699C223.676 -40.7998 236.788 -32.883 250.072 -26.0495L256.42 -22.9108C260.357 -21.4248 264.246 -19.5022 268.06 -17.1565C271.953 -15.0183 275.579 -11.5504 278.695 -6.98664C280.479 -4.25554 281.923 -0.97505 282.936 2.64496C283.95 6.26498 284.509 10.1448 284.578 14.0364C284.681 17.7212 284.338 21.3529 283.568 24.7166C282.798 28.0802 281.617 31.1075 280.096 33.6193L277.49 36.0155L277.761 36.7636C274.071 39.4869 270.019 40.833 265.875 40.7121ZM280.53 33.2199C283.774 27.5727 285.445 19.87 285.178 11.7973C284.91 3.72462 282.726 -4.06073 279.102 -9.85529C275.862 -14.6904 272.064 -18.3503 267.98 -20.5736C262.065 -24.1117 255.987 -26.5023 249.991 -29.4666C236.588 -36.0929 223.782 -44.2659 210.84 -52.813C201.767 -59.374 192.186 -63.3834 182.514 -64.6676C177.001 -65.6303 171.53 -64.2083 166.638 -60.5419C165.429 -59.6779 164.409 -58.2662 163.686 -56.4591C162.963 -54.6521 162.567 -52.5182 162.538 -50.2878C162.502 -47.8114 162.907 -45.3223 163.702 -43.1284C164.497 -40.9346 165.648 -39.1321 167.013 -37.944C169.648 -34.4612 172.543 -31.5826 175.612 -29.3941C189.43 -18.7838 202.273 -4.65925 213.646 12.4355C221.061 24.1112 229.848 33.07 239.364 38.6588C248.176 42.8659 257.226 44.9607 266.226 44.8773C270.565 45.0869 274.815 43.731 278.683 40.9035L277.49 36.0155L280.53 33.2199Z" fill="white"/>
</g>
</svg>
