<svg width="36" height="36" viewBox="0 0 36 36" fill="none" xmlns="http://www.w3.org/2000/svg">
<path d="M18 36C27.9142 36 36 27.9139 36 18C36 8.0858 27.9142 0 18 0C8.0858 0 0 8.08615 0 18C0 27.9139 8.08615 36 18 36Z" fill="#E7F8F2"/>
<path d="M18 8.97498C26.7986 8.97498 33.9306 16.1073 33.9306 24.9056C33.9306 25.4581 33.9023 26.0036 33.8478 26.5414C30.8058 32.1734 24.8501 36 18 36C11.1498 36 5.19445 32.1737 2.15245 26.5418C2.09753 26.004 2.06934 25.4581 2.06934 24.9057C2.06934 16.107 9.20198 8.97498 18 8.97498Z" fill="#0E7886"/>
<path d="M27.9533 12.4676C30.9157 14.8413 33.0121 18.2502 33.6924 22.1469C33.6443 22.0732 33.5953 21.9764 33.5459 21.8329C33.2348 21.9349 33.2248 21.9433 32.8574 22.0044L32.8412 22.0268C32.6951 22.235 32.8487 22.147 32.5918 22.3639C32.2862 22.6211 32.0871 22.9722 31.7455 23.1804C31.7042 23.5441 31.7757 23.6259 31.6841 24.0585C31.6484 24.218 31.4698 24.6467 31.2606 24.6142C31.1943 24.6018 30.9137 23.9075 30.8475 23.7156C30.7351 23.3889 30.6078 23.1479 30.5263 22.7721C30.4805 22.5718 30.4497 22.1879 30.4039 22.0531C30.1847 22.0856 30.1944 22.2249 29.9853 22.0778C29.8375 21.9713 29.904 21.9063 29.8219 21.7468C29.6488 21.5835 29.4702 21.4202 29.2919 21.2568C29.1539 21.212 28.6236 21.2893 28.3988 21.2649C27.9961 21.2278 27.9607 21.2525 27.7211 20.93C27.2973 20.9508 27.3333 21.1096 26.9198 20.7543C26.6496 20.5257 26.7006 20.1581 26.308 20.3663C26.2931 20.7011 26.4561 20.7751 26.6039 20.93C26.7107 21.0486 26.8435 21.1301 26.8994 21.2892C26.9046 21.2938 26.9302 21.4444 26.9354 21.4649C27.318 21.4896 27.4096 21.3061 27.6187 21.1509C27.823 21.3425 27.6239 21.3756 27.9198 21.5263C28.1543 21.6451 28.1085 21.5756 28.2611 21.7672C28.3378 22.0244 27.7363 22.723 27.5369 22.8496C27.384 22.9477 27.3028 22.8906 27.1647 23.0042C26.9608 23.1764 27.1904 23.1517 26.8335 23.2823C26.4509 23.4213 26.0732 23.7152 25.6705 23.7399C25.5838 23.5025 25.4971 23.2622 25.4104 23.0212C25.1551 22.2002 25.1655 22.5188 24.905 22.094C24.7826 21.9098 24.8336 21.7916 24.7521 21.6283C24.6956 21.5059 24.6095 21.4526 24.5326 21.3019C24.4154 21.069 24.278 20.7057 24.0074 20.7424C23.9512 20.9259 24.2572 21.5468 24.3335 21.6978C24.4101 21.8491 24.5325 21.9144 24.5682 22.131C24.6192 22.4287 24.5582 22.3918 24.7212 22.5918C25.0632 23.0039 24.7059 22.9308 25.2366 23.3349C25.634 23.6376 25.5324 23.7271 25.7006 24.1318C25.9608 24.2048 26.736 23.8583 26.8681 23.9603C27.0262 24.2418 26.6849 24.691 26.5982 24.9362C26.3124 25.7571 25.8126 25.7451 25.4301 26.3738C25.2212 26.7132 25.1241 26.758 24.9303 27.1665C24.7108 27.628 25.3739 28.9063 24.9764 29.4418C24.8897 29.5639 24.6091 29.6376 24.2574 30.0095C23.8849 30.4135 24.2674 30.3443 24.1246 31.0178C24.0126 31.1731 23.8748 31.1812 23.7371 31.2919C23.6862 31.4507 23.7271 31.577 23.64 31.7735C23.5481 32.0103 23.5332 31.8837 23.4001 32.0759C23.3033 32.2266 23.3137 32.288 23.2013 32.427C23.1045 32.5539 23.0532 32.59 22.962 32.6721C22.518 33.0807 21.5642 33.0927 21.4827 33.0355C21.258 32.8439 21.4113 32.7948 21.3554 32.5253C21.3008 32.2882 21.1752 32.0898 21.0703 31.907L21.0596 31.8882C21.0089 31.7985 20.9628 31.7124 20.9372 31.6306C20.7534 31.0506 20.82 30.6102 20.4988 30.0218C20.0957 29.2618 20.7229 28.866 20.6972 28.4369C20.6871 28.3226 20.6465 28.2531 20.6358 28.1631C20.5595 27.6893 20.514 27.2648 20.1977 26.893C19.8506 26.489 19.8966 26.6316 20.0087 25.9662C20.1513 25.2024 19.8252 25.3982 19.366 25.378C19.1412 24.684 18.7025 25.0224 18.2641 25.227C17.9884 25.3533 17.8867 25.1903 17.5753 25.2351C16.8816 25.3289 17.4275 25.6273 16.499 24.8921C16.1113 24.5856 16.3714 24.7408 16.1421 24.3569C16.0658 24.2179 15.831 24.0345 15.7235 23.8951C15.3718 23.4541 15.7901 23.0088 15.7287 22.5026C15.6215 21.5631 15.4685 22.3798 15.9941 21.2445C16.2698 20.6401 16.6878 20.6362 16.7953 20.3663C16.8872 20.1257 16.8258 19.9539 16.9992 19.7334C17.1522 19.5538 17.3718 19.5905 17.4585 19.3086C17.5809 18.9615 17.3461 18.917 17.0911 18.9082C16.9843 18.5448 16.9843 18.6344 17.0655 18.2996C17.1116 18.1116 17.0707 18.0216 17.1116 17.8339C17.2136 17.3643 18.0144 17.83 18.2441 17.6377C18.3509 17.4377 18.3665 17.2419 18.2441 17.0496C18.1161 16.8576 17.9482 16.882 17.8615 16.6985C18.0553 16.5679 17.9125 16.6822 18.0807 16.6453C18.2795 16.6005 18.2538 16.543 18.4886 16.4984C18.6981 16.4572 18.8309 16.2656 19.0345 16.1351C19.3252 15.9471 19.1874 15.7791 19.5395 15.7226C20.1056 15.6243 19.7383 15.6408 19.7999 15.1137C19.8863 15.0812 19.9678 15.0439 20.0493 15.0075C20.2279 15.2404 20.0036 15.1465 20.2176 15.3014C20.2738 15.269 20.34 15.2365 20.4014 15.204C20.3705 14.9504 20.2536 14.9994 20.1769 14.6854C19.8963 14.7302 19.7944 14.9669 19.57 14.8812C19.3508 14.7997 19.3404 14.485 19.3508 14.2236C19.4323 14.0277 19.8401 13.9216 19.998 13.8722C20.2536 13.7865 20.2175 13.615 20.452 13.3818C20.7582 13.0756 20.5335 13.3861 20.6816 12.9902C21.0184 12.9775 20.8602 12.9655 21.0589 12.8636L21.069 12.8597L21.0895 12.8513C21.207 12.798 21.36 12.786 21.513 12.7331C22.0738 12.5453 22.3034 12.6392 22.7113 12.8061C23.0276 12.937 23.9814 12.9409 24.0529 13.3416C23.8236 13.582 23.6043 13.4066 23.2725 13.4273C23.3335 13.7375 23.3589 13.7375 23.6398 13.8232C23.6859 13.6761 23.6193 13.7335 23.6959 13.6394C23.7878 13.6599 23.8797 13.6761 23.9714 13.693C24.0636 13.3783 24.1704 13.4234 24.4819 13.3864C24.4306 13.1698 24.3744 13.2312 24.4917 13.0597C24.8135 13.0929 24.5531 13.0643 24.7112 13.3215C24.9356 13.2926 25.1551 13.0435 25.4659 13.011C25.6598 12.9906 25.6497 13.0642 25.9248 13.0353C26.1492 13.011 26.1388 12.9292 26.3639 13.0233C26.4451 12.872 26.3639 12.8759 26.5627 12.8395C26.8682 12.7863 27.1339 12.974 27.4295 13.0152C27.2106 12.746 27.0011 12.7986 27.2716 12.3495C27.6133 12.28 27.6438 12.3291 27.7919 12.5866C27.8757 12.5395 27.9114 12.4921 27.9529 12.4681L27.9533 12.4676ZM10.7973 34.4997C10.2667 34.2678 9.74968 34.011 9.24729 33.731C9.24111 33.7102 9.23562 33.6875 9.2307 33.6612C9.15441 33.2075 9.34826 33.1584 9.1336 32.4027C8.99297 31.9029 9.0495 30.7189 8.90072 30.1119C8.87703 30.0151 8.84778 29.9329 8.81241 29.8703C8.67474 29.642 8.33794 29.5358 8.06808 29.3516C8.05247 29.348 8.04242 29.3435 8.03757 29.3354C7.66505 29.074 7.31307 28.0487 7.01719 27.6652C6.8798 27.481 6.79311 27.5625 6.73172 27.2729C6.66549 27.0076 6.76744 27.0527 6.85449 26.8316C6.40048 25.9986 7.44097 26.0106 7.22701 25.01C7.18088 24.8262 7.04869 24.569 6.93633 24.4878C6.72202 24.5816 6.82362 24.6342 6.71162 24.8142C6.53851 24.7161 6.36512 24.6177 6.19686 24.5203C5.67141 24.0137 5.95168 24.381 5.80423 24.0504C5.4879 23.356 5.18654 23.7444 4.80917 23.4012C4.64063 23.2579 4.61012 23.0332 4.32985 23.0745C3.90636 23.1317 4.14085 23.1969 3.70245 22.9923C3.32994 22.8166 2.94252 22.6127 2.68208 22.3756C2.67202 22.008 2.80484 21.9914 2.5752 21.6488C2.53463 21.5851 2.48879 21.526 2.44238 21.4695C3.16006 18.204 4.87871 15.3143 7.26111 13.1385C7.44624 13.2031 7.69107 13.1606 7.87487 13.1531C7.94082 13.0307 7.98174 12.9242 8.0993 12.8793C8.14508 12.8631 8.20126 12.8592 8.27761 12.8631C8.28767 12.9238 8.30328 12.9855 8.31854 13.0466C8.31854 13.0512 8.32894 13.0917 8.32374 13.0837C8.32894 13.0752 8.33379 13.108 8.33865 13.12C8.66047 12.9323 8.38997 12.928 8.56308 12.589C8.29287 12.5358 8.32859 12.5682 8.16005 12.3968C8.32374 12.2172 8.63937 12.1558 8.87422 12.1723C8.85861 12.336 8.78232 12.3318 8.84398 12.4705C9.0275 12.3561 9.15511 12.0502 9.45064 12.1071C9.50682 12.1477 9.5734 12.1847 9.63443 12.2214C9.48115 12.3643 9.25186 12.3727 9.05309 12.4543C8.96604 13.3409 9.33371 12.5975 9.21094 13.2061C9.43018 13.1898 9.64449 13.0304 9.72598 12.867C9.64449 12.7608 9.52693 12.7608 9.46097 12.6341C9.5123 12.4708 9.62206 12.3471 9.77731 12.2734C9.88222 12.2237 10.0076 12.1971 10.1498 12.1971C11.7717 12.2095 11.0013 12.2828 11.5014 12.5118C11.6134 12.5605 11.8122 12.5855 11.8788 12.6833C11.9808 12.8385 11.884 12.9853 12.0471 13.108C12.1899 13.2142 12.2104 13.1038 12.3991 13.3412C12.3586 13.4756 12.2614 13.6146 12.0627 13.6189C11.7873 13.6227 11.9503 13.4347 11.6544 13.4636C11.66 13.7409 11.9351 13.8475 11.6798 13.9985C11.4553 14.1336 11.5979 13.9498 11.43 14.0436C11.4248 14.0478 11.4095 14.056 11.4047 14.0602C11.3946 14.0683 11.3842 14.0807 11.379 14.0888C11.3488 14.1215 11.3228 14.1502 11.2978 14.179C10.8899 14.0683 10.9666 14.1177 10.7214 13.8481C10.6298 13.7461 10.6145 13.7215 10.4512 13.7338C10.3492 13.7376 10.2167 13.7825 10.1196 13.6928C10.3186 13.4437 10.4157 13.6848 10.7064 13.5373C10.7574 13.5126 11.0786 13.2639 11.1299 13.2063C11.0432 13.0102 11.1195 13.1732 10.9925 13.0469C10.7067 12.7572 10.6246 12.8302 10.2378 12.8302C10.0562 13.0391 9.92046 13.2973 9.72275 13.4106C9.60322 13.4792 9.46133 13.4947 9.27359 13.4145C9.36029 13.7659 9.58472 13.4963 9.60483 13.9208C9.45704 13.8922 9.3804 13.8185 9.22747 13.8718C8.90079 13.9942 9.19175 13.9819 9.21706 14.0475C9.21706 14.0517 9.36999 14.068 9.21706 14.1251C9.04852 14.1862 9.1914 14.0924 8.86536 13.9004C8.91113 13.8189 8.95725 13.7331 9.00303 13.6474C8.73802 13.7293 8.40615 13.8598 8.09537 14.0108C7.74303 14.1865 7.41172 14.3869 7.21266 14.5703C7.20746 14.8769 7.26364 14.6723 7.29451 15.0364C7.76862 15.0646 7.61569 15.2072 8.09016 15.3423C8.18143 15.3673 8.29927 15.3917 8.44222 15.416C8.44222 15.6449 8.23796 15.8164 8.38048 16.0535C8.71208 16.2857 8.72213 15.8327 8.80397 15.543C9.92665 15.3085 9.3856 14.9786 9.67564 14.3609C9.71916 14.2686 9.78083 14.1703 9.86984 14.064C9.95625 14.0682 10.3082 14.1053 10.3849 14.1212C10.6401 14.166 10.5024 14.2274 10.7779 14.3498C10.7727 14.5707 10.6606 14.8564 10.987 14.8035C11.237 14.759 11.1812 14.5625 11.4867 14.5135C11.6241 14.8363 11.5887 14.9753 11.6498 15.363C12.3844 15.6491 12.0577 15.8817 11.9148 16.4172C12.0071 16.462 12.1035 16.5029 12.2006 16.5436C12.1958 16.6988 12.1902 16.8501 12.1854 17.0015C12.1701 17.0015 11.3995 16.8336 11.3488 16.8177C11.466 16.4825 11.6804 16.4786 11.8181 16.1357C11.5426 16.1844 11.5628 16.2701 11.3641 16.3315C11.1857 16.3847 11.0481 16.3478 10.8593 16.3724C10.7931 16.5927 10.8541 16.1802 10.875 16.4617C10.885 16.5683 10.9363 16.4663 10.8646 16.5803C10.6093 16.4617 10.6963 16.1841 10.2218 16.4413C10.329 16.4903 10.4359 16.5351 10.5482 16.5803C10.5333 16.8943 10.5076 16.6576 10.4413 16.8661C10.278 17.401 10.8849 17.0701 11.0431 17.0418C11.0022 17.3237 10.8288 17.3237 10.5839 17.401C10.3141 17.4828 10.2322 17.5932 10.0178 17.6423C10.0178 17.3071 9.96715 17.5891 10.1146 17.3565C9.90029 17.3766 9.74208 17.4747 9.53818 17.5607L9.51807 17.5685C9.25601 17.6754 9.21636 17.6913 9.18619 18.0261C8.96175 18.0953 8.70167 18.1736 8.54347 18.3369C8.38561 18.4879 8.22713 18.6386 8.07385 18.7857C8.05894 18.7981 8.04819 18.8104 8.03876 18.8185C8.09494 19.2391 8.03876 19.2472 7.78318 19.4112C7.56915 19.5496 7.49771 19.5456 7.29894 19.7214C6.66141 20.2933 6.96769 20.0273 7.00278 21.0119C6.87031 20.9714 6.74297 20.9262 6.62056 20.8814C6.52346 20.2276 6.65593 20.4446 6.13083 20.2932C5.56447 20.1299 5.64076 20.4075 5.40633 20.4565C5.14618 20.5134 5.01856 20.2195 4.64119 20.4646C4.43237 20.6072 4.23331 20.7014 4.18234 20.9544C4.1213 21.2609 3.98356 21.485 4.00374 21.8244C4.03981 22.7438 4.87604 22.7964 5.09035 22.3677C5.23294 22.0819 5.19751 21.9267 5.66157 22.0001C5.70734 22.2453 5.6359 22.4249 5.57452 22.613C5.53395 22.7231 5.42159 22.9231 5.47777 23.0748C5.80937 23.2096 5.81942 22.9559 6.25817 23.2174C6.28904 23.6541 6.0594 24.1442 6.39584 24.3976C6.65565 24.5895 6.67126 24.418 6.90055 24.3774C7.15578 24.3327 7.11001 24.4918 7.34478 24.5288C7.47725 24.3651 7.42107 24.4677 7.50811 24.267C7.66104 23.9205 7.70168 24.0835 8.06408 23.8714C8.09944 23.8509 8.13003 23.8301 8.16603 23.8058C8.2066 23.8915 8.25272 23.9734 8.29301 24.0549C8.55837 23.7406 8.58889 24.0468 8.8951 24.1326C9.02693 24.1686 9.12045 24.1816 9.19287 24.1825C9.41534 24.1858 9.43805 24.0776 9.74173 24.1851C9.7778 24.202 9.82358 24.214 9.8645 24.2264C9.86935 24.2264 9.88461 24.2345 9.88461 24.243C9.89016 24.2472 9.90507 24.2593 9.91027 24.2638C9.96125 24.3206 9.9668 24.3782 10.0074 24.4392C10.2165 24.6392 10.4257 24.8396 10.6296 25.0354C11.0323 25.1949 11.0323 24.8964 11.4915 25.3414C11.6854 25.5252 11.5984 25.5216 11.7056 25.758C11.7212 25.7951 11.7517 25.8314 11.7718 25.8766C11.8127 25.987 11.8585 26.0929 11.9046 26.199C12.1134 26.4728 12.3992 26.3013 12.6899 26.5832C12.8581 26.7466 12.7308 26.6975 13.1029 26.7628C13.6794 26.8567 13.4553 26.8037 13.8938 27.1346C14.062 27.257 14.1026 27.1876 14.2607 27.2937C14.4802 27.5999 14.424 27.9309 14.2406 28.2005C13.6742 29.0254 13.8681 28.8906 13.8424 29.5443C13.822 29.9197 13.7148 30.6959 13.3628 30.7897C12.0829 31.1496 12.8273 31.3986 12.4908 32.0316C12.3941 32.2115 12.3223 32.2563 12.2612 32.3995C12.0066 32.9954 12.1849 33.1958 11.4299 33.061C11.5017 33.1874 11.4555 33.1016 11.527 33.2159C11.7514 33.5631 11.7871 33.8248 11.3279 33.9099C10.9453 33.9836 11.1087 33.9099 11.073 34.3347C10.9249 34.3961 10.8586 34.3347 10.7618 34.4328L10.7979 34.5L10.7973 34.4997ZM7.43576 12.9823C7.53448 12.9693 7.53413 12.9264 7.79267 12.8637C7.77221 12.778 7.7566 12.778 7.73649 12.7455L7.7284 12.7293C7.63004 12.8124 7.53223 12.8972 7.43576 12.9826V12.9823ZM21.0694 17.7186L21.0594 17.7114C21.0236 17.6871 20.9882 17.6627 20.9577 17.6341C20.7333 17.4337 20.6869 17.2545 20.4375 17.2993C20.4319 17.4873 20.4579 17.4951 20.5495 17.6179C20.8963 18.0508 20.7892 17.904 21.0593 18.0631L21.0694 18.0689C21.1333 18.1056 21.2074 18.157 21.309 18.2307C20.9622 18.5362 21.2837 18.5691 21.0694 18.6714L21.0593 18.6762C21.0385 18.684 21.0187 18.6925 21.0035 18.7006C20.9317 18.5206 21.0899 18.6067 20.9064 18.3453C20.8044 18.2105 20.7076 18.1696 20.5495 18.0955C20.1513 17.9078 20.2026 17.761 19.9578 17.5158C19.6821 17.5242 19.7437 17.6099 19.5499 17.708C19.3154 17.822 19.3511 17.6879 19.0754 17.7119C18.851 18.1085 19.1722 17.7775 18.7643 18.1042C18.2746 18.4838 18.6776 18.88 17.8924 18.9989C17.8362 19.007 17.8157 18.9989 17.7599 19.019C17.6115 19.072 17.6982 19.0271 17.6115 19.1129C17.678 19.2684 17.5861 19.2434 17.8514 19.2804C18.336 19.3454 18.3973 19.0476 18.7494 18.9739C18.9225 18.9372 20.0091 18.892 20.0855 18.9125C20.32 19.1743 20.1264 19.3581 20.1264 19.5783C20.382 19.7131 20.7437 19.7458 20.8918 19.8848C21.0601 20.044 20.9785 20.0193 21.0601 20.0479L21.0701 20.0511C21.101 20.0599 21.1455 20.0758 21.2234 20.1053C21.4274 20.1745 21.417 20.2154 21.6361 20.2317C21.8352 19.5659 21.6309 19.6354 22.5899 19.9414C23.5896 20.2687 23.1407 19.9703 23.5642 20.0151C23.7736 20.0359 23.7175 20.1008 24.0081 20.0641C24.064 19.9497 24.477 18.9121 23.9415 19.0431C23.7834 19.0836 23.8909 19.1408 23.6661 19.0836C23.4316 19.0229 23.6561 18.9777 23.3963 19.0142C23.1407 19.0512 22.8351 19.2759 22.636 18.504C22.5597 18.226 22.4217 17.9853 22.1057 18.4055C22.1872 18.5484 22.2434 18.5608 22.335 18.6998C22.3097 18.7404 22.223 18.8427 22.1924 18.8755C22.0193 19.047 22.2642 18.9654 21.9833 19.0019C21.8303 18.8875 21.8611 18.7404 21.7131 18.5365C21.4529 18.1561 21.6212 18.3322 21.4886 17.9685C21.3844 17.8769 21.2113 17.8084 21.07 17.7184H21.0694V17.7186ZM26.5169 28.7145C26.2928 28.8288 26.2619 29.0906 26.0937 29.2373C25.9102 29.4049 25.665 29.3276 25.594 29.6377C25.5021 30.0255 25.7469 29.9073 25.4767 30.4136C25.38 30.6013 25.3748 31.0708 25.5229 31.2102C25.9662 31.6385 26.2062 30.5568 26.3081 30.2177C26.3848 29.9768 26.4562 29.7033 26.5377 29.4783C26.6192 29.2374 26.7365 29.0253 26.5169 28.7145ZM25.7826 17.3191C25.8183 17.8179 26.1138 18.0095 26.3233 18.2381C26.298 18.4752 26.2415 18.4138 26.2467 18.7444C26.4967 18.9246 26.6799 19.0345 27.007 18.9451C27.0527 18.5447 26.9251 18.5648 26.803 18.2913C26.8234 18.2586 26.8793 18.2179 26.8894 18.2099C26.9816 18.0874 26.9355 18.2586 26.9816 18.0504C26.7419 17.9731 26.3542 17.7276 26.324 17.4054C26.4412 17.3115 26.4055 17.3684 26.4919 17.3115C26.6806 17.1888 26.538 17.3765 26.6501 17.1683C26.5533 16.9806 26.4461 16.9478 26.2117 17.0417C26.1097 17.0826 25.8391 17.2746 25.783 17.3193L25.7826 17.3191ZM23.6964 17.45C23.5385 17.2298 23.5483 17.119 23.2424 17.1109C23.1202 17.2418 22.9774 17.4376 22.9111 17.6377C22.8092 17.9401 22.8806 17.7316 22.8907 18.0586C22.8855 18.0706 22.8907 18.0875 22.8907 18.0995C22.8855 18.2954 22.8393 18.0625 22.8702 18.2424C23.1102 18.193 22.9267 18.1973 23.1053 18.1401C23.2736 18.0829 23.7886 17.9277 23.9367 17.9647C24.2884 18.0462 24.5843 18.3242 24.9824 18.0462C24.9616 17.6909 24.5332 17.5562 24.2374 17.4006C24.253 17.0742 24.3394 17.3314 24.3189 17.0168C24.217 17.0126 24.1556 16.9963 24.0588 17.0372C23.8292 17.1392 23.9568 17.1681 23.9568 17.2048C23.9669 17.3802 24.1864 17.1681 23.952 17.3847C23.8857 17.4415 23.7782 17.4415 23.6967 17.45H23.6964ZM17.7387 14.975C17.7289 15.5469 17.9277 15.3546 18.1161 15.6368C18.0297 15.8778 18.0141 15.6901 17.9177 15.9388C17.831 16.1473 17.9378 15.9596 17.8816 16.3227C18.0297 16.3311 18.2489 16.2782 18.4428 16.2616C18.7185 16.237 18.713 16.2126 18.8101 15.9307C18.6571 15.7429 18.5041 15.5549 18.346 15.3672C18.1466 15.0645 18.346 15.273 18.285 15.0197C18.2392 14.9298 18.1979 14.8404 18.1574 14.7501C17.892 14.8405 17.9177 14.8159 17.7387 14.975Z" fill="#15BDB1"/>
<path d="M27.8201 13.9629L27.6659 13.8086L27.03 13.1727L26.8757 13.0184C26.3739 13.2088 25.7458 14.0314 25.498 14.5503L25.575 14.6276L26.2109 15.2635L26.2882 15.3408C26.8072 15.0926 27.6298 14.4649 27.8201 13.9631V13.9629Z" fill="#FBB429"/>
<path d="M27.8196 13.9629L27.6653 13.8086L27.0294 13.1727L26.8751 13.0184C26.7592 13.0626 26.6371 13.1402 26.5137 13.2399L27.598 14.3243C27.6977 14.2012 27.7754 14.0787 27.8195 13.9632V13.9629H27.8196Z" fill="white"/>
<path d="M28.8846 16.9868L28.7303 16.8325L28.0944 16.1966L27.9401 16.0424C27.4384 16.2327 26.8103 17.0553 26.5625 17.5743L26.6398 17.6515L27.2757 18.2874L27.353 18.3647C27.8719 18.1166 28.6945 17.4888 28.8849 16.9868H28.8846Z" fill="#FBB429"/>
<path d="M28.885 16.9867L28.7308 16.8328L28.0948 16.1966L27.9406 16.0427C27.8246 16.0866 27.7025 16.1642 27.5791 16.2642L28.6635 17.3486C28.7632 17.2254 28.8411 17.103 28.8849 16.9871V16.9867H28.885Z" fill="white"/>
<path d="M20.2031 6.34644L20.3574 6.5007L20.9933 7.13661L21.1475 7.29087C20.9572 7.79262 20.1346 8.42072 19.6156 8.66879L19.5384 8.59151L18.9025 7.95561L18.8252 7.87833C19.0733 7.35971 19.7011 6.53677 20.2028 6.34644H20.2031Z" fill="#FBB429"/>
<path d="M20.2033 6.34644L20.3575 6.5007L20.9934 7.13661L21.1477 7.29087C21.1038 7.40682 21.0263 7.52923 20.9262 7.65235L19.8418 6.56792C19.9649 6.46787 20.0873 6.39031 20.2033 6.34644Z" fill="white"/>
<path d="M17.1797 5.2819L17.334 5.43616L17.9699 6.07207L18.1241 6.22633C17.9338 6.72808 17.1112 7.35618 16.5922 7.60396L16.5149 7.52669L15.879 6.89079L15.8018 6.81351C16.0499 6.29489 16.6776 5.47195 17.1794 5.28162L17.1797 5.2819Z" fill="#FBB429"/>
<path d="M17.1798 5.28174L17.334 5.436L17.9702 6.07191L18.1241 6.22618C18.0803 6.34212 18.0027 6.46453 17.903 6.58765L16.8184 5.50322C16.9414 5.40317 17.0638 5.32554 17.1798 5.28174Z" fill="white"/>
<path d="M14.9211 19.6172L16.7868 22.2698L17.3818 21.5504L16.326 18.7611C16.4585 18.6468 16.2094 18.8734 16.7543 18.3831C17.2993 17.8927 19.6937 15.6915 21.8625 13.9284L28.1085 22.7579L28.6781 22.1883L25.2256 11.1832C26.6368 10.02 27.7286 9.09212 28.0228 8.75595C28.922 7.72841 29.7355 6.35794 29.0935 5.07355C27.8087 4.43117 26.4386 5.24504 25.4111 6.14391C25.0746 6.43817 24.1471 7.52998 22.9838 8.94102L11.9788 5.48867L11.4092 6.05827L20.2384 12.3043C18.4756 14.4734 16.2741 16.8675 15.784 17.4125C15.2933 17.9574 15.5203 17.7084 15.406 17.8408L12.6167 16.785L11.8973 17.38L14.5499 19.2457C14.2618 19.7413 14.4259 19.9053 14.9214 19.6173H14.9211V19.6172Z" fill="white"/>
<path d="M14.9209 19.6174L16.7866 22.27L16.9302 22.0966L15.1216 19.4791L14.9212 19.6175H14.9209V19.6174Z" fill="#C8CACC"/>
<path d="M12.0699 17.2366L11.8965 17.3802L14.5491 19.2459L14.6875 19.0455L12.0696 17.2366H12.0699Z" fill="#C8CACC"/>
<path d="M21.8623 13.9283L28.1084 22.7578L28.3279 22.5379L22.2312 13.6272L21.8623 13.9283Z" fill="#C8CACC"/>
<path d="M11.6277 5.8385L11.4082 6.05837L20.2374 12.3044L20.5385 11.9355L11.6274 5.83885L11.6277 5.8385Z" fill="#C8CACC"/>
<path d="M28.556 5.60996C28.4297 5.48361 28.2767 5.39466 28.1069 5.34172L28.0039 5.62915C28.1111 5.69314 28.2118 5.77104 28.3037 5.86266C28.3952 5.95456 28.4732 6.05525 28.5372 6.16212L28.8246 6.05919C28.7717 5.88966 28.6827 5.73673 28.5564 5.61003H28.556V5.60996ZM27.8773 5.29299C27.6152 5.26149 27.3278 5.30276 27.043 5.41217C27.2995 5.39072 27.5574 5.42806 27.7941 5.52453L27.8773 5.29299ZM28.6418 6.37215C28.7386 6.60889 28.7756 6.86645 28.7542 7.1233C28.8639 6.83846 28.9048 6.55109 28.8733 6.28897L28.6418 6.37215Z" fill="#0E7886"/>
<path d="M12.9977 21.3463L12.9999 21.3441L13.0376 21.3077L13.075 21.2716L13.1129 21.2349L13.1509 21.1982L13.1889 21.1615L13.2272 21.1245L13.2655 21.0874L13.3042 21.0504L13.3431 21.013L13.3818 20.9757L13.4208 20.938L13.4597 20.9L13.499 20.8621L13.5383 20.8237L13.5779 20.7854L13.6178 20.7471L13.6578 20.7084L13.6977 20.6698L13.738 20.6308L13.7783 20.5915L13.8189 20.5522L13.8594 20.5129L13.9 20.4732L13.9409 20.4333L13.9818 20.3934L14.0231 20.3531L14.0644 20.3128L14.1059 20.2722L14.1475 20.2313L14.1891 20.1904L13.9569 19.954L13.9153 19.9945L13.8741 20.0351L13.8328 20.0754L13.7915 20.116L13.7506 20.1559L13.71 20.1959L13.6694 20.2355L13.6289 20.2751L13.5886 20.3144L13.5483 20.3534L13.508 20.3923L13.4681 20.4313L13.4281 20.4699L13.3882 20.5086L13.3486 20.5469L13.309 20.5852L13.2697 20.6232L13.2304 20.6609L13.1915 20.6989L13.1525 20.7366L13.1136 20.7739L13.0749 20.8112L13.0362 20.8483L12.9979 20.8853L12.9596 20.922L12.9213 20.9587L12.8833 20.9954L12.8456 21.0318L12.8079 21.0685L12.7702 21.1046L12.768 21.1068L12.9979 21.3455L12.9977 21.3463ZM31.5653 21.2096L31.526 21.3122L31.4867 21.4135L31.4474 21.5132L31.4081 21.6113L31.3685 21.7081L31.3289 21.8032L31.2893 21.8971L31.2497 21.9893L31.21 22.0802L31.1701 22.1695L31.1305 22.2578L31.0906 22.3445L31.0506 22.4296L31.0107 22.5134L31.0087 22.5173L31.3065 22.6631L31.3094 22.6573L31.3504 22.5712L31.3913 22.4839L31.4319 22.3952L31.4728 22.3053L31.5134 22.214L31.5539 22.1212L31.5945 22.027L31.6348 21.9312L31.6751 21.8344L31.7156 21.7357L31.7556 21.6356L31.7959 21.5343L31.8358 21.4314L31.8757 21.3268L31.5659 21.2093L31.5653 21.2096ZM30.5466 23.3822L30.5261 23.416L30.4855 23.4828L30.445 23.5484L30.4044 23.613L30.3635 23.676L30.3225 23.7378L30.2816 23.7985L30.2407 23.8579L30.1998 23.9164L30.1589 23.9735L30.1179 24.0297L30.0767 24.0846L30.0357 24.1386L29.9945 24.1912L29.9532 24.2428L29.9116 24.2935L29.8704 24.3428L29.8291 24.3912L29.7878 24.4383L29.7463 24.4847L29.705 24.5298L29.6634 24.574L29.6219 24.6172L29.5803 24.6594L29.5732 24.6665L29.8053 24.9033L29.8154 24.8932L29.8599 24.8481L29.904 24.802L29.9482 24.7548L29.9924 24.7068L30.0362 24.6577L30.0801 24.6078L30.1236 24.5564L30.1672 24.5041L30.2107 24.4505L30.2542 24.3963L30.2974 24.3408L30.3405 24.2842L30.3837 24.2267L30.4266 24.1679L30.4695 24.1079L30.5124 24.0469L30.5549 23.9845L30.5978 23.9212L30.64 23.8565L30.6825 23.7909L30.7247 23.7241L30.7673 23.6559L30.8095 23.5864L30.8296 23.5523L30.5454 23.3815L30.5466 23.3822ZM28.8273 25.2626L28.8264 25.2632L28.7838 25.2889L28.7413 25.3139L28.6987 25.338L28.6562 25.3614L28.6133 25.3841L28.5708 25.4058L28.5279 25.4272L28.485 25.4477L28.4421 25.4675L28.3992 25.4867L28.356 25.5052L28.3129 25.5231L28.2697 25.5403L28.2265 25.5572L28.183 25.5731L28.1395 25.5887L28.096 25.6036L28.0524 25.6179L28.0086 25.6319L27.9647 25.6449L27.9205 25.6575L27.8766 25.6699L27.8325 25.6813L27.7883 25.6923L27.7438 25.7027L27.6993 25.7128L27.6548 25.7222L27.61 25.7313L27.5652 25.7397L27.5204 25.7478L27.4753 25.7556L27.4302 25.7628L27.385 25.7696L27.3395 25.7761L27.3369 25.7764L27.3791 26.1054L27.3847 26.1044L27.4334 26.0976L27.4818 26.0904L27.5299 26.0826L27.5782 26.0745L27.6266 26.0658L27.675 26.0567L27.7231 26.0469L27.7712 26.0365L27.8189 26.0258L27.867 26.0144L27.9151 26.0024L27.9632 25.9897L28.0113 25.9767L28.0587 25.9631L28.1064 25.9488L28.1538 25.9339L28.2012 25.9183L28.249 25.9021L28.2963 25.8852L28.3435 25.8677L28.3908 25.8495L28.438 25.8306L28.4851 25.8112L28.5322 25.7907L28.5793 25.7696L28.626 25.7479L28.6728 25.7254L28.7196 25.7024L28.7663 25.6783L28.8131 25.6537L28.8595 25.628L28.9059 25.6017L28.9523 25.5748L28.9984 25.5469L28.9994 25.5462L28.8263 25.2637L28.8273 25.2626ZM26.367 25.8318H26.3614L26.3137 25.8315L26.2656 25.8308L26.2175 25.8302L26.1691 25.8292L26.1207 25.8282L26.0724 25.827L26.0236 25.8257L25.9749 25.8241L25.9259 25.8225L25.8769 25.8209L25.8279 25.8192L25.7789 25.8173L25.7295 25.8153L25.6798 25.8137L25.6301 25.8117L25.5804 25.8097L25.5307 25.8075L25.481 25.8055L25.431 25.8036L25.381 25.8016L25.3306 25.7996L25.2803 25.7977L25.2299 25.7957L25.1793 25.7937L25.1286 25.7917L25.0776 25.7898L25.0266 25.7882L24.9756 25.7865L24.9243 25.7849L24.873 25.7833L24.8216 25.782L24.77 25.7808L24.7184 25.7798L24.7132 25.7794L24.7074 26.111H24.712L24.7626 26.112L24.8133 26.1133L24.864 26.1146L24.9144 26.1162L24.9651 26.1178L25.0158 26.1194L25.0661 26.121L25.1165 26.123L25.1668 26.125L25.2171 26.1269L25.2671 26.1289L25.3171 26.1309L25.3671 26.1328L25.4171 26.1348L25.4671 26.1368L25.5171 26.1387L25.5671 26.1407L25.6171 26.1427L25.6671 26.1446L25.7168 26.1466L25.7665 26.1486L25.8165 26.1506L25.8659 26.1522L25.9156 26.1538L25.9653 26.1554L26.015 26.1567L26.0647 26.1579L26.1144 26.1592L26.1638 26.1602L26.2131 26.1612L26.2625 26.1618L26.3118 26.1624L26.3612 26.1628H26.3668L26.368 25.8312L26.367 25.8318ZM23.7026 25.8023L23.6597 25.8055L23.6058 25.8101L23.5512 25.815L23.4973 25.8202L23.4427 25.8257L23.3882 25.8319L23.3336 25.8384L23.2791 25.8452L23.2241 25.8524L23.1692 25.8604L23.114 25.8689L23.0588 25.878L23.0036 25.887L22.9484 25.8971L22.8929 25.9075L22.8374 25.9182L22.7815 25.9296L22.7257 25.9416L22.6699 25.9542L22.6137 25.9675L22.5575 25.9815L22.501 25.9958L22.4448 26.0104L22.3883 26.026L22.3317 26.0423L22.2752 26.0591L22.2184 26.0767L22.1616 26.0949L22.1044 26.1137L22.0473 26.1335L22.0398 26.1361L22.1522 26.4483L22.1567 26.4466L22.2107 26.4281L22.2642 26.4106L22.3178 26.3934L22.3714 26.3768L22.425 26.3612L22.4785 26.3456L22.5318 26.331L22.585 26.3167L22.6382 26.3031L22.6915 26.2901L22.7444 26.2774L22.7973 26.2657L22.8503 26.2543L22.9029 26.2436L22.9555 26.2332L23.0084 26.2235L23.061 26.2144L23.1136 26.2053L23.1662 26.1969L23.2185 26.1891L23.2711 26.1816L23.3234 26.1745L23.3757 26.168L23.428 26.1618L23.48 26.156L23.532 26.1504L23.5843 26.1452L23.6359 26.1406L23.6879 26.1364L23.7307 26.1332L23.7047 25.8026L23.7026 25.8023ZM21.1078 26.5567L21.0636 26.5814L21.0049 26.6151L20.9461 26.6498L20.8873 26.6852L20.8282 26.7219L20.7694 26.7592L20.7103 26.7976L20.6515 26.8365L20.5923 26.8768L20.5332 26.9177L20.4738 26.9599L20.4144 27.0031L20.3553 27.0472L20.2958 27.092L20.2364 27.1382L20.177 27.1853L20.1172 27.2334L20.0575 27.2824L19.9977 27.3324L19.9377 27.3833L19.8776 27.4359L19.8179 27.4892L19.7578 27.5434L19.7429 27.5574L19.969 27.7999L19.9816 27.7886L20.0394 27.736L20.0972 27.6846L20.1547 27.6346L20.2122 27.5856L20.2694 27.5375L20.3269 27.4904L20.3837 27.4443L20.4409 27.3995L20.4977 27.3556L20.5545 27.3125L20.6113 27.2703L20.6679 27.2294L20.7244 27.1894L20.7809 27.1501L20.8371 27.1121L20.8933 27.0748L20.9495 27.0385L21.0056 27.0031L21.0615 26.9686L21.1173 26.9349L21.1728 26.9021L21.2284 26.87L21.2725 26.8453L21.1086 26.557L21.1078 26.5567ZM19.0365 28.2792L19.0307 28.2854L18.9697 28.3549L18.9103 28.4231L18.8508 28.4903L18.7914 28.5569L18.7323 28.6225L18.6732 28.6874L18.614 28.7514L18.5553 28.8144L18.4965 28.8768L18.438 28.9385L18.3796 28.9993L18.3212 29.0593L18.263 29.1184L18.2049 29.1769L18.1467 29.2344L18.0889 29.2912L18.0311 29.3474L17.9736 29.4026L17.9161 29.4571L17.9051 29.4672L18.1308 29.7098L18.1432 29.6984L18.2023 29.6426L18.2614 29.586L18.3205 29.5289L18.3797 29.4707L18.4391 29.4116L18.4985 29.3518L18.5579 29.2911L18.6177 29.23L18.6775 29.168L18.7375 29.1054L18.7973 29.0417L18.8573 28.9771L18.9174 28.9119L18.9778 28.8459L19.0382 28.779L19.0986 28.7112L19.1593 28.6426L19.2201 28.5735L19.2792 28.5059L19.285 28.4997L19.0369 28.2798L19.0365 28.2792ZM17.163 30.1086L17.1231 30.1401L17.0679 30.1833L17.0123 30.2258L16.9571 30.2677L16.9019 30.309L16.847 30.3495L16.7924 30.3891L16.7379 30.4281L16.6833 30.4664L16.6291 30.5041L16.5749 30.5412L16.5207 30.5775L16.4668 30.6132L16.4132 30.6483L16.3596 30.6824L16.306 30.7159L16.2528 30.749L16.1996 30.7811L16.1463 30.8126L16.0938 30.8435L16.0412 30.8737L15.9886 30.9033L15.9363 30.9325L15.8839 30.9608L15.832 30.9884L15.8069 31.0014L15.959 31.2963L15.9866 31.282L16.0412 31.2528L16.0957 31.2233L16.1503 31.193L16.2052 31.1619L16.2601 31.1304L16.315 31.0982L16.3702 31.0651L16.4254 31.0317L16.481 30.9976L16.5365 30.9625L16.5923 30.9271L16.6482 30.8907L16.704 30.8537L16.7602 30.816L16.8164 30.7777L16.8729 30.7387L16.9294 30.6991L16.9859 30.6585L17.0428 30.6172L17.0996 30.5753L17.1564 30.5328L17.2135 30.4896L17.2711 30.4455L17.3282 30.4007L17.3678 30.3692L17.1629 30.1084L17.163 30.1086ZM14.9183 31.3819L14.8747 31.3962L14.826 31.4118L14.7773 31.4267L14.7289 31.4414L14.6808 31.4554L14.6327 31.4686L14.585 31.4813L14.5372 31.4937L14.4899 31.5053L14.4427 31.5164L14.3956 31.5268L14.3485 31.5368L14.3018 31.5463L14.2554 31.5553L14.209 31.5638L14.1625 31.5719L14.1168 31.5793L14.071 31.5861L14.0252 31.5926L13.9797 31.5984L13.9346 31.604L13.8895 31.6088L13.8447 31.6134L13.7999 31.6173L13.7551 31.6205L13.7109 31.6235L13.6668 31.6257L13.6226 31.6277L13.5787 31.6293L13.5352 31.6303L13.492 31.6309H13.4489L13.4057 31.6306L13.3632 31.6299L13.3466 31.6293L13.3345 31.9605L13.355 31.9612L13.4014 31.9622L13.4478 31.9625H13.4946L13.5417 31.9619L13.5888 31.9606L13.6359 31.959L13.6833 31.957L13.7314 31.9541L13.7791 31.9508L13.8272 31.9473L13.8753 31.943L13.9237 31.9385L13.9724 31.9329L14.0212 31.9271L14.0702 31.9206L14.1189 31.9138L14.1682 31.9066L14.2176 31.8985L14.2673 31.8897L14.317 31.881L14.367 31.8712L14.417 31.8611L14.467 31.8504L14.5173 31.839L14.568 31.827L14.6187 31.8147L14.6694 31.8016L14.7204 31.788L14.7717 31.7737L14.8231 31.7588L14.8744 31.7436L14.926 31.7277L14.9776 31.7111L15.0211 31.6968L14.9188 31.3815L14.9183 31.3819ZM12.4059 31.4849L12.3897 31.4803L12.3517 31.4693L12.314 31.4576L12.2761 31.4456L12.2384 31.4332L12.2007 31.4202L12.1634 31.4072L12.1267 31.3939L12.0896 31.3799L12.0529 31.3656L12.0165 31.351L11.9802 31.3361L11.9441 31.3208L11.9084 31.3052L11.8727 31.2893L11.8373 31.2728L11.8022 31.2562L11.7671 31.2393L11.7321 31.2221L11.6976 31.2045L11.6635 31.1867L11.629 31.1682L11.5949 31.1497L11.5612 31.1306L11.5277 31.1114L11.4943 31.0919L11.4608 31.0718L11.428 31.0517L11.3952 31.0312L11.3627 31.0104L11.3302 30.9893L11.2981 30.9679L11.266 30.9464L11.2345 30.9244L11.203 30.9023L11.1715 30.8796L11.1403 30.8569L11.1094 30.8338L11.0789 30.8104L11.0484 30.787L11.0182 30.7633L11.0045 30.7522L10.7957 31.0098L10.8113 31.0224L10.8438 31.0481L10.8766 31.0734L10.9094 31.0984L10.9429 31.1235L10.9763 31.1482L11.0101 31.1722L11.0442 31.1963L11.0786 31.2199L11.1131 31.243L11.1478 31.2661L11.1829 31.2888L11.218 31.3112L11.2534 31.3336L11.2891 31.3554L11.3248 31.3768L11.3612 31.3979L11.3975 31.4187L11.4342 31.4392L11.4713 31.4593L11.5083 31.4791L11.5457 31.4986L11.5833 31.5177L11.621 31.5362L11.659 31.5547L11.6973 31.5729L11.7356 31.5904L11.7743 31.6077L11.8133 31.6245L11.8526 31.6411L11.8915 31.6574L11.9311 31.6733L11.971 31.6889L12.011 31.7038L12.0513 31.7187L12.0918 31.7329L12.1324 31.7469L12.1733 31.7602L12.2146 31.7732L12.2559 31.7859L12.2974 31.7983L12.3137 31.8028L12.4059 31.4843V31.4849ZM10.3249 30.0767L10.3113 30.0599L10.2872 30.03L10.2632 30.0001L10.2397 29.9699L10.2163 29.9393L10.1933 29.9088L10.1706 29.8783L10.1478 29.8474L10.1254 29.8163L10.1033 29.7851L10.0813 29.754L10.0598 29.7225L10.0384 29.691L10.0173 29.6592L9.99646 29.6273L9.97565 29.5952L9.95554 29.563L9.93543 29.5305L9.9156 29.4981L9.89613 29.4656L9.87665 29.4328L9.85745 29.4L9.83861 29.3669L9.82012 29.3342L9.80191 29.301L9.7837 29.2676L9.76584 29.2345L9.74833 29.201L9.73082 29.1675L9.71395 29.1338L9.69707 29.1003L9.68048 29.0666L9.66424 29.0325L9.64835 28.9984L9.63274 28.9643L9.61748 28.9301L9.60222 28.896L9.58731 28.8619L9.57269 28.8275L9.55842 28.7934L9.54442 28.7589L9.53043 28.7245L9.51904 28.6956L9.21023 28.8154L9.2226 28.8469L9.23723 28.8836L9.25213 28.9203L9.26739 28.957L9.283 28.9934L9.29861 29.0297L9.31485 29.0664L9.33145 29.1028L9.34832 29.1391L9.3652 29.1752L9.38242 29.2113L9.39993 29.2473L9.41779 29.2834L9.436 29.3191L9.45421 29.3548L9.4727 29.3902L9.4919 29.4256L9.5111 29.4607L9.53057 29.496L9.5504 29.5311L9.57051 29.5662L9.59097 29.6009L9.61143 29.6357L9.63253 29.6704L9.65362 29.7049L9.67471 29.739L9.69644 29.7734L9.71817 29.8075L9.74024 29.8416L9.76267 29.8754L9.78538 29.9088L9.80845 29.9423L9.83186 29.9758L9.85528 30.0089L9.87932 30.042L9.90337 30.0748L9.9277 30.1076L9.95238 30.1401L9.97706 30.1726L10.0021 30.2047L10.0274 30.2368L10.0531 30.269L10.0671 30.2858L10.3243 30.0767H10.3249ZM9.25649 27.7703C9.16066 27.2443 9.14512 26.7139 9.26071 26.1894L8.93692 26.118C8.81029 26.6775 8.8278 27.2686 8.93045 27.8301L9.25649 27.7701V27.7703ZM9.57508 25.2895C9.80015 24.8118 10.135 24.3522 10.4682 23.9447L10.2126 23.7336C9.86449 24.1542 9.51018 24.6501 9.27696 25.1447L9.57508 25.2895ZM11.1203 23.2081L11.1225 23.2059L11.1508 23.176L11.179 23.1461L11.2076 23.1162L11.2365 23.086L11.2654 23.0557L11.2943 23.0255L11.3235 22.9953L11.3531 22.9648L11.3826 22.9342L11.4121 22.9037L11.442 22.8732L11.4723 22.8423L11.5025 22.8115L11.533 22.7806L11.5635 22.7497L11.5944 22.7186L11.6255 22.6871L11.6567 22.6556L11.6878 22.6244L11.7193 22.5929L11.7508 22.5614L11.783 22.5296L11.8151 22.4977L11.8472 22.4659L11.8797 22.4338L11.9122 22.4016L11.945 22.3695L11.9778 22.337L12.0109 22.3045L12.044 22.272L12.0775 22.2393L12.111 22.2065L12.1447 22.1737L12.1785 22.1406L12.2126 22.1075L12.2467 22.0744L12.2811 22.0409L12.2834 22.039L12.0521 21.8012L12.0499 21.8035L12.0154 21.8369L11.981 21.8704L11.9469 21.9035L11.9128 21.937L11.879 21.9698L11.8453 22.0029L11.8118 22.0357L11.7783 22.0684L11.7452 22.1012L11.7121 22.1337L11.679 22.1662L11.6461 22.1986L11.6137 22.2308L11.5812 22.2633L11.549 22.2954L11.5169 22.3272L11.4848 22.3594L11.4533 22.3912L11.4218 22.4227L11.3903 22.4546L11.3591 22.4861L11.328 22.5176L11.2971 22.5491L11.2662 22.5802L11.2357 22.6114L11.2052 22.6425L11.1747 22.6737L11.1445 22.7045L11.1146 22.7354L11.0847 22.7663L11.0552 22.7971L11.0256 22.828L10.9964 22.8585L10.9675 22.8888L10.9382 22.9193L10.9093 22.9498L10.8808 22.98L10.8785 22.9826L11.1201 23.2097V23.2081H11.1203Z" fill="white"/>
</svg>
