<svg width="14" height="18" viewBox="0 0 14 18" fill="none" xmlns="http://www.w3.org/2000/svg">
<path d="M6.45713 0.850169C6.78039 0.736304 7.1368 0.736304 7.46835 0.850169L12.9306 2.6825C13.544 2.88439 13.9584 3.45048 13.9584 4.08037L13.9999 9.54667C14.0081 11.2022 13.403 12.8092 12.2924 14.0698C11.7868 14.6512 11.1319 15.1438 10.3031 15.588L7.3606 17.1627C7.26942 17.2111 7.16996 17.2354 7.07049 17.2354C6.97103 17.2354 6.86327 17.2111 6.7721 17.1627L3.80475 15.6283C2.96759 15.1923 2.31278 14.7077 1.79889 14.1344C0.671624 12.8907 0.0416841 11.2837 0.0333954 9.62824L0.000118572 4.16032C-0.008048 3.53043 0.406386 2.96595 1.01146 2.75518L6.45713 0.850169ZM5.87692 6.82523C5.63655 6.59104 5.24698 6.59104 4.99832 6.82523C4.75795 7.0683 4.75795 7.44785 4.99832 7.68204L6.11729 8.77143L4.99832 9.86243C4.75795 10.0966 4.75795 10.4842 4.99832 10.7184C5.12265 10.8396 5.28013 10.8953 5.43762 10.8953C5.60339 10.8953 5.76088 10.8396 5.87692 10.7184L6.99589 9.62824L8.11487 10.7184C8.2392 10.8396 8.39668 10.8953 8.55417 10.8953C8.71165 10.8953 8.87743 10.8396 8.99347 10.7184C9.23384 10.4842 9.23384 10.0966 8.99347 9.86243L7.87449 8.77143L8.99347 7.68204C9.23384 7.44785 9.23384 7.0683 8.99347 6.82523C8.75309 6.59104 8.35524 6.59104 8.11487 6.82523L6.99589 7.91623L5.87692 6.82523Z" fill="#FF4757"/>
</svg>
