<svg width="132" height="132" viewBox="0 0 132 132" fill="none" xmlns="http://www.w3.org/2000/svg">
<g clip-path="url(#clip0)">
<path d="M97.9439 124.41L79.8819 114.796C75.2839 112.354 72.7979 106.656 73.9199 101.068L81.9279 60.9401C83.2699 54.2301 89.2539 50.0721 95.1939 51.7441L112.508 56.5621C118.096 58.1241 121.638 64.2621 120.626 70.6201L113.388 115.566C112.068 123.464 104.434 127.864 97.9439 124.41Z" fill="#0EBE7E"/>
<path d="M116.313 60.0382C114.465 63.4482 113.893 67.2762 113.541 71.1042C113.123 75.6142 112.771 80.1462 112.331 84.6562C111.385 94.0062 110.219 103.356 108.833 112.662C108.811 112.772 108.987 112.816 108.987 112.706C110.307 103.818 111.451 94.9082 112.375 85.9542C112.837 81.5322 113.233 77.0882 113.585 72.6442C113.937 68.3542 114.399 63.9982 116.467 60.1482C116.511 60.0162 116.379 59.9282 116.313 60.0382Z" fill="white"/>
<path d="M30.5798 78.3421C31.3278 79.1341 136.928 130.438 136.928 130.438L130.812 146.454L-12.7822 146.96L0.967772 87.6261L30.5798 78.3421Z" fill="white" stroke="#202124" stroke-width="0.260574" stroke-miterlimit="10"/>
<path d="M29.1944 91.8282L10.3844 98.3842L4.40039 90.7722L21.9344 85.6022L29.1944 91.8282Z" fill="white" stroke="#202124" stroke-width="0.260574" stroke-miterlimit="10"/>
<path d="M32.8683 91.3442L13.3763 98.3622L7.19434 90.2002L25.3443 84.6782L32.8683 91.3442Z" fill="white" stroke="#202124" stroke-width="0.260574" stroke-miterlimit="10"/>
<path d="M31.9229 89.3862L13.1129 95.9202L7.12891 88.3082L24.6629 83.1382L31.9229 89.3862Z" fill="white" stroke="#202124" stroke-width="0.260574" stroke-miterlimit="10"/>
<path d="M11.7041 91.5861C12.1221 91.5861 12.1221 90.9261 11.7041 90.9261C11.2861 90.9261 11.2861 91.5861 11.7041 91.5861Z" fill="#2F878A"/>
<path d="M12.3199 88.3742C13.5079 90.0022 14.7399 91.5642 16.0159 93.1042C16.0819 93.1922 16.1919 93.0602 16.1259 92.9942C14.8499 91.4762 13.6179 89.9142 12.4519 88.2862C12.4079 88.2202 12.2539 88.2862 12.3199 88.3742Z" fill="#2F878A"/>
<path d="M15.4881 89.8923C16.1041 90.5743 16.7201 91.3003 17.3141 92.0043C17.3801 92.0923 17.4901 91.9603 17.4241 91.8943C16.8301 91.1683 16.2141 90.4643 15.5981 89.7823C15.5321 89.6943 15.4221 89.8043 15.4881 89.8923Z" fill="#2F878A"/>
<path d="M15.9946 87.3621C17.0946 88.8361 18.1506 90.3321 19.1626 91.8721C19.2286 91.9601 19.3606 91.8721 19.2946 91.7841C18.2826 90.2441 17.2266 88.7481 16.1266 87.2741C16.0606 87.2081 15.9286 87.2741 15.9946 87.3621Z" fill="#2F878A"/>
<path d="M18.4576 86.7243C19.5356 87.9563 20.5256 89.2762 21.4276 90.6402C21.4936 90.7282 21.6256 90.6402 21.5596 90.5522C20.6576 89.1662 19.6456 87.8463 18.5676 86.5923C18.5236 86.5263 18.3916 86.6363 18.4576 86.7243Z" fill="#2F878A"/>
<path d="M21.8026 85.6461C23.1226 87.0321 24.3546 88.4621 25.5206 89.9801C25.5866 90.0681 25.7186 89.9801 25.6526 89.8921C24.4866 88.3521 23.2546 86.9001 21.9126 85.5141C21.8466 85.4481 21.7366 85.5801 21.8026 85.6461Z" fill="#2F878A"/>
<path d="M45.7387 120.12L21.4727 126.17L16.7207 118.272L40.2607 112.398L45.7387 120.12Z" fill="#0EBE7E"/>
<path d="M25.4979 122.782L23.0559 123.134L20.5039 119.152L22.9459 118.8L25.4979 122.782Z" fill="white"/>
<path d="M16.7197 118.58C16.7197 118.932 16.7197 119.284 16.7197 119.614C16.7197 119.724 16.8957 119.724 16.8957 119.614C16.8957 119.262 16.8957 118.91 16.8957 118.58C16.8737 118.47 16.7197 118.47 16.7197 118.58Z" fill="#202124"/>
<path d="M16.8961 120.054C18.1501 122.276 19.4261 124.498 20.6801 126.72C20.7241 126.808 20.8781 126.72 20.8121 126.632C19.5581 124.41 18.2821 122.188 17.0281 119.966C16.9841 119.878 16.8301 119.944 16.8961 120.054Z" fill="#202124"/>
<path d="M17.7983 121.022C18.9643 122.914 20.0863 124.828 21.1203 126.764C21.1643 126.852 21.3183 126.764 21.2523 126.676C20.1963 124.718 19.0963 122.804 17.9303 120.934C17.8643 120.846 17.7323 120.934 17.7983 121.022Z" fill="#202124"/>
<path d="M22.1095 126.522C25.1675 125.84 28.2255 125.07 31.2395 124.234C31.3495 124.212 31.3055 124.036 31.1955 124.08C28.1595 124.938 25.1235 125.686 22.0655 126.368C21.9775 126.39 22.0215 126.544 22.1095 126.522Z" fill="#202124"/>
<path d="M30.1399 124.96C35.2219 123.816 40.2599 122.518 45.2539 121.066C45.3639 121.044 45.3199 120.868 45.2099 120.912C40.2159 122.364 35.1779 123.662 30.0959 124.806C29.9859 124.806 30.0299 124.982 30.1399 124.96Z" fill="#202124"/>
<path d="M22.4622 127.006C24.6622 126.434 26.8842 125.928 29.1282 125.51C29.2382 125.488 29.1942 125.334 29.0842 125.356C26.8402 125.774 24.6182 126.28 22.4182 126.852C22.3082 126.874 22.3522 127.028 22.4622 127.006Z" fill="#202124"/>
<path d="M34.1878 123.508C37.0918 122.848 39.9738 122.122 42.8338 121.352C42.9438 121.33 42.8998 121.176 42.7898 121.198C39.9078 121.968 37.0258 122.672 34.1438 123.354C34.0338 123.354 34.0778 123.53 34.1878 123.508Z" fill="#202124"/>
<path d="M45.1876 120.318C45.1436 120.714 45.0996 121.11 45.0556 121.506C45.0336 121.616 45.2096 121.616 45.2316 121.506C45.2756 121.11 45.3196 120.714 45.3636 120.318C45.3636 120.208 45.2096 120.208 45.1876 120.318Z" fill="#202124"/>
<path d="M28.5125 107.756C28.1825 107.932 27.4345 108.218 26.4665 108.174C25.5865 108.13 24.9265 107.8 24.5965 107.624C23.9805 104.632 23.3865 101.618 22.7705 98.6262H30.1625L28.5125 107.756Z" fill="#202124"/>
<path d="M26.4939 101.112C28.5351 101.112 30.1899 99.9204 30.1899 98.4502C30.1899 96.98 28.5351 95.7882 26.4939 95.7882C24.4526 95.7882 22.7979 96.98 22.7979 98.4502C22.7979 99.9204 24.4526 101.112 26.4939 101.112Z" fill="white" stroke="#202124" stroke-width="0.260574" stroke-miterlimit="10"/>
<path d="M26.5332 100.056C27.8455 100.056 28.9092 99.3076 28.9092 98.3842C28.9092 97.4607 27.8455 96.7122 26.5332 96.7122C25.221 96.7122 24.1572 97.4607 24.1572 98.3842C24.1572 99.3076 25.221 100.056 26.5332 100.056Z" fill="white" stroke="#202124" stroke-width="0.260574" stroke-miterlimit="10"/>
<path d="M83.8686 114.205C85.6555 112.861 86.4531 110.906 85.6499 109.838C84.8468 108.77 82.7471 108.993 80.9602 110.336C79.1732 111.679 78.3757 113.634 79.1788 114.703C79.9819 115.771 82.0816 115.548 83.8686 114.205Z" fill="white" stroke="#202124" stroke-width="0.260574" stroke-miterlimit="10"/>
<path d="M79.3981 114.796C79.7501 113.806 80.3442 112.948 81.1802 112.288C81.2682 112.222 81.1362 112.112 81.0702 112.178C80.2342 112.86 79.6182 113.74 79.2442 114.774C79.2002 114.862 79.3541 114.906 79.3981 114.796Z" fill="#202124"/>
<path d="M79.7935 111.848C81.2455 111.782 82.4995 112.618 82.9395 114.026C82.9615 114.136 83.1375 114.092 83.0935 113.982C82.6315 112.53 81.3335 111.606 79.7935 111.694C79.7055 111.694 79.7055 111.87 79.7935 111.848Z" fill="#202124"/>
<path d="M66.7477 117.612L43.8457 101.2L57.9697 91.982L80.4317 105.402L66.7477 117.612Z" fill="white" stroke="#202124" stroke-width="0.260574" stroke-miterlimit="10"/>
<path d="M65.5816 115.896L46.6836 102.322L57.8376 94.6219L76.5156 106.326L65.5816 115.896Z" fill="white" stroke="#202124" stroke-width="0.260574" stroke-miterlimit="10"/>
<path d="M56.5176 95.546L75.4376 107.272" stroke="#202124" stroke-width="0.260574" stroke-miterlimit="10"/>
<path d="M55.1104 96.514L74.2284 108.328" stroke="#202124" stroke-width="0.260574" stroke-miterlimit="10"/>
<path d="M53.6797 97.504L73.0837 109.318" stroke="#202124" stroke-width="0.260574" stroke-miterlimit="10"/>
<path d="M52.4033 98.362L71.7193 110.33" stroke="#202124" stroke-width="0.260574" stroke-miterlimit="10"/>
<path d="M50.9951 99.3521L70.5091 111.562" stroke="#202124" stroke-width="0.260574" stroke-miterlimit="10"/>
<path d="M49.4775 100.386L69.2995 112.64" stroke="#202124" stroke-width="0.260574" stroke-miterlimit="10"/>
<path d="M48.0039 101.398L67.8039 113.938" stroke="#202124" stroke-width="0.260574" stroke-miterlimit="10"/>
<path d="M75.1289 105.468L63.7109 114.554" stroke="#202124" stroke-width="0.260574" stroke-miterlimit="10"/>
<path d="M73.0834 104.346L62.1494 113.432" stroke="#202124" stroke-width="0.260574" stroke-miterlimit="10"/>
<path d="M59.3999 95.612L48.752 103.554" stroke="#202124" stroke-width="0.260574" stroke-miterlimit="10"/>
<path d="M61.1813 96.536L50.8193 104.676" stroke="#202124" stroke-width="0.260574" stroke-miterlimit="10"/>
<path d="M62.9633 97.834L52.4033 106.436" stroke="#202124" stroke-width="0.260574" stroke-miterlimit="10"/>
<path d="M71.4782 103.334L59.9502 112.002" stroke="#202124" stroke-width="0.260574" stroke-miterlimit="10"/>
<path d="M63.9316 100.144L54.1416 107.668" stroke="#202124" stroke-width="0.260574" stroke-miterlimit="10"/>
<path d="M66.3733 101.64L55.9893 109.01" stroke="#202124" stroke-width="0.260574" stroke-miterlimit="10"/>
<path d="M68.3539 102.872L58.2559 110.616" stroke="#202124" stroke-width="0.260574" stroke-miterlimit="10"/>
<path d="M30.5801 84.634L58.2561 102.938L66.5501 117.568L44.2861 101.508L30.5801 84.634Z" fill="white" stroke="#202124" stroke-width="0.260574" stroke-miterlimit="10"/>
<path d="M60.1919 88.5721C60.0159 88.6821 59.7739 88.8801 59.4879 89.1221C58.7399 89.7821 58.5639 90.2221 57.8379 91.1241C57.3539 91.7181 56.9359 92.2241 56.2759 92.7081C55.8579 93.0161 55.3519 93.3901 54.6039 93.5882C54.2959 93.6762 53.2399 93.9622 52.0299 93.5002C51.6779 93.3682 50.5559 92.9281 50.1159 91.8501C50.0279 91.6081 49.9839 91.3881 49.9619 91.2341C50.1599 90.8161 50.5119 90.2221 51.0399 89.6061C51.4139 89.1881 52.2059 88.3741 55.0219 87.0761C55.8359 86.7021 56.9359 86.2181 58.2779 85.7561C58.3439 85.7781 59.7079 86.0201 60.1479 87.1861C60.3679 87.8021 60.2579 88.3301 60.1919 88.5721Z" fill="white"/>
<path d="M83.8198 64.5042C83.4238 64.6802 82.8518 64.9662 82.2578 65.4282C81.3998 66.1102 80.8718 66.8582 80.4978 67.4742C79.1998 69.6522 78.7158 71.7862 78.7158 71.7862C78.2318 73.8762 77.1098 77.3302 74.5798 83.4022C71.8298 84.1282 68.6618 84.7882 65.1638 85.2502C62.5678 85.5802 60.1478 85.7342 57.9258 85.7782C58.1678 85.8662 58.4758 86.0422 58.8278 86.2842C59.0918 86.4822 59.6418 86.9002 59.9718 87.6042C60.4338 88.5942 60.1698 89.5842 60.0598 89.8702C60.8518 90.0242 62.0178 90.2442 63.4038 90.5082C69.1018 91.5642 66.7478 91.0362 70.4218 91.7182C70.4218 91.7182 72.5118 92.0922 74.9978 92.1802C75.5038 92.2022 76.2518 92.2022 77.1538 91.8942C77.3298 91.8282 78.0778 91.5642 78.9358 90.8822C79.9038 90.1122 80.4318 89.2762 80.6078 88.9682C82.9618 85.2502 84.1718 85.0522 85.3818 81.9942C85.8658 80.7622 86.1078 79.7502 86.4158 78.2762C86.7898 76.6262 87.0538 74.8662 87.0978 73.8542C87.2958 70.0262 85.1398 66.3742 83.8198 64.5042Z" fill="white"/>
<path d="M82.8951 64.9003C80.4531 66.3083 79.5511 69.0803 78.6931 71.5883C77.3731 75.3503 76.0751 79.1343 74.7551 82.8963C74.7111 83.0063 74.8871 83.0503 74.9091 82.9403C76.0751 79.5743 77.2411 76.2303 78.4071 72.8643C79.3751 70.0703 80.2111 66.6383 82.9611 65.0543C83.0711 64.9883 82.9831 64.8563 82.8951 64.9003Z" fill="#202124"/>
<path d="M58.3433 85.6682C63.5133 85.5802 68.6613 84.9422 73.6993 83.7542C73.8093 83.7322 73.7653 83.5782 73.6553 83.6002C68.6393 84.7882 63.5133 85.4262 58.3433 85.5142C58.2553 85.5142 58.2553 85.6902 58.3433 85.6682Z" fill="#202124"/>
<path d="M58.2332 86.1083C59.6192 86.5703 60.4112 88.1103 59.9712 89.5183C59.9492 89.6283 60.1032 89.6723 60.1252 89.5623C60.5872 88.0663 59.7512 86.4383 58.2552 85.9543C58.1672 85.9323 58.1232 86.0863 58.2332 86.1083Z" fill="#202124"/>
<path d="M60.7628 90.0243C63.4908 90.6623 66.2188 91.1903 68.9908 91.6083C71.2788 91.9603 73.7648 92.5103 76.0748 92.2023C78.1428 91.9383 79.4408 90.5963 80.6288 88.9903C82.3228 86.7462 83.9068 84.4142 85.4028 82.0162C85.4688 81.9282 85.3148 81.8402 85.2708 81.9282C83.9948 83.9522 82.6528 85.9322 81.2448 87.8682C79.6608 90.0243 78.2088 91.9603 75.3048 92.0703C72.9508 92.1583 70.4868 91.6523 68.1768 91.2783C65.6908 90.8823 63.2488 90.3983 60.8068 89.8263C60.7188 89.8483 60.6748 90.0023 60.7628 90.0243Z" fill="#202124"/>
<path d="M59.6631 88.9022C58.1011 89.9142 57.6171 91.8502 55.9671 92.7742C55.8791 92.8182 55.9671 92.9722 56.0551 92.9062C57.7051 91.9822 58.1891 90.0242 59.7511 89.0342C59.8171 88.9902 59.7511 88.8582 59.6631 88.9022Z" fill="#202124"/>
<path d="M57.0672 86.2843C54.1852 87.2083 51.1492 88.3962 49.8292 91.3222C49.7852 91.4102 49.9392 91.4982 49.9612 91.4102C51.2592 88.5062 54.2512 87.3402 57.0892 86.4382C57.1992 86.4162 57.1552 86.2403 57.0672 86.2843Z" fill="#202124"/>
<path d="M50.5114 92.0262C51.2374 90.7722 52.2494 89.7602 53.5034 89.0342C53.5914 88.9902 53.5034 88.8362 53.4154 88.9022C52.1394 89.6282 51.0834 90.6622 50.3574 91.9602C50.3134 92.0482 50.4674 92.1142 50.5114 92.0262Z" fill="#202124"/>
<path d="M51.3918 92.3342C52.0958 91.0142 53.4158 90.2882 54.6918 89.6062C54.7798 89.5622 54.6918 89.4082 54.6038 89.4742C53.3058 90.1782 51.9858 90.9262 51.2598 92.2682C51.2158 92.3562 51.3478 92.4222 51.3918 92.3342Z" fill="#202124"/>
<path d="M52.4695 92.7522C53.2175 91.6742 54.2515 90.8602 55.5055 90.4202C55.6155 90.3762 55.5715 90.2222 55.4615 90.2662C54.1855 90.7282 53.1075 91.5422 52.3375 92.6642C52.2715 92.7522 52.4255 92.8402 52.4695 92.7522Z" fill="#202124"/>
<path d="M83.6002 64.8339C82.6322 65.6259 82.5002 66.9239 82.3682 68.2439C82.0602 71.5659 81.9062 73.2159 82.0162 74.7779C82.1922 77.5499 81.8402 78.0999 81.2022 84.3479C80.8062 88.2199 80.3442 94.0499 79.9922 102.564C88.3082 106.568 96.6022 110.572 104.918 114.576C105.006 113.85 105.138 112.772 105.336 111.452C105.6 109.78 105.842 108.702 105.952 107.998C106.326 105.446 106.502 103.334 106.656 101.464C107.448 91.1899 107.514 92.9939 107.712 88.9899C107.932 84.6779 108.02 78.9579 107.668 72.1379C106.282 70.7299 104.126 68.8159 101.068 67.1879C100.43 66.8579 97.6142 65.3839 93.6102 64.5479C91.5422 64.1079 89.7822 64.1299 86.2842 64.1519C85.3822 64.1519 84.3922 64.1739 83.6002 64.8339Z" fill="white"/>
<path d="M84.2386 64.482C92.7306 63.074 101.619 66.022 107.603 72.182C107.669 72.248 107.801 72.138 107.713 72.072C101.663 65.868 92.7306 62.92 84.1946 64.328C84.0846 64.35 84.1286 64.504 84.2386 64.482Z" fill="#202124"/>
<path d="M82.4342 71.654C81.2462 81.62 80.4322 91.63 79.9922 101.662C79.9922 101.772 80.1462 101.772 80.1682 101.662C80.6082 91.63 81.4222 81.62 82.6102 71.654C82.6102 71.544 82.4562 71.544 82.4342 71.654Z" fill="#202124"/>
<path d="M107.514 76.89C108.35 89.386 106.612 101.838 104.874 114.202C104.852 114.312 105.028 114.356 105.028 114.246C106.766 101.882 108.504 89.408 107.668 76.89C107.668 76.78 107.514 76.78 107.514 76.89Z" fill="#202124"/>
<path d="M102.806 113.784C102.916 113.784 102.916 113.608 102.806 113.608C102.696 113.608 102.696 113.784 102.806 113.784Z" fill="#202124"/>
<path d="M77.8361 103.004C77.7921 103.114 77.6821 103.29 77.5281 103.466C77.1981 103.84 76.7801 103.95 76.5601 103.994C75.7901 104.192 75.1081 103.95 74.8661 103.862C73.8761 103.488 73.8761 102.982 73.2381 102.938C73.1061 102.938 72.9081 102.938 71.6321 103.774C70.5541 104.456 70.4881 104.588 70.1581 104.632C69.1901 104.742 68.3981 103.862 68.3541 103.796C67.6721 103.004 67.7821 102.036 67.8041 101.882C68.0461 101.53 68.4201 101.024 68.9701 100.54C69.4541 100.1 70.0921 99.5281 71.1041 99.2201C72.0501 98.9561 72.8641 99.0441 73.3041 99.1321C74.2281 99.3081 74.4481 99.6601 75.4601 99.8581C76.1641 100.012 76.7581 99.9901 77.1761 99.9461C77.3741 100.166 77.7701 100.65 77.9241 101.398C78.0561 102.124 77.9021 102.718 77.8361 103.004Z" fill="white"/>
<path d="M107.645 72.1161C107.139 72.5121 106.413 73.1721 105.841 74.2061C105.423 74.9541 105.313 75.5041 104.917 76.7581C104.851 76.9341 104.499 77.9241 103.795 79.8601C103.795 79.8601 102.937 82.1921 102.013 84.5681C100.561 88.3301 98.8673 92.1581 97.9873 94.1821C97.1293 94.4901 95.8533 94.9521 94.2693 95.4801C92.5313 96.0521 90.3533 96.7121 84.6773 98.1421C82.7413 98.6261 80.1893 99.2641 77.1533 99.9681C77.3733 100.232 77.7253 100.716 77.9013 101.42C78.1653 102.498 77.8133 103.4 77.6813 103.686C78.4073 103.664 79.4633 103.642 80.7833 103.598C86.9213 103.4 90.0013 103.312 92.9933 103.004C100.297 102.278 99.1534 101.508 103.113 101.156C103.487 101.112 104.477 101.046 105.379 100.386C106.369 99.6601 106.809 98.6261 107.293 96.9981C108.041 94.5561 108.415 92.5981 108.613 91.5861C109.207 88.3301 109.515 86.7021 109.691 85.3381C109.977 83.0061 110.153 81.5761 110.065 79.5961C109.933 76.9561 109.471 75.5921 109.295 75.1081C108.767 73.7661 108.129 72.7761 107.645 72.1161Z" fill="white"/>
<path d="M77.066 100.012C77.792 100.848 78.034 101.926 77.748 102.982C77.726 103.092 77.88 103.136 77.902 103.026C78.21 101.904 77.946 100.76 77.176 99.902C77.132 99.814 77 99.924 77.066 100.012Z" fill="#202124"/>
<path d="M78.1656 103.664C82.3676 103.708 86.5916 103.576 90.7936 103.246C94.6876 102.96 98.6476 102.63 102.388 101.42C102.498 101.398 102.454 101.222 102.344 101.266C98.4936 102.52 94.3796 102.828 90.3536 103.114C86.2836 103.4 82.2136 103.532 78.1436 103.488C78.0556 103.51 78.0556 103.664 78.1656 103.664Z" fill="#202124"/>
<path d="M108.745 74.0301C110.703 78.5621 109.911 83.7101 109.097 88.4181C108.701 90.7721 108.195 93.1041 107.601 95.4141C107.293 96.6021 107.073 97.9881 106.479 99.0661C105.863 100.144 104.741 100.65 103.641 101.134C103.553 101.178 103.619 101.31 103.729 101.266C104.609 100.892 105.555 100.496 106.215 99.7481C106.897 98.9561 107.117 97.8781 107.403 96.8881C108.173 94.1161 108.789 91.3001 109.273 88.4621C110.087 83.7101 110.879 78.5181 108.899 73.9421C108.833 73.8321 108.701 73.9201 108.745 74.0301Z" fill="#202124"/>
<path d="M77.506 99.9461C83.512 98.5821 89.452 96.9981 95.348 95.2381C95.458 95.2161 95.414 95.0401 95.304 95.0841C89.408 96.8661 83.468 98.4281 77.462 99.7921C77.374 99.7921 77.418 99.9681 77.506 99.9461Z" fill="#202124"/>
<path d="M105.203 75.724C103.201 81.356 101.045 86.944 98.7568 92.466C98.7128 92.554 98.8668 92.598 98.9108 92.51C101.199 86.988 103.333 81.4 105.357 75.768C105.401 75.658 105.225 75.614 105.203 75.724Z" fill="#202124"/>
<path d="M77.2415 103.422C76.4715 104.258 75.3715 104.06 74.4475 103.554C74.0955 103.356 73.6775 102.894 73.2375 102.85C72.4015 102.784 71.2355 103.884 70.6195 104.346C70.5315 104.412 70.6195 104.544 70.7075 104.478C71.2575 104.082 72.0715 103.334 72.7315 103.18C73.6115 102.96 74.2275 103.73 74.9755 103.994C75.8335 104.302 76.7135 104.214 77.3515 103.532C77.4395 103.466 77.3295 103.356 77.2415 103.422Z" fill="#202124"/>
<path d="M75.4594 99.7921C74.2274 99.2641 72.6654 98.516 71.3234 99.0221C69.8934 99.5721 68.5294 100.54 67.7154 101.838C67.6494 101.926 67.8034 102.014 67.8474 101.926C68.5514 100.804 69.6294 100.034 70.8174 99.4401C72.3574 98.67 73.8754 99.2861 75.3714 99.9241C75.4814 99.9681 75.5694 99.8361 75.4594 99.7921Z" fill="#202124"/>
<path d="M68.1331 102.454C68.7931 101.596 69.6731 100.98 70.7291 100.672C70.8391 100.65 70.7951 100.474 70.6851 100.518C69.6071 100.826 68.6831 101.464 68.0011 102.366C67.9131 102.454 68.0671 102.542 68.1331 102.454Z" fill="#202124"/>
<path d="M68.771 102.938C69.453 102.212 70.267 101.684 71.213 101.354C71.323 101.31 71.279 101.156 71.169 101.2C70.201 101.53 69.365 102.08 68.661 102.828C68.595 102.894 68.705 103.004 68.771 102.938Z" fill="#202124"/>
<path d="M69.365 103.686C70.047 103.004 70.839 102.498 71.763 102.212C71.873 102.19 71.829 102.014 71.719 102.058C70.773 102.344 69.937 102.85 69.255 103.554C69.167 103.642 69.277 103.752 69.365 103.686Z" fill="#202124"/>
<path d="M93.697 68.0023C93.631 68.0243 93.367 68.0903 93.257 68.3103C93.125 68.5963 93.323 68.9043 93.411 69.0363C93.675 69.4323 94.071 69.5643 94.203 69.6083C94.775 69.7843 95.281 69.5863 95.567 69.4763C96.293 69.2123 96.667 68.7063 96.821 68.5083C96.953 68.3323 97.063 68.1783 97.151 67.9583C97.327 67.4083 97.217 66.7043 96.931 66.4843C96.469 66.0663 95.149 66.6603 93.697 68.0023Z" fill="white"/>
<path d="M93.6758 68.046C93.8298 68.222 93.9838 68.42 94.1378 68.596C94.2038 68.684 94.3138 68.552 94.2478 68.486C94.0938 68.31 93.9398 68.112 93.7858 67.936C93.7198 67.848 93.5878 67.98 93.6758 68.046Z" fill="#202124"/>
<path d="M93.1915 68.2882C93.1475 69.1242 93.8075 69.6962 94.6216 69.7402C95.7436 69.8062 96.6016 68.9042 97.2616 68.1342C97.3276 68.0462 97.2176 67.9362 97.1516 68.0242C96.7556 68.5082 96.3156 68.9922 95.7656 69.2782C94.9076 69.7622 93.2575 69.7182 93.3455 68.2882C93.3455 68.2002 93.1915 68.2002 93.1915 68.2882Z" fill="#202124"/>
<path d="M88.5928 61.7542C88.5928 61.8862 88.6148 62.3262 88.6588 62.7002C88.7028 63.2942 88.7468 63.6462 88.8568 64.0862C89.0548 64.8562 89.3408 65.3842 89.4068 65.4942C89.8028 66.1762 90.2428 66.5942 90.4188 66.7482C91.1448 67.3862 91.8708 67.6502 92.0908 67.7382C92.2667 67.8042 92.8827 67.9802 93.6747 67.9802C94.0267 67.9802 95.1487 67.9582 96.2707 67.2322C97.2827 66.5942 97.7447 65.7582 98.1407 65.0542C98.6467 64.1302 99.0867 63.3382 98.9767 62.3042C98.8447 61.2262 98.1847 60.5222 97.8107 60.1482C96.5787 58.8502 94.9947 58.5862 94.6207 58.5422C91.5628 58.1242 88.6148 60.4562 88.5928 61.7542Z" fill="white"/>
<path d="M102.189 60.3022C100.891 62.6562 97.7671 63.5362 95.3471 62.9642C91.6071 62.1062 90.4851 58.1022 90.1331 56.7602C89.9351 56.0122 89.4511 54.2742 90.2431 53.5922C90.9691 52.9762 91.9811 53.8782 93.7191 53.7022C96.2051 53.4602 96.6891 51.3922 98.2071 51.4362C100.561 51.5242 104.213 56.6062 102.189 60.3022Z" fill="#202124"/>
<path d="M88.6154 62.1502C86.2614 61.8862 85.8214 61.2702 85.7334 60.9402C85.4254 59.7522 88.2194 57.8822 90.3974 57.1122C91.9154 56.5622 93.1034 56.5402 93.6754 56.5622C94.5994 56.5842 95.7654 56.6282 96.8874 57.3982C97.8114 58.0362 98.2514 58.8282 98.4274 59.1802C99.1534 60.5002 99.1094 61.7762 99.0654 62.3262C98.9334 62.3262 98.6914 62.3262 98.4054 62.4142C97.7014 62.6562 97.5914 63.2282 96.8214 63.7782C96.5354 63.9762 96.2054 64.2182 95.7434 64.2842C94.8634 64.3942 94.1154 63.8002 93.7854 63.5362C92.6854 62.6562 92.8834 61.9742 91.8274 61.2262C91.4534 60.9622 90.8814 60.5662 90.1994 60.6762C89.1654 60.7862 88.6594 62.0182 88.6154 62.1502Z" fill="#202124"/>
<path d="M88.6592 62.8762C88.6592 65.3402 90.3752 67.6502 92.8832 68.0242C95.2592 68.3762 97.7452 66.9902 98.3832 64.6362C98.4052 64.5262 98.2512 64.4822 98.2292 64.5922C97.5692 66.9682 94.9732 68.3102 92.6192 67.8042C90.3312 67.3202 88.8132 65.1422 88.8352 62.8762C88.8352 62.7662 88.6592 62.7662 88.6592 62.8762Z" fill="#202124"/>
<path d="M88.6384 61.8641C89.1444 60.874 90.2664 60.412 91.3004 60.918C91.9164 61.226 92.3784 61.842 92.7744 62.3701C93.2364 62.9861 93.7204 63.6461 94.4024 64.0421C95.0184 64.3941 95.7004 64.4381 96.3384 64.1301C97.1304 63.7561 98.0324 62.0181 98.9784 62.3921C99.0664 62.4361 99.1104 62.282 99.0224 62.238C98.0544 61.864 97.6364 62.8761 97.0424 63.4481C95.2604 65.1421 93.8304 63.4261 92.7304 62.04C91.6084 60.632 89.5404 59.774 88.5064 61.798C88.4404 61.886 88.5944 61.9741 88.6384 61.8641Z" fill="#202124"/>
<path d="M88.6815 61.8422C89.0115 59.0262 91.1895 56.5842 94.1595 56.6062C97.3715 56.6282 98.9115 59.4222 98.9995 62.3042C98.9995 62.4142 99.1755 62.4142 99.1755 62.3042C99.0875 59.3342 97.4815 56.4742 94.1815 56.4302C91.1235 56.4082 88.8795 58.9382 88.5275 61.8422C88.5055 61.9522 88.6595 61.9522 88.6815 61.8422Z" fill="#202124"/>
<path d="M90.2219 64.4162C90.3759 65.3402 90.5959 66.3742 91.5419 66.7702C91.6299 66.8142 91.7179 66.6602 91.6299 66.6382C90.7279 66.2422 90.5299 65.2522 90.3979 64.3722C90.3539 64.2622 90.1999 64.3062 90.2219 64.4162Z" fill="#202124"/>
<path d="M92.4524 65.5799C92.5832 65.5524 92.6567 65.3758 92.6166 65.1856C92.5764 64.9953 92.4379 64.8635 92.3071 64.8911C92.1763 64.9187 92.1028 65.0952 92.143 65.2855C92.1831 65.4757 92.3216 65.6075 92.4524 65.5799Z" fill="#202124"/>
<path d="M91.6518 63.8222C91.7618 63.6902 91.9158 63.5802 92.0918 63.5582C92.3118 63.5142 92.4878 63.6462 92.6638 63.7562C92.7518 63.8222 92.8398 63.6682 92.7518 63.6242C92.5538 63.4702 92.3558 63.3602 92.1138 63.3822C91.8938 63.4042 91.6958 63.5362 91.5418 63.7122C91.4758 63.7782 91.5858 63.9102 91.6518 63.8222Z" fill="#202124"/>
<path d="M89.2316 64.0421C89.3856 63.8221 89.6936 63.8441 89.8476 64.0641C89.9136 64.1521 90.0456 64.0641 89.9796 63.9761C89.7596 63.6461 89.2976 63.6461 89.0776 63.9541C89.0116 64.0421 89.1656 64.1301 89.2316 64.0421Z" fill="#202124"/>
<path d="M90.0283 65.8248C90.1471 65.7997 90.213 65.6348 90.1754 65.4565C90.1378 65.2782 90.0109 65.1539 89.892 65.179C89.7731 65.2041 89.7073 65.369 89.7449 65.5473C89.7825 65.7257 89.9094 65.8499 90.0283 65.8248Z" fill="#202124"/>
<path d="M92.9717 56.5843C93.1477 56.4523 94.2037 55.6823 95.5457 55.9903C96.7997 56.2763 97.7897 57.3983 97.9877 58.8063C97.6577 58.3883 96.9977 57.6623 95.9197 57.1563C94.6437 56.5403 93.4997 56.5403 92.9717 56.5843Z" fill="white"/>
<path d="M90.5294 129.756C90.2434 129.976 88.9234 130.944 87.0754 130.724C85.6234 130.548 84.6774 129.734 84.3694 129.448L83.4014 121.374H91.5854C91.2334 124.168 90.8814 126.962 90.5294 129.756Z" fill="#202124"/>
<path d="M87.4719 125.158C89.7318 125.158 91.5639 123.651 91.5639 121.792C91.5639 119.933 89.7318 118.426 87.4719 118.426C85.2119 118.426 83.3799 119.933 83.3799 121.792C83.3799 123.651 85.2119 125.158 87.4719 125.158Z" fill="white" stroke="#202124" stroke-width="0.260574" stroke-miterlimit="10"/>
<path d="M95.0177 101.156C94.6437 105.798 90.9037 108.9 88.6377 112.64C86.7237 115.808 85.7997 119.746 87.2077 123.266C87.2957 123.464 87.6037 123.376 87.5157 123.178C85.8657 119.02 87.4937 114.642 89.9797 111.188C92.2237 108.086 95.0177 105.138 95.3477 101.134C95.3697 100.936 95.0397 100.936 95.0177 101.156Z" fill="#2F878A"/>
<path d="M87.8018 115.038C88.9238 112.354 88.5718 109.846 87.5158 107.206C86.3498 104.324 86.3938 101.332 88.1758 98.6699C88.2858 98.4939 87.9998 98.3179 87.8898 98.4939C86.5038 100.562 85.9978 103.114 86.5918 105.534C86.9438 106.986 87.7578 108.306 88.0438 109.78C88.3958 111.518 88.1538 113.3 87.4938 114.928C87.4058 115.148 87.7358 115.214 87.8018 115.038Z" fill="#2F878A"/>
<path d="M84.7878 97.8339C85.1838 98.6699 84.6558 99.9239 84.5898 100.826C84.5458 101.574 84.5898 102.344 84.7878 103.092C85.1178 104.324 85.7998 105.38 86.8118 106.172C86.9878 106.304 87.2078 106.062 87.0538 105.93C85.6458 104.83 84.9638 103.202 84.9198 101.442C84.8978 100.232 85.6458 98.8239 85.0958 97.6799C84.9858 97.4819 84.6998 97.6579 84.7878 97.8339Z" fill="#2F878A"/>
<path d="M84.9201 99.77C84.6341 98.846 84.4141 97.614 84.5461 96.184C84.8761 92.774 87.0321 90.42 88.0221 89.452C88.3521 90.376 88.6821 91.74 88.4841 93.346C88.1321 96.734 85.8441 98.978 84.9201 99.77Z" fill="#2F878A"/>
<path d="M87.8237 108.416C87.7137 107.822 87.6257 106.942 87.7577 105.908C87.8237 105.358 87.9557 104.412 88.4837 103.356C89.1217 102.102 90.0236 101.31 90.6176 100.87C90.6836 101.684 90.7056 103.18 90.1116 104.874C89.4517 106.656 88.4177 107.822 87.8237 108.416Z" fill="#2F878A"/>
<path d="M87.0977 100.342C87.1637 99.6601 87.3837 98.2081 88.3957 96.7561C89.4957 95.1721 90.9037 94.4241 91.5417 94.1381C91.4537 94.8421 91.1677 96.3601 90.0677 97.8781C89.0117 99.3081 87.7357 100.034 87.0977 100.342Z" fill="#2F878A"/>
<path d="M86.7683 118.25C86.3283 117.722 85.7123 116.864 85.3163 115.654C84.6343 113.498 85.1403 111.628 85.3823 110.924C85.7123 111.408 86.0423 112.002 86.3283 112.706C87.2523 114.994 87.0103 117.128 86.7683 118.25Z" fill="#2F878A"/>
<path d="M89.1875 112.068C89.4955 111.716 90.5295 110.616 92.3115 110.264C94.2035 109.89 95.6555 110.638 96.0515 110.858C95.6995 111.21 94.3135 112.574 92.1355 112.684C90.7715 112.772 89.6935 112.332 89.1875 112.068Z" fill="#2F878A"/>
<path d="M92.4877 101.486C92.1577 102.08 91.3437 103.752 91.7837 105.82C91.9377 106.568 92.2237 107.162 92.4877 107.602C92.7737 107.14 93.3018 106.106 93.3238 104.698C93.3678 103.114 92.7737 101.97 92.4877 101.486Z" fill="#2F878A"/>
<path d="M14.8066 47.3001C15.5986 45.6721 17.0066 43.4501 19.4926 41.8001C24.3106 38.6541 31.1306 39.0721 37.0266 42.7021C38.6546 41.1621 41.0086 39.3361 44.1106 37.8841C51.3706 34.4961 58.2126 35.3541 61.1386 35.9041C60.1486 34.1881 56.5406 28.4681 49.4346 26.2241C42.7686 24.1341 37.1146 26.3781 33.8366 27.6761C21.6926 32.4941 16.3026 43.8021 14.8066 47.3001Z" fill="#0EBE7E"/>
<path d="M37.665 71.654L42.813 81.994C47.169 82.17 51.503 82.324 55.859 82.5C58.279 79.024 60.699 75.526 63.141 72.05C61.403 68.662 59.6651 65.274 57.905 61.886C54.231 62.788 50.579 63.668 46.905 64.57C43.825 66.924 40.745 69.278 37.665 71.654Z" fill="white" stroke="#202124" stroke-width="0.260574" stroke-miterlimit="10"/>
<path d="M37.598 71.8079C40.854 71.3239 44.11 70.8619 47.366 70.4659C47.476 70.4439 47.476 70.2899 47.366 70.2899C44.088 70.7079 40.832 71.1479 37.554 71.6539C37.444 71.6759 37.488 71.8299 37.598 71.8079Z" fill="#202124"/>
<path d="M57.7502 62.04C56.3422 63.756 54.9342 65.45 53.5262 67.166C53.4602 67.254 53.5702 67.364 53.6362 67.276C55.0442 65.56 56.4522 63.866 57.8602 62.15C57.9262 62.084 57.8162 61.952 57.7502 62.04Z" fill="#202124"/>
<path d="M51.0186 71.5001C52.7126 75.0421 54.2746 78.6501 55.6826 82.3241C55.7266 82.4121 55.8806 82.3901 55.8366 82.2801C54.4286 78.6061 52.8666 74.9761 51.1506 71.4121C51.1066 71.3241 50.9746 71.4121 51.0186 71.5001Z" fill="#202124"/>
<path d="M37.7303 71.7201C39.9743 73.6781 42.3503 75.482 44.8363 77.11C44.9243 77.176 45.0123 77.022 44.9243 76.978C42.4383 75.35 40.0843 73.5461 37.8403 71.6101C37.7743 71.5221 37.6643 71.6541 37.7303 71.7201Z" fill="#202124"/>
<path d="M50.1602 69.6959C50.1602 69.7179 50.1602 69.7399 50.1602 69.762C50.1602 69.872 50.3362 69.872 50.3362 69.762C50.3362 69.7399 50.3362 69.7179 50.3362 69.6959C50.3142 69.6079 50.1602 69.6079 50.1602 69.6959Z" fill="#202124"/>
<path d="M45.4966 76.89C47.2566 74.822 48.8186 72.6 50.1606 70.246C50.2046 70.158 50.0726 70.07 50.0286 70.158C48.6866 72.512 47.1246 74.712 45.3866 76.78C45.3206 76.846 45.4306 76.978 45.4966 76.89Z" fill="#202124"/>
<path d="M42.9226 81.5979C43.6706 80.4099 44.4186 79.2219 45.1666 78.0339C45.2326 77.9459 45.0786 77.8579 45.0346 77.9459C44.2866 79.1339 43.5386 80.3219 42.7906 81.5099C42.7246 81.5979 42.8786 81.6859 42.9226 81.5979Z" fill="#202124"/>
<path d="M46.5296 77.792C49.4556 79.332 52.3816 80.872 55.3076 82.39C55.3956 82.434 55.4836 82.302 55.3956 82.258C52.4696 80.718 49.5436 79.178 46.6176 77.66C46.5296 77.594 46.4416 77.748 46.5296 77.792Z" fill="#202124"/>
<path d="M51.062 69.938C53.24 70.18 55.418 70.444 57.618 70.686C57.662 70.686 57.706 70.642 57.706 70.598C57.926 67.848 58.124 65.076 58.344 62.326C58.344 62.216 58.19 62.216 58.168 62.326C57.992 64.724 57.794 67.122 57.618 69.498C57.552 70.312 57.332 70.466 56.518 70.378C55.946 70.312 55.352 70.246 54.78 70.18C53.548 70.048 52.316 69.894 51.062 69.762C50.952 69.762 50.952 69.938 51.062 69.938Z" fill="#202124"/>
<path d="M55.9686 82.1701C56.4746 79.9481 57.0246 77.7481 57.5966 75.5481C57.7506 74.9981 57.8826 74.4481 58.0366 73.8981C58.2786 73.0181 58.1906 72.5341 59.2686 72.2481C60.3027 71.9621 61.5787 72.0061 62.6567 71.8961C62.7667 71.8961 62.7667 71.7201 62.6567 71.7201C61.4027 71.8521 60.0607 71.8521 58.8286 72.1161C58.1026 72.2701 58.1246 72.9741 57.9486 73.6341C57.1786 76.4501 56.4526 79.2661 55.8146 82.1041C55.7926 82.2361 55.9466 82.2801 55.9686 82.1701Z" fill="#202124"/>
<path d="M14.5859 47.9161L37.6639 71.6541" stroke="#202124" stroke-width="0.260574" stroke-miterlimit="10"/>
<path d="M49.896 69.674L42.46 43.7139" stroke="#202124" stroke-width="0.260574" stroke-miterlimit="10"/>
<path d="M57.9043 61.886L61.1383 35.882" stroke="#202124" stroke-width="0.260574" stroke-miterlimit="10"/>
<path d="M46.9044 64.5701L37.0264 42.7021" stroke="#202124" stroke-width="0.260574" stroke-miterlimit="10"/>
<path d="M14.5861 47.9161C15.0921 46.3541 16.9401 41.3821 21.8901 38.8081C28.0721 35.5741 36.5861 37.4221 42.4601 43.7141C42.482 43.0101 42.6801 37.9501 46.7061 34.9581C50.666 32.0101 56.6721 32.2521 61.16 35.9041C61.2701 33.9461 61.622 24.2001 54.538 17.0941C46.31 8.86606 32.406 8.58006 23.0121 15.0701C13.024 22.0001 9.24005 35.8601 14.5861 47.9161Z" fill="#2F878A"/>
</g>
<defs>
<clipPath id="clip0">
<rect width="132" height="132" fill="white"/>
</clipPath>
</defs>
</svg>
