<svg width="133" height="133" viewBox="0 0 133 133" fill="none" xmlns="http://www.w3.org/2000/svg">
<path d="M62.1338 4.87665C62.0895 13.1891 62.1338 21.679 62.2668 30.3461C62.422 39.368 62.6658 48.2125 63.0205 56.8353C75.6555 59.5618 88.2905 62.2661 100.925 64.9926C101.701 45.7963 102.477 26.6 103.231 7.40365C89.554 6.56131 75.855 5.71898 62.1338 4.87665Z" fill="#0EBE7E"/>
<path d="M64.017 6.47253C63.9727 13.3885 64.017 20.4375 64.1278 27.6417C64.2608 35.1562 64.5047 42.4934 64.815 49.6754C76.2973 51.9364 87.7797 54.1974 99.262 56.4584C99.9713 40.4984 100.658 24.5384 101.368 8.5562C88.9323 7.8912 76.4747 7.18187 64.017 6.47253Z" fill="white" stroke="#202124" stroke-width="0.16625" stroke-miterlimit="10"/>
<path d="M63.1743 17.8885C62.9083 18.1545 62.5315 18.5536 62.1325 19.0634C61.1793 20.3047 60.7582 21.413 60.3813 22.3219C59.1843 25.27 59.2287 24.5829 58.209 27.2207C57.3445 29.3931 56.7682 31.255 56.3692 32.6516C55.8815 34.3806 55.3717 36.3977 54.9727 38.6587C55.4382 38.9469 56.0367 39.2572 56.746 39.4567C59.1843 40.166 61.3123 39.3015 62.1103 38.9247C62.2212 38.3484 62.3763 37.5282 62.6645 36.575C62.7532 36.2425 63.0635 35.2229 63.7728 33.4274C63.9945 32.8511 64.7038 31.0999 65.524 29.5039C67.8293 25.0706 69.6913 24.6272 69.647 22.9647C69.5583 21.7677 68.4722 19.9722 63.1743 17.8885Z" fill="white"/>
<path d="M62.5758 18.1766C58.8075 24.4941 56.214 31.4101 54.884 38.6364C54.8618 38.7472 55.017 38.7916 55.0392 38.6807C56.3692 31.4766 58.9627 24.5606 62.7088 18.2652C62.7753 18.1766 62.6202 18.0879 62.5758 18.1766Z" fill="#202124"/>
<path d="M66.1891 26.5557C64.7261 30.3683 63.3296 34.2253 62.0217 38.1045C61.9774 38.2153 62.1547 38.2597 62.1769 38.1488C63.4847 34.2697 64.8812 30.4348 66.3442 26.6C66.3886 26.4892 66.2334 26.4448 66.1891 26.5557Z" fill="#202124"/>
<path d="M63.1736 17.8888C63.1071 18.2878 63.085 18.7311 63.085 19.2409C63.085 20.1276 63.218 20.9034 63.3731 21.5019C63.5061 23.1866 63.7278 25.4919 64.149 28.2184C64.548 30.9006 64.9691 32.7848 65.612 35.7108C66.3878 39.2796 67.1858 42.4494 67.9173 45.1981C68.4271 47.0601 68.8705 48.6118 69.2251 49.7644C71.9295 50.8728 74.3235 51.5156 76.1633 51.8703C77.9588 52.2471 80.0868 52.6683 82.902 52.6018C85.1408 52.5574 86.9806 52.2249 88.3106 51.9146C88.7096 47.4591 89.0643 42.8484 89.286 38.0383C89.5298 33.0064 89.6628 28.1298 89.685 23.4526C88.7096 22.6989 87.3796 21.7458 85.695 20.8148C84.1211 19.9503 81.306 18.5538 77.5376 17.7114C73.0156 16.6918 69.336 16.9134 67.6291 17.0908C65.7671 17.2903 64.2598 17.6228 63.1736 17.8888Z" fill="white"/>
<path d="M63.1973 17.9771C72.1526 15.7161 81.8838 17.7111 89.2431 23.2971C89.3318 23.3636 89.4205 23.2085 89.3318 23.1641C81.9503 17.556 72.1526 15.561 63.1751 17.8441C63.0643 17.8441 63.1086 17.9993 63.1973 17.9771Z" fill="#202124"/>
<path d="M63.2851 21.5238C64.2605 30.6343 66.1003 39.634 68.7381 48.3898C68.7603 48.5006 68.9376 48.4563 68.8933 48.3455C66.2333 39.5896 64.4156 30.6121 63.4403 21.5238C63.4403 21.413 63.263 21.413 63.2851 21.5238Z" fill="#202124"/>
<path d="M89.6423 25.5359C89.465 34.0922 88.9995 42.6486 88.2236 51.1605C88.2236 51.2714 88.3788 51.2714 88.401 51.1605C89.1768 42.6264 89.6423 34.0922 89.8196 25.5359C89.7975 25.4251 89.6423 25.4251 89.6423 25.5359Z" fill="#202124"/>
<path d="M69.0929 49.2541C74.7454 52.4018 81.3511 53.4436 87.7129 52.2023C87.8238 52.1801 87.7794 52.0249 87.6686 52.0471C81.3733 53.2884 74.8119 52.2466 69.1816 49.1211C69.0708 49.0546 68.9821 49.1876 69.0929 49.2541Z" fill="#202124"/>
<path d="M49.0537 51.5374C49.0537 51.2492 46.7705 35.3779 46.7705 35.3779L64.3487 28.9717L80.7742 34.3582L80.3087 50.8059L64.1935 61.8449L49.0537 51.5374Z" fill="#2F878A" stroke="#202124" stroke-width="0.16625" stroke-miterlimit="10"/>
<path d="M47.5898 35.8659L63.3725 44.3557" stroke="#202124" stroke-width="0.16625" stroke-miterlimit="10"/>
<path d="M80.2189 34.9349L64.1924 44.3557" stroke="#202124" stroke-width="0.16625" stroke-miterlimit="10"/>
<path d="M64.1926 61.2022L63.7715 44.5107" stroke="#202124" stroke-width="0.16625" stroke-miterlimit="10"/>
<path d="M49.0518 51.5378L55.4801 48.5674" stroke="#202124" stroke-width="0.16625" stroke-miterlimit="10"/>
<path d="M64.192 61.8453L55.4805 48.5674" stroke="#202124" stroke-width="0.16625" stroke-miterlimit="10"/>
<path d="M46.792 35.3782L55.2153 47.5034" stroke="#202124" stroke-width="0.16625" stroke-miterlimit="10"/>
<path d="M63.7708 44.5107L55.4805 47.5032" stroke="#202124" stroke-width="0.16625" stroke-miterlimit="10"/>
<path d="M72.5723 33.9817C73.2816 33.6492 74.0131 33.3389 74.7224 33.0064C76.3406 33.5162 77.9809 34.0482 79.5991 34.5581C78.8233 34.8684 78.0253 35.1787 77.2494 35.4891C75.6978 34.9792 74.1461 34.4916 72.5723 33.9817Z" stroke="#202124" stroke-width="0.16625" stroke-miterlimit="10"/>
<path d="M72.2612 47.9905C71.9952 47.8575 71.5962 47.7024 71.0864 47.5915C70.9312 47.5694 69.5126 47.259 69.3131 47.658C69.2687 47.7467 69.2244 47.9684 69.8672 48.589C69.3131 48.8329 68.5594 49.1654 67.6727 49.6309C66.4092 50.2959 66.1654 50.5175 66.0324 50.85C65.6999 51.7145 66.5201 52.7342 66.7417 53.0002C67.1186 53.0889 67.6727 53.1775 68.3377 53.111C68.8697 53.0667 69.4904 52.9115 70.9091 52.0914C71.6184 51.6924 72.5272 51.1382 73.5247 50.3624C73.5469 50.2959 73.8351 49.2762 73.1701 48.5225C72.8597 48.1457 72.4607 48.0349 72.2612 47.9905Z" fill="white"/>
<path d="M81.9039 28.9718C82.0148 28.2403 82.3251 26.9989 83.3004 25.8906C85.6058 23.1641 89.4406 23.6739 89.7509 23.7183C89.9283 24.0286 90.1943 24.5163 90.4159 25.1148C90.7928 26.1344 90.8814 26.9546 90.9258 27.5088C91.2139 30.2796 91.3248 29.7476 91.4799 31.7648C91.6129 33.5824 91.7903 35.6439 91.5021 38.3039C91.3248 39.9664 91.0366 41.3408 90.7706 42.3826C90.3938 42.7594 89.8396 43.2914 89.1081 43.8456C86.7806 45.6411 84.6304 46.3948 83.0566 46.9489C80.0419 48.0129 76.8721 49.1434 73.3254 50.3848C73.3254 50.1188 73.3033 49.6754 73.0816 49.1656C72.8378 48.5671 72.4609 48.1903 72.2393 48.0129C72.9043 47.2593 73.5693 46.5278 74.2564 45.7741C76.9829 42.8038 79.7094 40.0329 82.4359 37.4838C82.4581 36.4198 82.4359 35.3114 82.3694 34.1588C82.3029 32.2746 82.1256 30.5678 81.9039 28.9718Z" fill="white"/>
<path d="M81.8388 28.972C82.1492 31.7871 82.3265 34.6245 82.3487 37.4618C82.3487 37.5726 82.526 37.5726 82.526 37.4618C82.5038 34.6245 82.3487 31.7871 82.0162 28.972C81.994 28.8611 81.8167 28.8611 81.8388 28.972Z" fill="#202124"/>
<path d="M82.3475 37.373C78.9116 40.7645 75.5866 44.2225 72.3281 47.7913C72.2616 47.88 72.3725 47.9908 72.439 47.9022C75.6753 44.3333 79.0225 40.8753 82.4583 37.4838C82.547 37.4173 82.414 37.3065 82.3475 37.373Z" fill="#202124"/>
<path d="M72.5518 48.3898C73.0173 48.944 73.2611 49.6311 73.2611 50.3626C73.2611 50.4735 73.4163 50.4735 73.4384 50.3626C73.4384 49.5868 73.1724 48.8553 72.6626 48.2568C72.5961 48.1903 72.4853 48.3011 72.5518 48.3898Z" fill="#202124"/>
<path d="M73.571 50.4512C76.9625 49.3207 80.3318 48.1237 83.6568 46.7937C86.2947 45.7297 88.8438 44.4662 90.861 42.4269C90.9275 42.3604 90.8167 42.2274 90.7502 42.316C88.5778 44.5105 85.7848 45.7962 82.9475 46.9045C79.8442 48.1237 76.6965 49.232 73.5488 50.296C73.4158 50.3182 73.4602 50.4734 73.571 50.4512Z" fill="#202124"/>
<path d="M72.3069 47.9022C71.5089 47.5032 70.3119 47.1707 69.4252 47.5032C68.5829 47.8357 69.5139 48.3012 69.7799 48.5893C69.8464 48.678 69.9572 48.545 69.8907 48.4785C69.802 48.3677 69.5139 48.2568 69.4695 48.1682C69.0927 47.5253 70.068 47.5918 70.334 47.5918C70.999 47.5918 71.6419 47.7692 72.2404 48.0573C72.329 48.1017 72.3956 47.9465 72.3069 47.9022Z" fill="#202124"/>
<path d="M69.846 48.5007C69.0258 48.9218 68.2057 49.3208 67.3855 49.742C66.8313 50.008 66.3437 50.274 65.989 50.7838C65.9225 50.8725 66.0777 50.9612 66.122 50.8725C66.5875 50.2518 67.319 49.9637 67.984 49.6312C68.6268 49.2987 69.2918 48.9662 69.9347 48.6558C70.0233 48.5893 69.9347 48.4342 69.846 48.5007Z" fill="#202124"/>
<path d="M66.2335 51.1162C66.6325 51.2935 67.1424 51.1827 67.5635 51.1384C68.0512 51.0719 68.4946 50.9832 68.9379 50.7837C69.0266 50.7394 68.9601 50.6064 68.8492 50.6507C68.4059 50.8502 67.9626 50.9389 67.4749 51.0054C67.1202 51.0497 66.6547 51.1384 66.3222 51.0054C66.2114 50.9167 66.1227 51.0719 66.2335 51.1162Z" fill="#202124"/>
<path d="M66.321 51.6704C67.1412 51.9142 67.9392 51.7812 68.7594 51.626C68.8702 51.6038 68.8259 51.4487 68.715 51.4708C67.9392 51.626 67.1412 51.759 66.3654 51.5152C66.2545 51.4708 66.2102 51.6482 66.321 51.6704Z" fill="#202124"/>
<path d="M66.4337 52.1801C67.0987 52.6012 67.8523 52.4461 68.5617 52.2688C68.6725 52.2466 68.6282 52.0914 68.5173 52.1136C67.8523 52.2909 67.143 52.4239 66.5223 52.0249C66.4115 51.9806 66.345 52.1136 66.4337 52.1801Z" fill="#202124"/>
<path d="M66.7458 53.067C69.2063 53.7098 71.3122 51.9586 73.2628 50.6951C73.3515 50.6286 73.2628 50.4956 73.1742 50.5621C71.29 51.8035 69.1842 53.5546 66.7902 52.934C66.6793 52.8675 66.635 53.0226 66.7458 53.067Z" fill="#202124"/>
<path d="M89.6843 23.7403C90.5045 24.9373 90.704 26.489 90.9256 27.9076C91.1916 29.4815 91.369 31.0775 91.4798 32.6735C91.6571 35.7546 91.502 38.8137 91.0365 41.8505C91.0143 41.9613 91.1916 42.0056 91.1916 41.8948C91.6793 38.7028 91.8345 35.4665 91.6128 32.2523C91.502 30.7006 91.3246 29.1711 91.0586 27.6416C90.8148 26.2673 90.6153 24.8265 89.8173 23.6516C89.773 23.5851 89.6178 23.6516 89.6843 23.7403Z" fill="#202124"/>
<path d="M76.4072 15.3613C76.2964 15.0067 76.0304 14.3638 75.4097 13.8762C74.2349 12.9452 72.7275 13.322 72.2399 13.4328C71.3532 13.6545 70.7325 14.0757 70.3335 14.4082C70.3114 14.5633 70.3114 14.7185 70.2892 14.8737C70.2005 14.8958 70.0454 14.918 69.868 14.918C69.7572 14.918 69.4247 14.8737 68.9592 14.5633C68.671 14.3638 68.0947 13.987 67.7844 13.2112C67.74 13.1003 67.2745 11.9255 67.9174 10.795C68.405 9.93051 69.203 9.62018 69.4912 9.50935C70.8877 8.97735 72.2177 9.55368 72.9935 9.88618C73.5699 10.1522 74.656 10.6398 75.4762 11.8147C76.5402 13.2777 76.4515 14.8737 76.4072 15.3613Z" fill="#202124"/>
<path d="M70.3992 14.2529C70.3548 14.4303 70.2883 14.6519 70.244 14.9623C70.1997 15.2726 70.111 16.0706 70.4878 16.9573C70.6208 17.2454 70.8647 17.8439 71.5075 18.3316C72.1725 18.8193 72.8597 18.9079 73.0148 18.9079C73.3473 18.9301 73.6133 18.9079 73.8128 18.8636C73.8793 19.0188 73.9458 19.1961 74.0345 19.3513C73.702 19.3069 73.3695 19.4843 73.2587 19.7724C73.1257 20.1049 73.3252 20.4596 73.5025 20.6148C73.835 20.9029 74.3227 20.8143 74.6108 20.7478C75.1872 20.6369 75.564 20.3044 75.83 20.0828C76.0517 19.8833 76.2068 19.7059 76.3177 19.5729C76.0738 18.9744 75.8078 18.3759 75.564 17.7774C75.697 17.5779 75.8965 17.2676 76.0517 16.8686C76.3177 16.2701 76.495 15.8489 76.4507 15.3834C76.3398 14.2751 74.899 13.6323 74.6552 13.5436C73.7463 13.1668 72.9262 13.2998 72.4828 13.3663C71.4632 13.5214 70.7538 13.9869 70.3992 14.2529Z" fill="white"/>
<path d="M73.5481 15.0733C73.6583 15.0733 73.7476 14.9443 73.7476 14.7852C73.7476 14.626 73.6583 14.497 73.5481 14.497C73.438 14.497 73.3486 14.626 73.3486 14.7852C73.3486 14.9443 73.438 15.0733 73.5481 15.0733Z" fill="#202124"/>
<path d="M70.245 14.4083C70.0898 16.3147 70.4001 18.3983 72.5503 18.9303C74.1906 19.3515 75.7201 18.221 76.1856 16.6693C76.2078 16.5585 76.0526 16.5142 76.0305 16.625C75.565 18.221 73.9468 19.2407 72.3065 18.6865C70.4445 18.0437 70.2671 16.1152 70.4001 14.4083C70.4223 14.2975 70.2671 14.2975 70.245 14.4083Z" fill="#202124"/>
<path d="M73.7468 18.9968C73.8576 19.1742 73.9463 19.3515 73.9906 19.551C74.0128 19.6618 74.168 19.6175 74.1458 19.5067C74.1015 19.285 74.0128 19.0855 73.8798 18.9082C73.8355 18.8417 73.6803 18.9082 73.7468 18.9968Z" fill="#202124"/>
<path d="M70.2449 14.8737C68.405 14.6299 67.0307 12.7014 67.9617 10.9059C68.7597 9.35425 70.4444 9.26558 71.9295 9.66458C74.5009 10.3517 76.784 12.5019 76.3629 15.3614C76.3407 15.4722 76.518 15.5166 76.518 15.4057C77.0279 11.9699 73.4147 8.91091 70.0675 9.28775C68.6045 9.44291 67.4519 10.7507 67.5184 12.2359C67.5627 13.7876 68.7597 14.8737 70.2449 15.0732C70.3557 15.0511 70.3557 14.8959 70.2449 14.8737Z" fill="#202124"/>
<path d="M70.3785 14.4082C71.9524 12.923 75.9202 12.8122 76.3414 15.5609C76.3635 15.6717 76.5187 15.6274 76.4965 15.5165C76.0532 12.6792 71.908 12.7235 70.2455 14.2974C70.2012 14.3639 70.312 14.4747 70.3785 14.4082Z" fill="#202124"/>
<path d="M72.042 14.6744C71.776 15.3394 71.3549 16.492 72.1529 16.9575C72.2415 17.0019 72.3302 16.8689 72.2415 16.8245C71.5322 16.4255 71.9755 15.3172 72.1972 14.7409C72.2415 14.63 72.0864 14.5857 72.042 14.6744Z" fill="#202124"/>
<path d="M73.1724 19.7506C72.995 20.3269 73.4384 20.8367 74.0147 20.8811C74.9235 20.9697 75.8324 20.2826 76.3644 19.6176C76.4309 19.5289 76.32 19.4181 76.2535 19.5067C75.9432 19.8836 75.5664 20.2161 75.123 20.4599C74.5467 20.7481 72.9729 20.9697 73.3275 19.8171C73.3719 19.7062 73.2167 19.6619 73.1724 19.7506Z" fill="#202124"/>
<path d="M16.2481 124.643C16.0043 126.129 15.7604 127.614 15.5166 129.099C24.4276 129.853 28.9718 129.72 29.1713 128.744C29.3486 127.924 26.4669 126.483 20.5484 124.422C19.1076 124.488 17.6889 124.555 16.2481 124.643Z" fill="#0EBE7E"/>
<path d="M21.5456 124.865C21.0801 125.242 20.6146 125.729 20.5259 126.372C20.5037 126.594 20.5259 126.971 20.8141 126.949C21.2352 126.926 21.6121 126.151 21.7007 125.796C21.7894 125.441 21.7229 125.109 21.8559 124.776C21.9002 124.555 22.0111 124.377 22.1884 124.222C22.2771 124.045 22.3657 124.067 22.4544 124.266C22.6982 124.421 22.6539 124.555 22.3436 124.665C22.1884 124.776 22.0332 124.843 21.8559 124.887C21.7451 124.909 21.7894 125.086 21.9002 125.042C22.2327 124.931 23.0751 124.532 22.9864 124.045C22.9199 123.734 22.5652 123.712 22.3214 123.845C21.7229 124.178 21.6342 124.798 21.5899 125.397C21.5677 125.685 21.5012 125.951 21.3461 126.217C21.2574 126.35 20.7476 127.126 20.7254 126.217C20.7032 125.752 21.3461 125.22 21.6564 124.976C21.7451 124.909 21.6342 124.798 21.5456 124.865Z" fill="white"/>
<path d="M23.1412 125.397C22.8974 125.707 22.7422 126.062 22.6535 126.439C22.6314 126.55 22.7865 126.594 22.8087 126.483C22.8752 126.129 23.0082 125.796 23.252 125.508C23.3407 125.441 23.2077 125.331 23.1412 125.397Z" fill="white"/>
<path d="M24.095 125.552C23.8068 125.818 23.6738 126.173 23.6738 126.55C23.6738 126.661 23.8512 126.661 23.8512 126.55C23.8512 126.217 23.9842 125.907 24.228 125.663C24.2945 125.597 24.1615 125.464 24.095 125.552Z" fill="white"/>
<path d="M25.2256 125.796C24.8044 126.129 24.6049 126.638 24.6936 127.148C24.7157 127.259 24.8709 127.215 24.8487 127.104C24.7822 126.638 24.9817 126.195 25.3364 125.907C25.4251 125.863 25.3142 125.73 25.2256 125.796Z" fill="white"/>
<path d="M26.2458 126.35C25.9798 126.638 25.8024 126.949 25.6916 127.325C25.6694 127.436 25.8246 127.481 25.8468 127.37C25.9576 127.037 26.1128 126.727 26.3566 126.461C26.4231 126.394 26.3123 126.284 26.2458 126.35Z" fill="white"/>
<path d="M16.3143 128.655C19.1738 128.899 22.0333 129.077 24.8928 129.187C25.0036 129.187 25.0036 129.032 24.8928 129.01C22.0333 128.899 19.1738 128.722 16.3143 128.478C16.2035 128.478 16.2256 128.655 16.3143 128.655Z" fill="white"/>
<path d="M13.9658 73.793C14.0988 80.4652 14.2762 86.1842 14.4313 90.684C14.8082 100.726 15.2515 108.506 15.5397 113.494C15.8057 118.016 16.0495 121.828 16.249 124.621C16.4707 124.887 16.8253 125.22 17.3573 125.397C18.3992 125.752 19.6183 125.353 20.5493 124.4C20.7932 119.39 21.1257 114.779 21.5247 110.568C22.0567 105.07 22.633 100.526 23.0985 97.3562C23.1872 96.6912 23.5197 94.408 24.2955 89.7087C24.9605 85.7187 25.8915 80.2214 27.1328 73.5714C22.7438 73.66 18.3548 73.7265 13.9658 73.793Z" fill="white"/>
<path d="M13.8096 73.8372C14.2529 90.7725 15.0287 107.708 16.1814 124.621C16.1814 124.732 16.3587 124.732 16.3587 124.621C15.2061 107.73 14.4081 90.7947 13.9647 73.8372C13.9647 73.7485 13.8096 73.7485 13.8096 73.8372Z" fill="#202124"/>
<path d="M25.0253 85.1202C22.6092 98.0877 21.0797 111.232 20.459 124.422C20.459 124.532 20.6142 124.532 20.6363 124.422C21.257 111.255 22.7865 98.132 25.2027 85.1645C25.2248 85.0537 25.0475 85.0093 25.0253 85.1202Z" fill="#202124"/>
<path d="M16.3819 124.998C17.5567 125.818 19.0862 125.796 20.2389 124.954C20.3276 124.887 20.2389 124.754 20.1502 124.821C19.0419 125.641 17.6011 125.663 16.4706 124.865C16.3597 124.798 16.2932 124.931 16.3819 124.998Z" fill="#202124"/>
<path d="M30.9219 126.838C30.9662 128.013 31.0105 129.188 31.077 130.34C38.8797 130.562 42.8254 130.274 42.9362 129.476C43.0249 128.767 40.254 127.68 34.5794 126.195C33.3602 126.417 32.141 126.616 30.9219 126.838Z" fill="#0EBE7E"/>
<path d="M18.9301 74.5688C18.7749 75.5441 18.6641 76.6968 18.6641 78.0268C18.6862 79.1351 18.7749 80.1326 18.9301 80.9971C19.7059 84.167 20.5039 87.3368 21.3241 90.5288C24.4939 102.942 27.7746 115.112 31.1661 127.082C31.3877 127.237 31.7646 127.481 32.2966 127.569C33.4271 127.747 34.2694 127.082 34.4246 126.949C32.7621 102.964 32.0527 93.61 31.7424 89.9303C31.5872 88.1127 31.4321 86.561 31.1217 82.8591C30.8557 79.6893 30.7449 78.0712 30.4789 75.6328C30.2351 73.4383 29.9691 71.665 29.7917 70.5345C26.1786 71.8645 22.5432 73.2166 18.9301 74.5688Z" fill="white"/>
<path d="M30.3457 75.1674C31.8974 92.1471 33.2939 109.171 34.4909 126.173C34.4909 126.284 34.6682 126.284 34.6682 126.173C33.4712 109.149 32.0969 92.1471 30.523 75.1674C30.5009 75.0787 30.3457 75.0787 30.3457 75.1674Z" fill="#202124"/>
<path d="M18.6633 80.2214C22.4981 95.8267 26.6876 111.343 30.855 126.838C30.8771 126.949 31.0323 126.904 31.0101 126.794C26.8428 111.277 22.6755 95.7602 18.8185 80.1771C18.7963 80.0884 18.6411 80.1327 18.6633 80.2214Z" fill="#202124"/>
<path d="M31.1446 127.148C32.2086 127.902 33.5164 127.836 34.4918 127.015C34.5804 126.949 34.4474 126.838 34.3809 126.905C33.4499 127.68 32.2086 127.725 31.2333 127.015C31.1224 126.927 31.0559 127.082 31.1446 127.148Z" fill="#202124"/>
<path d="M35.2892 126.816C34.8237 127.148 34.1144 127.747 34.0035 128.345C33.9592 128.656 34.1144 128.855 34.4247 128.722C34.9567 128.501 35.2449 127.813 35.3779 127.304C35.4444 126.971 35.4887 126.129 35.8434 125.974C36.2424 126.129 36.331 126.306 36.1315 126.506C36.065 126.594 35.9985 126.683 35.9099 126.749C35.7104 126.971 35.4665 127.126 35.2227 127.259C35.134 127.304 35.2227 127.459 35.3114 127.392C35.7325 127.148 36.4419 126.661 36.464 126.107C36.4862 125.73 36.1537 125.552 35.8434 125.73C35.2892 126.04 35.3114 126.882 35.1784 127.392C35.1119 127.592 35.0454 127.791 34.9345 127.969C34.8459 128.124 34.0479 129.055 34.3139 128.079C34.4469 127.614 35.0454 127.171 35.4 126.927C35.4444 126.882 35.3779 126.749 35.2892 126.816Z" fill="white"/>
<path d="M37.0207 126.772C36.5552 127.015 36.2227 127.459 36.1562 127.991C36.134 128.102 36.3114 128.146 36.3114 128.035C36.3779 127.547 36.666 127.148 37.0872 126.927C37.198 126.86 37.1315 126.727 37.0207 126.772Z" fill="white"/>
<path d="M37.8605 126.949C37.5058 127.215 37.3063 127.636 37.2842 128.079C37.2842 128.19 37.4393 128.19 37.4615 128.079C37.4837 127.68 37.661 127.326 37.9713 127.082C38.06 126.993 37.9492 126.882 37.8605 126.949Z" fill="white"/>
<path d="M38.9921 127.237C38.6152 127.525 38.4157 127.968 38.3936 128.434C38.3936 128.545 38.5487 128.545 38.5709 128.434C38.5709 128.013 38.7704 127.636 39.1029 127.37C39.1916 127.281 39.0807 127.17 38.9921 127.237Z" fill="white"/>
<path d="M31.4347 129.964C33.9173 129.986 36.4222 129.986 38.9048 130.008C39.0157 130.008 39.0157 129.853 38.9048 129.831C36.4222 129.786 33.9173 129.786 31.4347 129.786C31.346 129.786 31.346 129.964 31.4347 129.964Z" fill="white"/>
<path d="M37.6387 56.2812C37.6609 55.9931 37.8382 55.7049 38.1929 55.1507C38.3702 54.8626 38.5476 54.6409 39.4564 53.4661C39.9884 52.8011 40.2101 52.5351 40.6091 52.4464C40.7199 52.4242 41.0302 52.3577 41.1854 52.5129C41.3406 52.6681 41.3406 52.9562 41.1854 53.2666C41.3627 53.1779 41.6509 53.0449 41.9834 52.8897C43.7124 52.1361 44.0671 52.2912 44.2001 52.3799C44.3552 52.4907 44.4217 52.6237 44.5326 52.8454C44.5991 53.0006 44.8207 53.4661 44.7099 53.9537C44.6877 54.1089 44.5991 54.3084 44.0892 54.8626C43.8011 55.1729 43.4242 55.5941 42.7592 56.0817C42.2937 56.4142 41.9391 56.6137 41.4736 56.8797C40.8751 57.2122 40.5204 57.4117 40.0106 57.5891C39.2791 57.8329 38.9022 57.9659 38.5254 57.8107C37.9491 57.5669 37.6166 56.8576 37.6387 56.2812Z" fill="white"/>
<path d="M14.6291 50.4515C14.5848 49.9195 14.607 49.0772 15.0503 48.2349C16.0478 46.3064 18.4861 45.7522 20.1265 45.8409C21.3456 45.9074 22.2988 46.3507 22.8973 46.7054C23.0081 46.9714 23.1633 47.4369 23.385 47.991C24.7593 51.5377 26.0671 54.4194 26.9981 56.4144C27.1755 56.769 27.4415 57.3454 27.7518 58.0104C28.705 57.8774 29.4808 57.7665 30.035 57.6557C33.2935 57.1015 35.5766 56.4587 36.1086 56.3035C36.9288 56.0597 37.616 55.838 38.0371 55.705C38.2588 55.7272 38.68 55.7937 39.1011 56.104C39.7883 56.6139 39.9656 57.3454 40.01 57.5449C39.8326 57.7444 39.5445 58.0325 39.1676 58.365C37.0175 60.3378 34.956 61.3354 33.1605 62.1999C30.833 63.3082 28.9266 63.8624 28.0843 64.084C26.8651 64.4165 25.8011 64.616 24.9588 64.749C24.6485 64.483 24.2273 64.084 23.7175 63.6185C22.9638 62.887 20.7471 60.7812 18.9738 58.4315C17.8211 56.9242 16.0921 54.3085 14.6291 50.4515Z" fill="white"/>
<path d="M14.5412 50.4734C16.6471 55.9929 20.1494 60.8474 24.7157 64.5714C24.8044 64.6379 24.9152 64.5271 24.8266 64.4606C20.2824 60.7366 16.7801 55.9042 14.6964 50.4291C14.6742 50.3404 14.5191 50.3847 14.5412 50.4734Z" fill="#202124"/>
<path d="M22.8088 46.7496C24.2718 50.6066 25.89 54.3749 27.6855 58.0989C27.7298 58.1876 27.885 58.1211 27.8185 58.0103C26.0452 54.3084 24.427 50.5401 22.964 46.7053C22.9418 46.6166 22.7645 46.6609 22.8088 46.7496Z" fill="#202124"/>
<path d="M28.0861 58.099C31.2116 57.6556 34.2706 56.9906 37.3074 56.104C37.4182 56.0818 37.3739 55.9045 37.2631 55.9488C34.2484 56.8355 31.1672 57.5005 28.0417 57.9438C27.9309 57.9438 27.9752 58.099 28.0861 58.099Z" fill="#202124"/>
<path d="M24.9826 64.86C30.4799 63.9733 35.6226 61.5793 39.8342 57.944C39.9229 57.8775 39.7899 57.7666 39.7234 57.8331C35.5117 61.4463 30.4134 63.8181 24.9382 64.7048C24.8274 64.7048 24.8717 64.86 24.9826 64.86Z" fill="#202124"/>
<path d="M38.0163 55.8157C38.9473 55.9709 39.701 56.658 39.9227 57.589C39.9448 57.6999 40.1 57.6555 40.0778 57.5447C39.834 56.5694 39.036 55.8157 38.0607 55.6605C37.9498 55.6384 37.9055 55.8157 38.0163 55.8157Z" fill="#202124"/>
<path d="M38.28 55.1948C38.6125 54.6628 38.9672 54.153 39.4105 53.6875C39.5879 53.488 39.7874 53.2885 39.9647 53.1112C40.0534 53.0225 40.1642 52.9338 40.275 52.8452C40.3415 52.7787 40.408 52.7343 40.4745 52.6678C40.6519 52.4683 40.8735 52.4905 41.1174 52.7565C41.0509 52.8452 41.206 52.9338 41.2504 52.8452C41.3612 52.6678 41.339 52.4683 41.1617 52.3353C40.8957 52.158 40.6075 52.3575 40.408 52.5127C39.4992 53.1777 38.7455 54.1308 38.147 55.1062C38.0805 55.1948 38.2135 55.2835 38.28 55.1948Z" fill="#202124"/>
<path d="M40.5424 53.7765C41.6507 53.0228 42.8921 52.6017 44.2221 52.4687C44.3329 52.4687 44.3329 52.2913 44.2221 52.2913C42.8699 52.4243 41.6064 52.8677 40.4537 53.6213C40.3651 53.6878 40.4537 53.843 40.5424 53.7765Z" fill="#202124"/>
<path d="M41.7611 54.0202C42.6921 53.5991 43.6453 53.2001 44.5763 52.7789C44.665 52.7346 44.5985 52.6016 44.4876 52.6459C43.5566 53.0671 42.6035 53.4661 41.6725 53.8872C41.5838 53.9094 41.6725 54.0646 41.7611 54.0202Z" fill="#202124"/>
<path d="M44.3988 53.2888C43.7117 53.7322 43.0467 54.1977 42.426 54.7518C42.3373 54.8183 42.4703 54.9292 42.5368 54.8627C43.1575 54.3307 43.8003 53.8652 44.4875 53.444C44.5762 53.3775 44.4875 53.2445 44.3988 53.2888Z" fill="#202124"/>
<path d="M44.7545 53.71C43.8457 55.5277 42.0724 56.4808 40.3434 57.3897C40.2547 57.434 40.3434 57.5892 40.432 57.5227C42.1832 56.6138 43.9787 55.6163 44.9097 53.7987C44.954 53.6878 44.7989 53.5992 44.7545 53.71Z" fill="#202124"/>
<path d="M13.5866 38.8583C13.3206 39.1021 12.9216 39.5233 12.6113 40.1218C12.2345 40.8089 12.1458 41.4296 12.1015 41.6956C11.4143 46.2841 11.5251 48.3456 11.5251 48.3456C11.8798 53.8873 11.2813 53.6213 11.7911 59.8501C12.1015 63.5963 12.7 68.3621 13.897 73.8594C14.961 74.2584 15.8698 74.5244 16.5791 74.7239C19.0175 75.3889 20.8573 75.5884 21.3228 75.6328C21.3228 75.6328 21.9656 75.6993 22.675 75.7436C25.5566 75.8988 28.6378 75.4998 30.4555 75.2116C31.2091 70.9999 32.2288 64.6381 32.8273 58.1211C33.0711 55.4389 33.182 53.3774 33.2041 51.1608C33.2485 48.0574 33.0933 45.4418 32.9381 43.5576C31.8741 43.0034 30.4111 42.2719 28.5935 41.5626C24.3375 39.9001 20.8351 39.3681 19.35 39.1686C17.8426 38.9691 15.892 38.8139 13.5866 38.8583Z" fill="white"/>
<path d="M13.5874 38.9468C20.1709 38.836 26.6657 40.3655 32.5399 43.358C32.6285 43.4023 32.7172 43.2693 32.6285 43.225C26.7322 40.2103 20.2152 38.6808 13.6095 38.7916C13.4765 38.7695 13.4765 38.9468 13.5874 38.9468Z" fill="#202124"/>
<path d="M12.1914 40.2992C10.551 51.2495 11.5485 62.3328 13.477 73.1723C13.4992 73.2832 13.6544 73.2388 13.6322 73.128C11.7037 62.3328 10.7284 51.2717 12.3465 40.3435C12.3687 40.2549 12.2135 40.2105 12.1914 40.2992Z" fill="#202124"/>
<path d="M32.8945 44.9539C33.6925 54.8624 32.0078 64.7044 30.301 74.4577C30.2788 74.5686 30.434 74.6129 30.4562 74.5021C32.163 64.7487 33.8698 54.8846 33.0718 44.9539C33.0497 44.8431 32.8945 44.8431 32.8945 44.9539Z" fill="#202124"/>
<path d="M13.9421 73.8815C19.0626 75.9208 24.6708 76.3642 30.0351 75.145C30.146 75.1228 30.1016 74.9677 29.9908 74.9898C24.6265 76.1868 19.0848 75.7435 13.9865 73.7263C13.8756 73.682 13.8313 73.8372 13.9421 73.8815Z" fill="#202124"/>
<path d="M33.2939 43.7572C32.4294 43.4469 31.1881 43.1144 29.7251 43.1809C25.6021 43.3804 23.0086 46.4172 22.4766 47.0822C23.3632 48.9442 25.6242 53.7322 28.3286 58.7862C32.8062 67.1652 31.6092 63.4855 32.5181 65.2367C32.6289 65.4584 32.9836 66.1455 33.7151 66.6332C33.8481 66.7219 34.2914 67.01 35.1116 67.1652C36.1756 67.3869 37.0401 67.2317 37.5499 67.143C39.2789 66.877 38.6582 67.1652 41.4956 66.8105C43.8896 66.5224 45.7072 66.1455 47.1037 65.8574C48.2121 65.6357 49.5421 65.3254 51.0494 64.9485C51.1381 64.7047 51.2046 64.4165 51.2267 64.0619C51.2932 63.1087 50.9386 62.355 50.7391 61.9782C49.8081 61.7565 48.8327 61.5127 47.8796 61.2467C44.2221 60.2492 40.8749 59.0522 37.8159 57.7665C37.1287 55.2839 36.3307 52.6904 35.4662 50.0525C34.7791 47.9024 34.0476 45.7744 33.2939 43.7572Z" fill="white"/>
<path d="M51.0498 61.8896C51.338 61.6679 51.5818 61.5127 51.7148 61.4019C53.1113 60.4044 53.333 60.4709 53.6211 60.0941C53.6655 60.0276 53.7763 59.8724 53.9536 59.8281C54.1975 59.7837 54.4191 60.0054 54.4413 60.0275C54.7295 60.3157 54.6408 61.0251 54.2418 61.7566C54.5743 61.8452 55.1063 62.0004 55.727 62.1556C57.323 62.5546 58.0988 62.7541 58.7638 62.7762C59.9165 62.8206 60.6701 62.5989 60.8253 62.9092C60.8696 63.02 60.8031 63.1087 60.6036 63.5964C60.2268 64.483 60.3376 64.4165 60.1825 64.6825C59.8721 65.2367 59.4288 65.5471 58.919 65.8796C58.6973 66.0347 58.4313 66.212 58.0545 66.3672C57.19 66.744 56.392 66.6997 55.7935 66.6332C54.8625 66.5667 54.2196 66.3451 53.4438 66.0569C52.1803 65.6136 51.5153 65.1481 51.1163 64.8377C50.54 64.3722 50.4291 64.1062 50.3848 64.0175C50.008 63.1087 50.9168 62.0669 51.0498 61.8896Z" fill="white"/>
<path d="M33.2063 43.6687C34.8688 48.2793 36.3539 52.9343 37.6618 57.6558C37.6839 57.7667 37.8613 57.7223 37.8169 57.6115C36.5091 52.89 35.0239 48.235 33.3614 43.6243C33.3393 43.5135 33.1841 43.5578 33.2063 43.6687Z" fill="#202124"/>
<path d="M37.8384 57.8996C42.05 59.4956 46.3725 60.8477 50.7394 61.9561C50.8502 61.9782 50.8945 61.8231 50.7837 61.8009C46.3947 60.6926 42.0944 59.3404 37.8827 57.7444C37.794 57.7222 37.7497 57.8774 37.8384 57.8996Z" fill="#202124"/>
<path d="M24.4503 51.3826C25.7581 54.2199 27.199 56.9686 28.8171 59.6508C29.6151 60.9808 30.4575 62.2886 31.3441 63.5742C32.0313 64.5717 32.7406 65.9018 33.7381 66.6333C34.5805 67.2539 35.6666 67.1874 36.6641 67.1652C38.3266 67.1209 40.0113 66.9879 41.6738 66.7884C44.7328 66.4116 47.7475 65.7909 50.6956 64.9486C50.8065 64.9264 50.7621 64.7491 50.6513 64.7934C47.7696 65.6136 44.8436 66.2343 41.8733 66.6111C40.499 66.7884 39.1025 66.8993 37.706 66.9658C36.0435 67.0544 34.3366 67.2539 33.1396 65.8352C31.3663 63.7294 29.9255 61.2246 28.529 58.8527C27.0881 56.3922 25.7803 53.8652 24.5833 51.2939C24.5611 51.1831 24.406 51.2717 24.4503 51.3826Z" fill="#202124"/>
<path d="M50.8722 62.1778C51.3155 62.8871 51.3599 63.7073 50.983 64.4388C50.9387 64.5274 51.0717 64.6161 51.116 64.5274C51.515 63.7294 51.4707 62.8428 51.0052 62.0891C50.9609 62.0004 50.8279 62.0891 50.8722 62.1778Z" fill="#202124"/>
<path d="M51.0941 61.9783C51.4266 61.7345 54.0423 59.5843 54.3748 60.072C54.4413 60.1606 54.5743 60.072 54.5078 59.9833C54.2861 59.6508 53.6655 59.9611 53.4216 60.0941C52.5571 60.5375 51.7813 61.2468 51.0055 61.8231C50.9168 61.8896 51.0055 62.0448 51.0941 61.9783Z" fill="#202124"/>
<path d="M54.2195 61.8453C56.3918 62.4438 58.5641 62.998 60.8251 62.998C60.936 62.998 60.936 62.8428 60.8251 62.8206C58.5641 62.8206 56.414 62.2665 54.2638 61.6901C54.153 61.6458 54.1086 61.8231 54.2195 61.8453Z" fill="#202124"/>
<path d="M51.05 64.9265C53.2888 66.3008 55.838 67.3427 58.4315 66.323C58.5201 66.2787 58.498 66.1235 58.3871 66.1678C55.838 67.1653 53.3331 66.1457 51.1386 64.7935C51.0278 64.727 50.9391 64.8822 51.05 64.9265Z" fill="#202124"/>
<path d="M56.4142 63.9066C57.7885 63.9953 59.4953 64.0175 60.7145 63.2416C60.8032 63.1751 60.7145 63.0421 60.6258 63.1086C59.4288 63.8623 57.7663 63.818 56.4142 63.7515C56.3033 63.7293 56.3033 63.8845 56.4142 63.9066Z" fill="#202124"/>
<path d="M56.6356 64.8157C57.9656 64.9487 59.2513 64.6383 60.4039 63.9512C60.4926 63.9068 60.4039 63.7517 60.3153 63.8182C59.1848 64.5053 57.9434 64.7935 56.6356 64.6605C56.5248 64.6383 56.5469 64.7935 56.6356 64.8157Z" fill="#202124"/>
<path d="M56.9236 65.6581C58.0762 65.9241 59.3397 65.3921 60.2929 64.705C60.3816 64.6385 60.2929 64.5055 60.2042 64.572C59.3176 65.2148 58.0984 65.769 56.9679 65.503C56.8571 65.4586 56.8127 65.636 56.9236 65.6581Z" fill="#202124"/>
<path d="M25.5133 33.0065C25.602 33.1839 25.735 33.4499 25.8458 33.7824C26.001 34.2035 26.134 34.6025 26.1562 35.1124C26.1562 35.3119 26.1783 35.9547 25.8015 36.6197C25.602 36.9522 25.336 37.2625 24.6932 37.7059C23.4518 38.526 22.4322 39.2132 21.7228 38.8364C20.9027 38.4152 20.8362 36.7305 21.2795 35.5779C21.878 34.0927 23.5405 33.1174 25.5133 33.0065Z" fill="white"/>
<path d="M21.9674 30.7452C21.7679 30.457 21.2803 29.8807 20.4823 29.5925C20.3936 29.5704 18.7311 28.994 17.5784 30.0359C17.4011 30.191 16.8026 30.723 16.7804 31.4545C16.7583 32.2304 17.3789 32.7402 17.0908 33.2944C17.0243 33.4274 16.9356 33.4939 16.7583 33.649C16.3593 33.9594 16.0046 33.9815 15.4504 34.181C15.4504 34.181 15.2509 34.2475 14.5194 34.58C14.1426 34.7574 12.7239 35.4002 11.9481 36.7302C11.4383 37.6169 11.3939 38.437 11.3718 39.1464C11.3274 39.8779 11.2609 41.3852 12.2363 42.9369C13.3668 44.7102 15.1401 45.2644 15.5613 45.3974C17.1794 45.8629 18.5094 45.4639 19.1966 45.2644C19.7064 45.1092 22.2556 44.2669 23.5634 41.762C24.6718 39.6784 24.3393 37.506 24.0733 35.6884C23.9846 35.1342 23.8959 34.6909 23.8073 34.3805C24.0068 34.2919 24.2506 34.1589 24.5388 33.9594C25.4476 33.3165 25.8688 32.4742 26.0239 32.1195C26.2678 31.5432 26.5559 30.9004 26.3343 30.1689C26.2899 30.0359 26.0683 29.1935 25.3811 28.9497C24.8048 28.7502 24.2506 29.0605 23.5856 29.4374C23.1644 29.6369 22.5659 30.0359 21.9674 30.7452Z" fill="#202124"/>
<path d="M25.5149 33.3832C26.4903 34.691 26.2686 37.0407 24.4509 37.484C24.3401 37.5062 24.3844 37.6614 24.4953 37.6392C26.4016 37.1737 26.6898 34.7132 25.6479 33.2945C25.6036 33.228 25.4484 33.2945 25.5149 33.3832Z" fill="#202124"/>
<path d="M22.0341 30.8784C22.5439 30.2577 23.1202 29.7035 23.8296 29.3267C24.4502 28.9942 24.6276 29.0164 25.3369 29.2602C26.1571 29.5705 26.2901 29.7922 26.2679 30.6789C26.2236 32.2527 25.1374 33.6049 23.7852 34.2699C23.6966 34.3142 23.7631 34.4694 23.8739 34.4029C25.4477 33.6492 27.0659 31.5212 26.3122 29.6592C25.4256 27.5312 22.7434 29.7035 21.9232 30.7232C21.8346 30.8562 21.9454 30.967 22.0341 30.8784Z" fill="#202124"/>
<path d="M22.0335 30.6787C21.1468 29.6591 19.4843 29.1714 18.1765 29.6147C17.2233 29.9472 16.4475 30.9669 16.7578 32.0087C16.8243 32.2082 16.9795 32.3412 17.0238 32.5186C17.046 32.6516 17.0681 32.7846 17.0681 32.9397C17.2455 33.2944 17.1346 33.4717 16.7578 33.5161C16.514 33.7156 15.982 33.8264 15.6938 33.9594C14.8736 34.2919 14.0535 34.6244 13.322 35.1342C12.0585 36.0209 11.46 37.2179 11.3048 38.7252C10.9945 41.8951 12.7456 44.9541 16.0041 45.5304C18.8415 46.0402 22.4768 44.3999 23.6738 41.6956C25.2255 38.1932 24.2501 33.7599 21.9891 30.8117C21.9226 30.7231 21.7896 30.8117 21.8561 30.9004C24.0506 33.7821 24.9816 37.9051 23.6516 41.3631C22.2108 45.1092 16.4918 46.7939 13.4106 44.1561C11.9476 42.9147 11.3713 40.9419 11.46 39.0577C11.593 36.5086 13.1446 35.1786 15.3835 34.2697C16.0485 34.0037 17.445 33.7821 17.5115 32.9619C17.4671 32.8511 17.4228 32.7624 17.3563 32.6737C16.9351 32.2747 16.78 31.7649 16.913 31.1886C17.0681 30.4792 17.6001 30.0359 18.243 29.7699C19.44 29.2601 21.1468 29.8586 21.9448 30.7896C21.967 30.8782 22.1 30.7674 22.0335 30.6787Z" fill="#202124"/>
<path d="M51.1611 105.691L53.3113 119.501H60.3381L61.9341 105.691H51.1611Z" fill="#202124"/>
<path d="M56.5476 106.932C59.5225 106.932 61.9341 106.446 61.9341 105.846C61.9341 105.246 59.5225 104.76 56.5476 104.76C53.5728 104.76 51.1611 105.246 51.1611 105.846C51.1611 106.446 53.5728 106.932 56.5476 106.932Z" fill="white" stroke="#202124" stroke-width="0.16625" stroke-miterlimit="10"/>
<path d="M55.6609 89.8414C53.9984 92.3463 56.6584 94.6073 57.1018 96.9791C57.6338 99.9494 55.1511 102.654 56.5033 105.624C56.6806 106.023 57.2569 105.668 57.0796 105.292C55.8826 102.654 58.0328 99.9938 57.8111 97.2894C57.6116 94.9398 54.7078 92.5236 56.2373 90.1739C56.4589 89.8193 55.8826 89.4868 55.6609 89.8414Z" fill="#0EBE7E"/>
<path d="M53.4883 93.5655C53.1336 94.9842 53.1779 96.425 53.7321 97.7994C54.3749 99.351 56.1704 100.526 56.1483 102.299C56.1483 102.72 56.8133 102.72 56.8133 102.299C56.8354 100.903 55.9488 99.9939 55.1729 98.952C54.0424 97.4225 53.6656 95.6049 54.1533 93.765C54.2419 93.3217 53.5991 93.1665 53.4883 93.5655Z" fill="#0EBE7E"/>
<path d="M59.1627 91.0828C58.9411 92.0803 58.3869 92.701 57.7884 93.4768C57.3007 94.1197 56.9904 94.8512 56.8131 95.6492C56.7244 96.0703 57.3672 96.2476 57.4559 95.8265C57.8549 94.0531 59.4287 93.0556 59.8056 91.2823C59.8942 90.839 59.2514 90.6616 59.1627 91.0828Z" fill="#0EBE7E"/>
<path d="M53.977 97.5556C53.5337 97.4004 52.7579 97.0901 52.1594 96.3364C50.6742 94.5409 51.5387 92.0804 51.6052 91.9252C51.849 92.3464 52.0929 92.7897 52.3367 93.2552C53.1125 94.7847 53.6224 96.2477 53.977 97.5556Z" fill="#2F878A"/>
<path d="M55.7062 92.9448C55.3737 92.6123 54.9525 92.0803 54.6865 91.3488C53.955 89.3759 54.9304 87.5361 55.1077 87.2036C55.4624 87.4918 55.8835 87.9129 56.1717 88.5336C57.1692 90.5729 55.8392 92.7453 55.7062 92.9448Z" fill="#2F878A"/>
<path d="M58.3651 93.3217C58.2764 92.8784 58.1878 92.2356 58.3208 91.5041C58.6533 89.7086 59.9611 88.6889 60.3379 88.4229C60.4931 88.7997 60.7148 89.5091 60.6039 90.3514C60.3158 92.2577 58.5646 93.2109 58.3651 93.3217Z" fill="#2F878A"/>
<path d="M55.2837 99.6391C55.0842 99.2401 54.8625 98.6416 54.8182 97.8879C54.7074 96.4914 55.2615 95.4496 55.5054 95.0284C55.7049 95.3609 55.9044 95.8264 56.0152 96.4028C56.3034 97.9766 55.5275 99.2623 55.2837 99.6391Z" fill="#2F878A"/>
<path d="M53.7107 94.0974C53.4447 93.6541 52.957 92.7674 52.8462 91.5483C52.7353 90.2183 53.1122 89.1986 53.3117 88.7331C53.5777 89.2208 53.9102 89.9966 54.0432 90.9941C54.2205 92.3906 53.9102 93.4989 53.7107 94.0974Z" fill="#2F878A"/>
<path d="M63.9951 66.5001L64.1946 81.0415L104.893 99.462L105.779 81.9503L63.9951 66.5001Z" fill="white" stroke="#202124" stroke-width="0.16625" stroke-miterlimit="10"/>
<path d="M65.0371 67.8745C65.1258 68.1405 65.0371 74.4137 65.0371 74.4137L102.321 87.9353L102.499 81.9725L65.0371 67.8745Z" fill="white" stroke="#202124" stroke-width="0.16625" stroke-miterlimit="10"/>
<path d="M66.0566 79.8665L101.368 94.9398" stroke="#0EBE7E" stroke-width="0.221667" stroke-miterlimit="10"/>
<path d="M71.332 80.5981L101.368 92.9893" stroke="#0EBE7E" stroke-width="0.221667" stroke-miterlimit="10"/>
<path d="M67.9629 77.2731L101.368 90.3958" stroke="#0EBE7E" stroke-width="0.221667" stroke-miterlimit="10"/>
<path d="M94.6738 13.6769V25.9794L128.899 31.4768C129.054 26.7331 129.209 21.9894 129.387 17.2458C117.816 16.0488 106.245 14.8739 94.6738 13.6769Z" fill="white" stroke="#202124" stroke-width="0.16625" stroke-miterlimit="10"/>
<path d="M96.8018 16.6695L125.375 19.5512" stroke="#202124" stroke-width="0.16625" stroke-miterlimit="10"/>
<path d="M97.1338 19.0192L122.492 21.9452" stroke="#202124" stroke-width="0.16625" stroke-miterlimit="10"/>
<path d="M125.773 23.0537C126.263 23.0537 126.66 22.6567 126.66 22.167C126.66 21.6773 126.263 21.2803 125.773 21.2803C125.284 21.2803 124.887 21.6773 124.887 22.167C124.887 22.6567 125.284 23.0537 125.773 23.0537Z" fill="#0EBE7E"/>
</svg>
