<svg width="18" height="16" viewBox="0 0 18 16" fill="none" xmlns="http://www.w3.org/2000/svg">
<path d="M12.7206 0.588501C15.5608 0.588501 17.2372 2.22287 17.2372 5.02057H13.7527V5.04912C12.1356 5.04912 10.8246 6.32726 10.8246 7.90392C10.8246 9.48058 12.1356 10.7587 13.7527 10.7587H17.2372V11.0156C17.2372 13.7777 15.5608 15.412 12.7206 15.412H5.2832C2.44294 15.412 0.766602 13.7777 0.766602 11.0156V4.98489C0.766602 2.22287 2.44294 0.588501 5.2832 0.588501H12.7206ZM16.6223 6.24813C16.9619 6.24813 17.2372 6.51654 17.2372 6.84764V8.93164C17.2332 9.26113 16.9602 9.5273 16.6223 9.53115H13.8186C12.9999 9.54189 12.2841 8.99539 12.0984 8.21794C12.0054 7.73533 12.1359 7.23732 12.455 6.85738C12.7741 6.47745 13.2491 6.25444 13.7527 6.24813H16.6223ZM14.148 7.21163H13.8772C13.7109 7.20972 13.5507 7.27279 13.4325 7.38677C13.3142 7.50074 13.2476 7.65614 13.2476 7.81827C13.2476 8.15843 13.5283 8.43528 13.8772 8.43919H14.148C14.4957 8.43919 14.7776 8.16439 14.7776 7.82541C14.7776 7.48643 14.4957 7.21163 14.148 7.21163ZM9.31666 3.79301H4.6683C4.32345 3.79299 4.04277 4.06346 4.03876 4.39965C4.03876 4.73981 4.31943 5.01666 4.6683 5.02057H9.31666C9.66435 5.02057 9.94621 4.74577 9.94621 4.40679C9.94621 4.06781 9.66435 3.79301 9.31666 3.79301Z" fill="#3E73AB"/>
</svg>
